<?xml version="1.0" encoding="UTF-8" standalone="no"?>
<!DOCTYPE svg PUBLIC "-//W3C//DTD SVG 1.1//EN"
 "http://www.w3.org/Graphics/SVG/1.1/DTD/svg11.dtd">
<!-- Generated by graphviz version 13.1.0 (20250701.0955)
 -->
<!-- Pages: 1 -->
<svg width="3615pt" height="1181pt"
 viewBox="0.00 0.00 3615.00 1181.00" xmlns="http://www.w3.org/2000/svg" xmlns:xlink="http://www.w3.org/1999/xlink">
<g id="graph0" class="graph" transform="scale(1 1) rotate(0) translate(4 1176.5)">
<polygon fill="white" stroke="none" points="-4,4 -4,-1176.5 3611,-1176.5 3611,4 -4,4"/>
<g id="clust1" class="cluster">
<title>cluster_Racket Handling</title>
<polygon fill="lightgrey" stroke="lightgrey" points="385,-548 385,-984.5 1154,-984.5 1154,-548 385,-548"/>
<text xml:space="preserve" text-anchor="middle" x="769.5" y="-967.2" font-family="Times New Roman,serif" font-size="14.00">Racket Handling</text>
</g>
<g id="clust2" class="cluster">
<title>cluster_Form</title>
<polygon fill="lightgrey" stroke="lightgrey" points="1162,-548 1162,-624.5 1794,-624.5 1794,-548 1162,-548"/>
<text xml:space="preserve" text-anchor="middle" x="1478" y="-607.2" font-family="Times New Roman,serif" font-size="14.00">Form</text>
</g>
<g id="clust3" class="cluster">
<title>cluster_Footwork</title>
<polygon fill="lightgrey" stroke="lightgrey" points="2553,-548 2553,-1164.5 3264,-1164.5 3264,-548 2553,-548"/>
<text xml:space="preserve" text-anchor="middle" x="2908.5" y="-1147.2" font-family="Times New Roman,serif" font-size="14.00">Footwork</text>
</g>
<g id="clust4" class="cluster">
<title>cluster_Shot</title>
<polygon fill="lightgrey" stroke="lightgrey" points="1223,-8 1223,-444.5 3599,-444.5 3599,-8 1223,-8"/>
<text xml:space="preserve" text-anchor="middle" x="2411" y="-427.2" font-family="Times New Roman,serif" font-size="14.00">Shot</text>
</g>
<g id="clust5" class="cluster">
<title>cluster_Serve</title>
<polygon fill="lightgrey" stroke="lightgrey" points="8,-368 8,-624.5 377,-624.5 377,-368 8,-368"/>
<text xml:space="preserve" text-anchor="middle" x="192.5" y="-607.2" font-family="Times New Roman,serif" font-size="14.00">Serve</text>
</g>
<!-- Forehand (V) Grip -->
<g id="node1" class="node">
<title>Forehand (V) Grip</title>
<ellipse fill="none" stroke="black" cx="649" cy="-934" rx="80.52" ry="18"/>
<text xml:space="preserve" text-anchor="middle" x="649" y="-928.95" font-family="Times New Roman,serif" font-size="14.00">Forehand (V) Grip</text>
</g>
<!-- Grip Switch -->
<g id="node5" class="node">
<title>Grip Switch</title>
<ellipse fill="none" stroke="black" cx="1090" cy="-754" rx="55.96" ry="18"/>
<text xml:space="preserve" text-anchor="middle" x="1090" y="-748.95" font-family="Times New Roman,serif" font-size="14.00">Grip Switch</text>
</g>
<!-- Forehand (V) Grip&#45;&gt;Grip Switch -->
<g id="edge1" class="edge">
<title>Forehand (V) Grip&#45;&gt;Grip Switch</title>
<path fill="none" stroke="black" d="M686.98,-917.67C768.23,-884.88 958.54,-808.06 1045.38,-773.01"/>
<polygon fill="black" stroke="black" points="1046.57,-776.3 1054.53,-769.31 1043.95,-769.81 1046.57,-776.3"/>
</g>
<!-- Forearm Pronation -->
<g id="node6" class="node">
<title>Forearm Pronation</title>
<ellipse fill="none" stroke="black" cx="635" cy="-754" rx="81.04" ry="18"/>
<text xml:space="preserve" text-anchor="middle" x="635" y="-748.95" font-family="Times New Roman,serif" font-size="14.00">Forearm Pronation</text>
</g>
<!-- Forehand (V) Grip&#45;&gt;Forearm Pronation -->
<g id="edge3" class="edge">
<title>Forehand (V) Grip&#45;&gt;Forearm Pronation</title>
<path fill="none" stroke="black" d="M647.63,-915.61C645.22,-884.9 640.18,-820.81 637.24,-783.54"/>
<polygon fill="black" stroke="black" points="640.77,-783.67 636.49,-773.97 633.79,-784.21 640.77,-783.67"/>
</g>
<!-- Forehand Drive -->
<g id="node42" class="node">
<title>Forehand Drive</title>
<ellipse fill="none" stroke="black" cx="1820" cy="-394" rx="69.26" ry="18"/>
<text xml:space="preserve" text-anchor="middle" x="1820" y="-388.95" font-family="Times New Roman,serif" font-size="14.00">Forehand Drive</text>
</g>
<!-- Forehand (V) Grip&#45;&gt;Forehand Drive -->
<g id="edge51" class="edge">
<title>Forehand (V) Grip&#45;&gt;Forehand Drive</title>
<path fill="none" stroke="black" d="M708.44,-921.52C935.7,-877.04 1740.49,-714.17 1812,-624.5 1858.52,-566.17 1841.3,-470.48 1828.67,-423.22"/>
<polygon fill="black" stroke="black" points="1832.09,-422.44 1826.01,-413.76 1825.35,-424.33 1832.09,-422.44"/>
</g>
<!-- Forehand Serve -->
<g id="node48" class="node">
<title>Forehand Serve</title>
<ellipse fill="none" stroke="black" cx="85" cy="-574" rx="69.26" ry="18"/>
<text xml:space="preserve" text-anchor="middle" x="85" y="-568.95" font-family="Times New Roman,serif" font-size="14.00">Forehand Serve</text>
</g>
<!-- Forehand (V) Grip&#45;&gt;Forehand Serve -->
<g id="edge60" class="edge">
<title>Forehand (V) Grip&#45;&gt;Forehand Serve</title>
<path fill="none" stroke="black" d="M609.3,-917.9C544.72,-892.47 414.04,-837.43 314,-772 232.83,-718.91 149.43,-639.72 109.38,-599.84"/>
<polygon fill="black" stroke="black" points="111.89,-597.41 102.35,-592.8 106.94,-602.35 111.89,-597.41"/>
</g>
<!-- Backhand Grip -->
<g id="node2" class="node">
<title>Backhand Grip</title>
<ellipse fill="none" stroke="black" cx="869" cy="-934" rx="67.22" ry="18"/>
<text xml:space="preserve" text-anchor="middle" x="869" y="-928.95" font-family="Times New Roman,serif" font-size="14.00">Backhand Grip</text>
</g>
<!-- Backhand Grip&#45;&gt;Grip Switch -->
<g id="edge2" class="edge">
<title>Backhand Grip&#45;&gt;Grip Switch</title>
<path fill="none" stroke="black" d="M889.4,-916.57C928.88,-884.77 1015.87,-814.71 1061.22,-778.18"/>
<polygon fill="black" stroke="black" points="1063.2,-781.08 1068.79,-772.08 1058.81,-775.63 1063.2,-781.08"/>
</g>
<!-- Forearm Supination -->
<g id="node7" class="node">
<title>Forearm Supination</title>
<ellipse fill="none" stroke="black" cx="873" cy="-754" rx="85.13" ry="18"/>
<text xml:space="preserve" text-anchor="middle" x="873" y="-748.95" font-family="Times New Roman,serif" font-size="14.00">Forearm Supination</text>
</g>
<!-- Backhand Grip&#45;&gt;Forearm Supination -->
<g id="edge4" class="edge">
<title>Backhand Grip&#45;&gt;Forearm Supination</title>
<path fill="none" stroke="black" d="M869.39,-915.61C870.08,-884.9 871.52,-820.81 872.36,-783.54"/>
<polygon fill="black" stroke="black" points="875.85,-784.05 872.57,-773.98 868.85,-783.89 875.85,-784.05"/>
</g>
<!-- Backhand Drive -->
<g id="node43" class="node">
<title>Backhand Drive</title>
<ellipse fill="none" stroke="black" cx="2033" cy="-394" rx="71.31" ry="18"/>
<text xml:space="preserve" text-anchor="middle" x="2033" y="-388.95" font-family="Times New Roman,serif" font-size="14.00">Backhand Drive</text>
</g>
<!-- Backhand Grip&#45;&gt;Backhand Drive -->
<g id="edge52" class="edge">
<title>Backhand Grip&#45;&gt;Backhand Drive</title>
<path fill="none" stroke="black" d="M924.83,-923.6C940.12,-921.08 956.69,-918.39 972,-916 1189.05,-882.11 1789.29,-921.76 1950,-772 2050.35,-678.49 2043.3,-493.54 2036.43,-423.12"/>
<polygon fill="black" stroke="black" points="2039.96,-423.17 2035.42,-413.6 2033,-423.91 2039.96,-423.17"/>
</g>
<!-- Backhand Serve -->
<g id="node46" class="node">
<title>Backhand Serve</title>
<ellipse fill="none" stroke="black" cx="298" cy="-574" rx="71.31" ry="18"/>
<text xml:space="preserve" text-anchor="middle" x="298" y="-568.95" font-family="Times New Roman,serif" font-size="14.00">Backhand Serve</text>
</g>
<!-- Backhand Grip&#45;&gt;Backhand Serve -->
<g id="edge57" class="edge">
<title>Backhand Grip&#45;&gt;Backhand Serve</title>
<path fill="none" stroke="black" d="M829.1,-919.19C761.81,-894.95 622.85,-840.72 518,-772 438.7,-720.03 359.17,-640.34 321.12,-600.1"/>
<polygon fill="black" stroke="black" points="323.86,-597.91 314.46,-593.01 318.75,-602.7 323.86,-597.91"/>
</g>
<!-- Bevel Grip -->
<g id="node3" class="node">
<title>Bevel Grip</title>
<ellipse fill="none" stroke="black" cx="445" cy="-934" rx="51.86" ry="18"/>
<text xml:space="preserve" text-anchor="middle" x="445" y="-928.95" font-family="Times New Roman,serif" font-size="14.00">Bevel Grip</text>
</g>
<!-- Bevel Grip&#45;&gt;Forearm Supination -->
<g id="edge5" class="edge">
<title>Bevel Grip&#45;&gt;Forearm Supination</title>
<path fill="none" stroke="black" d="M477.17,-919.62C551.82,-888.58 737.14,-811.5 825.14,-774.91"/>
<polygon fill="black" stroke="black" points="826.34,-778.2 834.23,-771.12 823.65,-771.73 826.34,-778.2"/>
</g>
<!-- Panhandle Grip -->
<g id="node4" class="node">
<title>Panhandle Grip</title>
<ellipse fill="none" stroke="black" cx="1077" cy="-934" rx="68.75" ry="18"/>
<text xml:space="preserve" text-anchor="middle" x="1077" y="-928.95" font-family="Times New Roman,serif" font-size="14.00">Panhandle Grip</text>
</g>
<!-- Service Return Form -->
<g id="node9" class="node">
<title>Service Return Form</title>
<ellipse fill="none" stroke="black" cx="1259" cy="-574" rx="89.23" ry="18"/>
<text xml:space="preserve" text-anchor="middle" x="1259" y="-568.95" font-family="Times New Roman,serif" font-size="14.00">Service Return Form</text>
</g>
<!-- Grip Switch&#45;&gt;Service Return Form -->
<g id="edge9" class="edge">
<title>Grip Switch&#45;&gt;Service Return Form</title>
<path fill="none" stroke="black" d="M1105.9,-736.25C1135.64,-704.93 1199.85,-637.29 1234.93,-600.35"/>
<polygon fill="black" stroke="black" points="1237.38,-602.85 1241.73,-593.19 1232.31,-598.03 1237.38,-602.85"/>
</g>
<!-- Defensive Form -->
<g id="node10" class="node">
<title>Defensive Form</title>
<ellipse fill="none" stroke="black" cx="1715" cy="-574" rx="71.31" ry="18"/>
<text xml:space="preserve" text-anchor="middle" x="1715" y="-568.95" font-family="Times New Roman,serif" font-size="14.00">Defensive Form</text>
</g>
<!-- Grip Switch&#45;&gt;Defensive Form -->
<g id="edge11" class="edge">
<title>Grip Switch&#45;&gt;Defensive Form</title>
<path fill="none" stroke="black" d="M1137.55,-744.27C1229.69,-726.67 1438.3,-683.55 1607,-624.5 1629.94,-616.47 1654.64,-605.35 1674.62,-595.68"/>
<polygon fill="black" stroke="black" points="1676.11,-598.85 1683.54,-591.3 1673.02,-592.56 1676.11,-598.85"/>
</g>
<!-- Aggressive Form -->
<g id="node11" class="node">
<title>Aggressive Form</title>
<ellipse fill="none" stroke="black" cx="1496" cy="-574" rx="75.41" ry="18"/>
<text xml:space="preserve" text-anchor="middle" x="1496" y="-568.95" font-family="Times New Roman,serif" font-size="14.00">Aggressive Form</text>
</g>
<!-- Grip Switch&#45;&gt;Aggressive Form -->
<g id="edge13" class="edge">
<title>Grip Switch&#45;&gt;Aggressive Form</title>
<path fill="none" stroke="black" d="M1122.21,-738.97C1176.32,-715.4 1288.89,-666.3 1384,-624.5 1406.04,-614.81 1430.5,-604.01 1450.93,-594.97"/>
<polygon fill="black" stroke="black" points="1452.09,-598.28 1459.82,-591.03 1449.26,-591.88 1452.09,-598.28"/>
</g>
<!-- Finger Squeeze -->
<g id="node8" class="node">
<title>Finger Squeeze</title>
<ellipse fill="none" stroke="black" cx="873" cy="-574" rx="68.24" ry="18"/>
<text xml:space="preserve" text-anchor="middle" x="873" y="-568.95" font-family="Times New Roman,serif" font-size="14.00">Finger Squeeze</text>
</g>
<!-- Forearm Pronation&#45;&gt;Finger Squeeze -->
<g id="edge6" class="edge">
<title>Forearm Pronation&#45;&gt;Finger Squeeze</title>
<path fill="none" stroke="black" d="M657.39,-736.25C700.13,-704.29 793.42,-634.52 842.08,-598.13"/>
<polygon fill="black" stroke="black" points="844.06,-601.01 849.97,-592.22 839.87,-595.41 844.06,-601.01"/>
</g>
<!-- Forearm Supination&#45;&gt;Finger Squeeze -->
<g id="edge7" class="edge">
<title>Forearm Supination&#45;&gt;Finger Squeeze</title>
<path fill="none" stroke="black" d="M873,-735.61C873,-704.9 873,-640.81 873,-603.54"/>
<polygon fill="black" stroke="black" points="876.5,-603.98 873,-593.98 869.5,-603.98 876.5,-603.98"/>
</g>
<!-- Clear -->
<g id="node24" class="node">
<title>Clear</title>
<ellipse fill="none" stroke="black" cx="2619" cy="-394" rx="30.88" ry="18"/>
<text xml:space="preserve" text-anchor="middle" x="2619" y="-388.95" font-family="Times New Roman,serif" font-size="14.00">Clear</text>
</g>
<!-- Finger Squeeze&#45;&gt;Clear -->
<g id="edge28" class="edge">
<title>Finger Squeeze&#45;&gt;Clear</title>
<path fill="none" stroke="black" d="M936.22,-566.83C991.12,-561.56 1072.78,-553.9 1144,-548 1456.66,-522.09 2257.81,-553.5 2552,-444.5 2567.99,-438.57 2583.47,-427.6 2595.51,-417.49"/>
<polygon fill="black" stroke="black" points="2597.67,-420.26 2602.87,-411.03 2593.05,-415 2597.67,-420.26"/>
</g>
<!-- Backhand Clear -->
<g id="node26" class="node">
<title>Backhand Clear</title>
<ellipse fill="none" stroke="black" cx="2446" cy="-394" rx="70.29" ry="18"/>
<text xml:space="preserve" text-anchor="middle" x="2446" y="-388.95" font-family="Times New Roman,serif" font-size="14.00">Backhand Clear</text>
</g>
<!-- Finger Squeeze&#45;&gt;Backhand Clear -->
<g id="edge33" class="edge">
<title>Finger Squeeze&#45;&gt;Backhand Clear</title>
<path fill="none" stroke="black" d="M936.51,-567.04C991.42,-561.91 1072.94,-554.35 1144,-548 1675.42,-500.49 1824.61,-582.49 2340,-444.5 2363.78,-438.13 2388.81,-426.7 2408.57,-416.42"/>
<polygon fill="black" stroke="black" points="2410.16,-419.54 2417.34,-411.74 2406.87,-413.36 2410.16,-419.54"/>
</g>
<!-- Backhand Flick Serve -->
<g id="node47" class="node">
<title>Backhand Flick Serve</title>
<ellipse fill="none" stroke="black" cx="276" cy="-394" rx="92.81" ry="18"/>
<text xml:space="preserve" text-anchor="middle" x="276" y="-388.95" font-family="Times New Roman,serif" font-size="14.00">Backhand Flick Serve</text>
</g>
<!-- Finger Squeeze&#45;&gt;Backhand Flick Serve -->
<g id="edge59" class="edge">
<title>Finger Squeeze&#45;&gt;Backhand Flick Serve</title>
<path fill="none" stroke="black" d="M829.1,-559.91C723.61,-528.46 455.72,-448.58 335.72,-412.81"/>
<polygon fill="black" stroke="black" points="336.96,-409.52 326.38,-410.02 334.96,-416.23 336.96,-409.52"/>
</g>
<!-- Defense Lift -->
<g id="node44" class="node">
<title>Defense Lift</title>
<ellipse fill="none" stroke="black" cx="1936" cy="-214" rx="57.49" ry="18"/>
<text xml:space="preserve" text-anchor="middle" x="1936" y="-208.95" font-family="Times New Roman,serif" font-size="14.00">Defense Lift</text>
</g>
<!-- Defensive Form&#45;&gt;Defense Lift -->
<g id="edge53" class="edge">
<title>Defensive Form&#45;&gt;Defense Lift</title>
<path fill="none" stroke="black" d="M1642,-393C1665.82,-290.15 1797.14,-244.44 1876,-226.02"/>
<polygon fill="black" stroke="black" points="1876.3,-229.54 1885.28,-223.93 1874.76,-222.71 1876.3,-229.54"/>
</g>
<!-- Defense Net -->
<g id="node45" class="node">
<title>Defense Net</title>
<ellipse fill="none" stroke="black" cx="1750" cy="-214" rx="56.98" ry="18"/>
<text xml:space="preserve" text-anchor="middle" x="1750" y="-208.95" font-family="Times New Roman,serif" font-size="14.00">Defense Net</text>
</g>
<!-- Defensive Form&#45;&gt;Defense Net -->
<g id="edge55" class="edge">
<title>Defensive Form&#45;&gt;Defense Net</title>
<path fill="none" stroke="black" d="M1642,-393C1656.09,-332.16 1700.35,-272.38 1727.64,-239.92"/>
<polygon fill="black" stroke="black" points="1730.01,-242.54 1733.86,-232.67 1724.69,-237.98 1730.01,-242.54"/>
<path fill="none" stroke="black" d="M1700.09,-555.93C1674.83,-524.93 1627.68,-456.82 1642,-395"/>
</g>
<!-- Forehand Net Kill -->
<g id="node32" class="node">
<title>Forehand Net Kill</title>
<ellipse fill="none" stroke="black" cx="1309" cy="-214" rx="78.48" ry="18"/>
<text xml:space="preserve" text-anchor="middle" x="1309" y="-208.95" font-family="Times New Roman,serif" font-size="14.00">Forehand Net Kill</text>
</g>
<!-- Aggressive Form&#45;&gt;Forehand Net Kill -->
<g id="edge39" class="edge">
<title>Aggressive Form&#45;&gt;Forehand Net Kill</title>
<path fill="none" stroke="black" d="M1496,-393C1481.62,-317.84 1403.24,-263.76 1352.63,-236.07"/>
<polygon fill="black" stroke="black" points="1354.4,-233.05 1343.93,-231.44 1351.11,-239.23 1354.4,-233.05"/>
<path fill="none" stroke="black" d="M1498.15,-555.61C1501.63,-523.52 1507.09,-452.97 1496,-395"/>
</g>
<!-- Backhand Net Kill -->
<g id="node33" class="node">
<title>Backhand Net Kill</title>
<ellipse fill="none" stroke="black" cx="1540" cy="-214" rx="80.52" ry="18"/>
<text xml:space="preserve" text-anchor="middle" x="1540" y="-208.95" font-family="Times New Roman,serif" font-size="14.00">Backhand Net Kill</text>
</g>
<!-- Aggressive Form&#45;&gt;Backhand Net Kill -->
<g id="edge41" class="edge">
<title>Aggressive Form&#45;&gt;Backhand Net Kill</title>
<path fill="none" stroke="black" d="M1496,-393C1485.69,-339.11 1509.2,-277.11 1525.67,-242.34"/>
<polygon fill="black" stroke="black" points="1528.79,-243.93 1530.05,-233.41 1522.51,-240.84 1528.79,-243.93"/>
</g>
<!-- Lunge -->
<g id="node12" class="node">
<title>Lunge</title>
<ellipse fill="none" stroke="black" cx="2850" cy="-934" rx="34.46" ry="18"/>
<text xml:space="preserve" text-anchor="middle" x="2850" y="-928.95" font-family="Times New Roman,serif" font-size="14.00">Lunge</text>
</g>
<!-- Forehand Lift -->
<g id="node22" class="node">
<title>Forehand Lift</title>
<ellipse fill="none" stroke="black" cx="3308" cy="-394" rx="62.1" ry="18"/>
<text xml:space="preserve" text-anchor="middle" x="3308" y="-388.95" font-family="Times New Roman,serif" font-size="14.00">Forehand Lift</text>
</g>
<!-- Lunge&#45;&gt;Forehand Lift -->
<g id="edge25" class="edge">
<title>Lunge&#45;&gt;Forehand Lift</title>
<path fill="none" stroke="black" d="M3437,-573C3396.42,-519.93 3351.02,-456.22 3326.37,-421.22"/>
<polygon fill="black" stroke="black" points="3329.47,-419.55 3320.86,-413.39 3323.75,-423.58 3329.47,-419.55"/>
</g>
<!-- Backhand Lift -->
<g id="node23" class="node">
<title>Backhand Lift</title>
<ellipse fill="none" stroke="black" cx="2240" cy="-394" rx="64.15" ry="18"/>
<text xml:space="preserve" text-anchor="middle" x="2240" y="-388.95" font-family="Times New Roman,serif" font-size="14.00">Backhand Lift</text>
</g>
<!-- Lunge&#45;&gt;Backhand Lift -->
<g id="edge27" class="edge">
<title>Lunge&#45;&gt;Backhand Lift</title>
<path fill="none" stroke="black" d="M3437,-573C3287.9,-378.03 2575.33,-514.24 2340,-444.5 2317.69,-437.89 2294.31,-426.59 2275.77,-416.45"/>
<polygon fill="black" stroke="black" points="2277.48,-413.4 2267.05,-411.56 2274.06,-419.5 2277.48,-413.4"/>
<path fill="none" stroke="black" d="M2879.78,-924.61C2967.49,-899.53 3223.04,-823.65 3292,-772 3379.02,-706.83 3503.04,-661.36 3437,-575"/>
</g>
<!-- Forehand Net -->
<g id="node34" class="node">
<title>Forehand Net</title>
<ellipse fill="none" stroke="black" cx="2983" cy="-394" rx="61.59" ry="18"/>
<text xml:space="preserve" text-anchor="middle" x="2983" y="-388.95" font-family="Times New Roman,serif" font-size="14.00">Forehand Net</text>
</g>
<!-- Lunge&#45;&gt;Forehand Net -->
<g id="edge43" class="edge">
<title>Lunge&#45;&gt;Forehand Net</title>
<path fill="none" stroke="black" d="M2479,-573C2564.56,-403.7 2710.47,-516.41 2886,-444.5 2906.18,-436.23 2927.87,-425.36 2945.61,-415.92"/>
<polygon fill="black" stroke="black" points="2947.09,-419.1 2954.23,-411.27 2943.77,-412.94 2947.09,-419.1"/>
</g>
<!-- Backhand Net -->
<g id="node35" class="node">
<title>Backhand Net</title>
<ellipse fill="none" stroke="black" cx="2786" cy="-394" rx="63.63" ry="18"/>
<text xml:space="preserve" text-anchor="middle" x="2786" y="-388.95" font-family="Times New Roman,serif" font-size="14.00">Backhand Net</text>
</g>
<!-- Lunge&#45;&gt;Backhand Net -->
<g id="edge44" class="edge">
<title>Lunge&#45;&gt;Backhand Net</title>
<path fill="none" stroke="black" d="M2822.29,-923.03C2719.62,-884.5 2372.15,-739.34 2479,-575"/>
<path fill="none" stroke="black" d="M2479,-573C2492.61,-546.06 2665.26,-456.07 2745.5,-415.34"/>
<polygon fill="black" stroke="black" points="2747.03,-418.49 2754.37,-410.85 2743.87,-412.24 2747.03,-418.49"/>
</g>
<!-- Chasse -->
<g id="node13" class="node">
<title>Chasse</title>
<ellipse fill="none" stroke="black" cx="2993" cy="-934" rx="37.02" ry="18"/>
<text xml:space="preserve" text-anchor="middle" x="2993" y="-928.95" font-family="Times New Roman,serif" font-size="14.00">Chasse</text>
</g>
<!-- Back Crossover -->
<g id="node14" class="node">
<title>Back Crossover</title>
<ellipse fill="none" stroke="black" cx="2902" cy="-754" rx="69.78" ry="18"/>
<text xml:space="preserve" text-anchor="middle" x="2902" y="-748.95" font-family="Times New Roman,serif" font-size="14.00">Back Crossover</text>
</g>
<!-- Chasse&#45;&gt;Back Crossover -->
<g id="edge16" class="edge">
<title>Chasse&#45;&gt;Back Crossover</title>
<path fill="none" stroke="black" d="M2984.44,-916.25C2968.69,-885.46 2935.01,-819.57 2915.93,-782.25"/>
<polygon fill="black" stroke="black" points="2919.1,-780.75 2911.43,-773.44 2912.86,-783.94 2919.1,-780.75"/>
</g>
<!-- Backhand Footwork -->
<g id="node19" class="node">
<title>Backhand Footwork</title>
<ellipse fill="none" stroke="black" cx="2674" cy="-754" rx="86.15" ry="18"/>
<text xml:space="preserve" text-anchor="middle" x="2674" y="-748.95" font-family="Times New Roman,serif" font-size="14.00">Backhand Footwork</text>
</g>
<!-- Chasse&#45;&gt;Backhand Footwork -->
<g id="edge20" class="edge">
<title>Chasse&#45;&gt;Backhand Footwork</title>
<path fill="none" stroke="black" d="M2969.28,-919.77C2914.76,-889.34 2780.04,-814.17 2713.08,-776.81"/>
<polygon fill="black" stroke="black" points="2715.08,-773.92 2704.64,-772.1 2711.67,-780.03 2715.08,-773.92"/>
</g>
<!-- Forehand Footwork -->
<g id="node18" class="node">
<title>Forehand Footwork</title>
<ellipse fill="none" stroke="black" cx="3098" cy="-574" rx="84.11" ry="18"/>
<text xml:space="preserve" text-anchor="middle" x="3098" y="-568.95" font-family="Times New Roman,serif" font-size="14.00">Forehand Footwork</text>
</g>
<!-- Back Crossover&#45;&gt;Forehand Footwork -->
<g id="edge19" class="edge">
<title>Back Crossover&#45;&gt;Forehand Footwork</title>
<path fill="none" stroke="black" d="M2920.44,-736.25C2955.24,-704.65 3030.73,-636.09 3071.16,-599.37"/>
<polygon fill="black" stroke="black" points="3073.3,-602.16 3078.35,-592.85 3068.59,-596.98 3073.3,-602.16"/>
</g>
<!-- Rear Forehand Footwork -->
<g id="node20" class="node">
<title>Rear Forehand Footwork</title>
<ellipse fill="none" stroke="black" cx="2838" cy="-574" rx="104.07" ry="18"/>
<text xml:space="preserve" text-anchor="middle" x="2838" y="-568.95" font-family="Times New Roman,serif" font-size="14.00">Rear Forehand Footwork</text>
</g>
<!-- Back Crossover&#45;&gt;Rear Forehand Footwork -->
<g id="edge22" class="edge">
<title>Back Crossover&#45;&gt;Rear Forehand Footwork</title>
<path fill="none" stroke="black" d="M2895.75,-735.61C2884.66,-704.77 2861.46,-640.26 2848.09,-603.06"/>
<polygon fill="black" stroke="black" points="2851.47,-602.11 2844.79,-593.89 2844.88,-604.48 2851.47,-602.11"/>
</g>
<!-- Non&#45;Racket Pivot -->
<g id="node15" class="node">
<title>Non&#45;Racket Pivot</title>
<ellipse fill="none" stroke="black" cx="3179" cy="-934" rx="77.45" ry="18"/>
<text xml:space="preserve" text-anchor="middle" x="3179" y="-928.95" font-family="Times New Roman,serif" font-size="14.00">Non&#45;Racket Pivot</text>
</g>
<!-- Non&#45;Racket Pivot&#45;&gt;Backhand Footwork -->
<g id="edge21" class="edge">
<title>Non&#45;Racket Pivot&#45;&gt;Backhand Footwork</title>
<path fill="none" stroke="black" d="M3137.67,-918.43C3046.53,-886.31 2828.36,-809.41 2727.19,-773.75"/>
<polygon fill="black" stroke="black" points="2728.63,-770.55 2718.04,-770.52 2726.31,-777.15 2728.63,-770.55"/>
</g>
<!-- Rear Backhand Footwork -->
<g id="node21" class="node">
<title>Rear Backhand Footwork</title>
<ellipse fill="none" stroke="black" cx="3150" cy="-754" rx="106.11" ry="18"/>
<text xml:space="preserve" text-anchor="middle" x="3150" y="-748.95" font-family="Times New Roman,serif" font-size="14.00">Rear Backhand Footwork</text>
</g>
<!-- Non&#45;Racket Pivot&#45;&gt;Rear Backhand Footwork -->
<g id="edge23" class="edge">
<title>Non&#45;Racket Pivot&#45;&gt;Rear Backhand Footwork</title>
<path fill="none" stroke="black" d="M3176.17,-915.61C3171.16,-884.9 3160.72,-820.81 3154.65,-783.54"/>
<polygon fill="black" stroke="black" points="3158.15,-783.26 3153.09,-773.96 3151.24,-784.39 3158.15,-783.26"/>
</g>
<!-- Split Step -->
<g id="node16" class="node">
<title>Split Step</title>
<ellipse fill="none" stroke="black" cx="2850" cy="-1114" rx="47.26" ry="18"/>
<text xml:space="preserve" text-anchor="middle" x="2850" y="-1108.95" font-family="Times New Roman,serif" font-size="14.00">Split Step</text>
</g>
<!-- Split Step&#45;&gt;Service Return Form -->
<g id="edge8" class="edge">
<title>Split Step&#45;&gt;Service Return Form</title>
<path fill="none" stroke="black" d="M2333,-933C1917.47,-779.19 1802.05,-774.13 1385,-624.5 1359.31,-615.28 1331.01,-604.25 1307.74,-594.93"/>
<polygon fill="black" stroke="black" points="1309.09,-591.7 1298.5,-591.22 1306.47,-598.2 1309.09,-591.7"/>
<path fill="none" stroke="black" d="M2814.65,-1101.6C2730.6,-1074.34 2512.45,-1002.58 2333,-935"/>
</g>
<!-- Split Step&#45;&gt;Defensive Form -->
<g id="edge10" class="edge">
<title>Split Step&#45;&gt;Defensive Form</title>
<path fill="none" stroke="black" d="M2333,-933C2101.74,-823.07 1841.44,-657.54 1749.43,-597.64"/>
<polygon fill="black" stroke="black" points="1751.36,-594.72 1741.07,-592.19 1747.53,-600.58 1751.36,-594.72"/>
</g>
<!-- Split Step&#45;&gt;Lunge -->
<g id="edge14" class="edge">
<title>Split Step&#45;&gt;Lunge</title>
<path fill="none" stroke="black" d="M2850,-1095.61C2850,-1064.9 2850,-1000.81 2850,-963.54"/>
<polygon fill="black" stroke="black" points="2853.5,-963.98 2850,-953.98 2846.5,-963.98 2853.5,-963.98"/>
</g>
<!-- Split Step&#45;&gt;Chasse -->
<g id="edge15" class="edge">
<title>Split Step&#45;&gt;Chasse</title>
<path fill="none" stroke="black" d="M2863.45,-1096.25C2888.71,-1064.82 2943.33,-996.83 2972.94,-959.97"/>
<polygon fill="black" stroke="black" points="2975.41,-962.48 2978.95,-952.49 2969.95,-958.1 2975.41,-962.48"/>
</g>
<!-- Split Step&#45;&gt;Non&#45;Racket Pivot -->
<g id="edge17" class="edge">
<title>Split Step&#45;&gt;Non&#45;Racket Pivot</title>
<path fill="none" stroke="black" d="M2876.37,-1098.73C2934.09,-1067.5 3071.9,-992.94 3139.81,-956.2"/>
<polygon fill="black" stroke="black" points="3141.24,-959.41 3148.37,-951.57 3137.91,-953.25 3141.24,-959.41"/>
</g>
<!-- Directional Split Step -->
<g id="node17" class="node">
<title>Directional Split Step</title>
<ellipse fill="none" stroke="black" cx="2652" cy="-934" rx="91.27" ry="18"/>
<text xml:space="preserve" text-anchor="middle" x="2652" y="-928.95" font-family="Times New Roman,serif" font-size="14.00">Directional Split Step</text>
</g>
<!-- Split Step&#45;&gt;Directional Split Step -->
<g id="edge18" class="edge">
<title>Split Step&#45;&gt;Directional Split Step</title>
<path fill="none" stroke="black" d="M2832.08,-1096.89C2797.31,-1065.64 2720.52,-996.6 2679.35,-959.59"/>
<polygon fill="black" stroke="black" points="2681.79,-957.08 2672.02,-952.99 2677.11,-962.28 2681.79,-957.08"/>
</g>
<!-- Directional Split Step&#45;&gt;Aggressive Form -->
<g id="edge12" class="edge">
<title>Directional Split Step&#45;&gt;Aggressive Form</title>
<path fill="none" stroke="black" d="M2596.57,-919.31C2439.46,-879.95 1978.6,-760.51 1608,-624.5 1584.72,-615.96 1559.39,-604.92 1538.73,-595.44"/>
<polygon fill="black" stroke="black" points="1540.3,-592.31 1529.75,-591.28 1537.35,-598.66 1540.3,-592.31"/>
</g>
<!-- Forehand Footwork&#45;&gt;Forehand Lift -->
<g id="edge24" class="edge">
<title>Forehand Footwork&#45;&gt;Forehand Lift</title>
<path fill="none" stroke="black" d="M3117.76,-556.25C3155.22,-524.5 3236.68,-455.45 3279.85,-418.86"/>
<polygon fill="black" stroke="black" points="3281.93,-421.69 3287.29,-412.55 3277.4,-416.35 3281.93,-421.69"/>
</g>
<!-- Backhand Footwork&#45;&gt;Backhand Lift -->
<g id="edge26" class="edge">
<title>Backhand Footwork&#45;&gt;Backhand Lift</title>
<path fill="none" stroke="black" d="M2625,-573C2542.67,-461.08 2465.62,-503.89 2340,-444.5 2320.24,-435.16 2298.46,-424.43 2280.3,-415.36"/>
<polygon fill="black" stroke="black" points="2281.92,-412.26 2271.41,-410.91 2278.78,-418.52 2281.92,-412.26"/>
<path fill="none" stroke="black" d="M2673.25,-735.55C2670.99,-701.48 2661.85,-625.09 2625,-575"/>
</g>
<!-- Backhand Footwork&#45;&gt;Backhand Clear -->
<g id="edge32" class="edge">
<title>Backhand Footwork&#45;&gt;Backhand Clear</title>
<path fill="none" stroke="black" d="M2625,-573C2579.56,-511.23 2512.61,-450.74 2474.79,-418.64"/>
<polygon fill="black" stroke="black" points="2477.34,-416.22 2467.44,-412.46 2472.84,-421.57 2477.34,-416.22"/>
</g>
<!-- Rear Forehand Footwork&#45;&gt;Clear -->
<g id="edge29" class="edge">
<title>Rear Forehand Footwork&#45;&gt;Clear</title>
<path fill="none" stroke="black" d="M2817,-555.93C2776.82,-523.28 2689.16,-452.02 2645.21,-416.31"/>
<polygon fill="black" stroke="black" points="2647.67,-413.8 2637.71,-410.2 2643.26,-419.23 2647.67,-413.8"/>
</g>
<!-- Round The Head Clear -->
<g id="node25" class="node">
<title>Round The Head Clear</title>
<ellipse fill="none" stroke="black" cx="3261" cy="-214" rx="96.39" ry="18"/>
<text xml:space="preserve" text-anchor="middle" x="3261" y="-208.95" font-family="Times New Roman,serif" font-size="14.00">Round The Head Clear</text>
</g>
<!-- Rear Backhand Footwork&#45;&gt;Round The Head Clear -->
<g id="edge31" class="edge">
<title>Rear Backhand Footwork&#45;&gt;Round The Head Clear</title>
<path fill="none" stroke="black" d="M3171.82,-736.21C3224.51,-694.08 3357.92,-577.72 3406,-444.5 3417.54,-412.52 3418.59,-399.58 3406,-368 3383.74,-312.14 3330.31,-264.96 3294.91,-238.32"/>
<polygon fill="black" stroke="black" points="3297.23,-235.69 3287.1,-232.58 3293.08,-241.32 3297.23,-235.69"/>
</g>
<!-- Backhand Lift&#45;&gt;Defense Lift -->
<g id="edge54" class="edge">
<title>Backhand Lift&#45;&gt;Defense Lift</title>
<path fill="none" stroke="black" d="M2213.02,-377.2C2158.1,-345.05 2033.3,-271.97 1971.73,-235.92"/>
<polygon fill="black" stroke="black" points="1973.76,-233.05 1963.36,-231.02 1970.22,-239.09 1973.76,-233.05"/>
</g>
<!-- Backhand Lift&#45;&gt;Defense Net -->
<g id="edge56" class="edge">
<title>Backhand Lift&#45;&gt;Defense Net</title>
<path fill="none" stroke="black" d="M2201.96,-379.18C2113.4,-347.01 1893.68,-267.19 1796.97,-232.06"/>
<polygon fill="black" stroke="black" points="1798.36,-228.85 1787.77,-228.72 1795.97,-235.42 1798.36,-228.85"/>
</g>
<!-- Clear&#45;&gt;Round The Head Clear -->
<g id="edge30" class="edge">
<title>Clear&#45;&gt;Round The Head Clear</title>
<path fill="none" stroke="black" d="M2643.93,-383.04C2656.46,-378.2 2671.92,-372.49 2686,-368 2865.89,-310.65 3082.03,-257.2 3190.94,-231.31"/>
<polygon fill="black" stroke="black" points="3191.7,-234.73 3200.63,-229.02 3190.09,-227.92 3191.7,-234.73"/>
</g>
<!-- Overhead Smash -->
<g id="node28" class="node">
<title>Overhead Smash</title>
<ellipse fill="none" stroke="black" cx="2574" cy="-214" rx="74.38" ry="18"/>
<text xml:space="preserve" text-anchor="middle" x="2574" y="-208.95" font-family="Times New Roman,serif" font-size="14.00">Overhead Smash</text>
</g>
<!-- Clear&#45;&gt;Overhead Smash -->
<g id="edge35" class="edge">
<title>Clear&#45;&gt;Overhead Smash</title>
<path fill="none" stroke="black" d="M2614.69,-375.93C2606.94,-345.31 2590.62,-280.75 2581.17,-243.38"/>
<polygon fill="black" stroke="black" points="2584.58,-242.58 2578.74,-233.74 2577.8,-244.3 2584.58,-242.58"/>
</g>
<!-- Forehand Drop -->
<g id="node40" class="node">
<title>Forehand Drop</title>
<ellipse fill="none" stroke="black" cx="2788" cy="-214" rx="67.22" ry="18"/>
<text xml:space="preserve" text-anchor="middle" x="2788" y="-208.95" font-family="Times New Roman,serif" font-size="14.00">Forehand Drop</text>
</g>
<!-- Clear&#45;&gt;Forehand Drop -->
<g id="edge49" class="edge">
<title>Clear&#45;&gt;Forehand Drop</title>
<path fill="none" stroke="black" d="M2633.41,-377.82C2662.57,-347.11 2728.84,-277.31 2764.4,-239.86"/>
<polygon fill="black" stroke="black" points="2766.52,-242.7 2770.87,-233.04 2761.45,-237.88 2766.52,-242.7"/>
</g>
<!-- Backhand Smash -->
<g id="node27" class="node">
<title>Backhand Smash</title>
<ellipse fill="none" stroke="black" cx="2141" cy="-214" rx="75.41" ry="18"/>
<text xml:space="preserve" text-anchor="middle" x="2141" y="-208.95" font-family="Times New Roman,serif" font-size="14.00">Backhand Smash</text>
</g>
<!-- Backhand Clear&#45;&gt;Backhand Smash -->
<g id="edge34" class="edge">
<title>Backhand Clear&#45;&gt;Backhand Smash</title>
<path fill="none" stroke="black" d="M2418.66,-377.05C2363.82,-345.04 2240.29,-272.95 2178.17,-236.69"/>
<polygon fill="black" stroke="black" points="2180.09,-233.76 2169.69,-231.74 2176.56,-239.81 2180.09,-233.76"/>
</g>
<!-- Backhand Drop -->
<g id="node41" class="node">
<title>Backhand Drop</title>
<ellipse fill="none" stroke="black" cx="2358" cy="-214" rx="69.26" ry="18"/>
<text xml:space="preserve" text-anchor="middle" x="2358" y="-208.95" font-family="Times New Roman,serif" font-size="14.00">Backhand Drop</text>
</g>
<!-- Backhand Clear&#45;&gt;Backhand Drop -->
<g id="edge50" class="edge">
<title>Backhand Clear&#45;&gt;Backhand Drop</title>
<path fill="none" stroke="black" d="M2437.56,-375.93C2422.29,-345.05 2389.95,-279.63 2371.55,-242.41"/>
<polygon fill="black" stroke="black" points="2374.78,-241.05 2367.21,-233.63 2368.51,-244.15 2374.78,-241.05"/>
</g>
<!-- Scissor Kick Smash -->
<g id="node29" class="node">
<title>Scissor Kick Smash</title>
<ellipse fill="none" stroke="black" cx="2574" cy="-34" rx="85.64" ry="18"/>
<text xml:space="preserve" text-anchor="middle" x="2574" y="-28.95" font-family="Times New Roman,serif" font-size="14.00">Scissor Kick Smash</text>
</g>
<!-- Overhead Smash&#45;&gt;Scissor Kick Smash -->
<g id="edge36" class="edge">
<title>Overhead Smash&#45;&gt;Scissor Kick Smash</title>
<path fill="none" stroke="black" d="M2574,-195.61C2574,-164.9 2574,-100.81 2574,-63.54"/>
<polygon fill="black" stroke="black" points="2577.5,-63.98 2574,-53.98 2570.5,-63.98 2577.5,-63.98"/>
</g>
<!-- Jump Out Smash -->
<g id="node30" class="node">
<title>Jump Out Smash</title>
<ellipse fill="none" stroke="black" cx="2807" cy="-34" rx="75.41" ry="18"/>
<text xml:space="preserve" text-anchor="middle" x="2807" y="-28.95" font-family="Times New Roman,serif" font-size="14.00">Jump Out Smash</text>
</g>
<!-- Overhead Smash&#45;&gt;Jump Out Smash -->
<g id="edge37" class="edge">
<title>Overhead Smash&#45;&gt;Jump Out Smash</title>
<path fill="none" stroke="black" d="M2595.5,-196.57C2637.01,-164.86 2728.3,-95.12 2776.23,-58.51"/>
<polygon fill="black" stroke="black" points="2778.19,-61.42 2784.01,-52.56 2773.94,-55.85 2778.19,-61.42"/>
</g>
<!-- Jump Smash -->
<g id="node31" class="node">
<title>Jump Smash</title>
<ellipse fill="none" stroke="black" cx="2357" cy="-34" rx="59.03" ry="18"/>
<text xml:space="preserve" text-anchor="middle" x="2357" y="-28.95" font-family="Times New Roman,serif" font-size="14.00">Jump Smash</text>
</g>
<!-- Overhead Smash&#45;&gt;Jump Smash -->
<g id="edge38" class="edge">
<title>Overhead Smash&#45;&gt;Jump Smash</title>
<path fill="none" stroke="black" d="M2553.59,-196.25C2514.78,-164.42 2430.26,-95.1 2385.75,-58.58"/>
<polygon fill="black" stroke="black" points="2388.01,-55.91 2378.06,-52.27 2383.57,-61.32 2388.01,-55.91"/>
</g>
<!-- Forehand Net Brush -->
<g id="node38" class="node">
<title>Forehand Net Brush</title>
<ellipse fill="none" stroke="black" cx="1317" cy="-34" rx="86.15" ry="18"/>
<text xml:space="preserve" text-anchor="middle" x="1317" y="-28.95" font-family="Times New Roman,serif" font-size="14.00">Forehand Net Brush</text>
</g>
<!-- Forehand Net Kill&#45;&gt;Forehand Net Brush -->
<g id="edge47" class="edge">
<title>Forehand Net Kill&#45;&gt;Forehand Net Brush</title>
<path fill="none" stroke="black" d="M1309.78,-195.61C1311.16,-164.9 1314.04,-100.81 1315.72,-63.54"/>
<polygon fill="black" stroke="black" points="1319.19,-64.12 1316.15,-53.97 1312.2,-63.81 1319.19,-64.12"/>
</g>
<!-- Backhand Net Brush -->
<g id="node39" class="node">
<title>Backhand Net Brush</title>
<ellipse fill="none" stroke="black" cx="1563" cy="-34" rx="88.2" ry="18"/>
<text xml:space="preserve" text-anchor="middle" x="1563" y="-28.95" font-family="Times New Roman,serif" font-size="14.00">Backhand Net Brush</text>
</g>
<!-- Backhand Net Kill&#45;&gt;Backhand Net Brush -->
<g id="edge48" class="edge">
<title>Backhand Net Kill&#45;&gt;Backhand Net Brush</title>
<path fill="none" stroke="black" d="M1542.25,-195.61C1546.21,-164.9 1554.5,-100.81 1559.31,-63.54"/>
<polygon fill="black" stroke="black" points="1562.74,-64.33 1560.55,-53.96 1555.8,-63.43 1562.74,-64.33"/>
</g>
<!-- Forehand Net Spin -->
<g id="node36" class="node">
<title>Forehand Net Spin</title>
<ellipse fill="none" stroke="black" cx="3510" cy="-214" rx="81.04" ry="18"/>
<text xml:space="preserve" text-anchor="middle" x="3510" y="-208.95" font-family="Times New Roman,serif" font-size="14.00">Forehand Net Spin</text>
</g>
<!-- Forehand Net&#45;&gt;Forehand Net Spin -->
<g id="edge45" class="edge">
<title>Forehand Net&#45;&gt;Forehand Net Spin</title>
<path fill="none" stroke="black" d="M3022.18,-379.77C3115.26,-348.33 3349.79,-269.11 3456.11,-233.2"/>
<polygon fill="black" stroke="black" points="3457.12,-236.56 3465.47,-230.04 3454.88,-229.92 3457.12,-236.56"/>
</g>
<!-- Backhand Net Spin -->
<g id="node37" class="node">
<title>Backhand Net Spin</title>
<ellipse fill="none" stroke="black" cx="3010" cy="-214" rx="83.08" ry="18"/>
<text xml:space="preserve" text-anchor="middle" x="3010" y="-208.95" font-family="Times New Roman,serif" font-size="14.00">Backhand Net Spin</text>
</g>
<!-- Backhand Net&#45;&gt;Backhand Net Spin -->
<g id="edge46" class="edge">
<title>Backhand Net&#45;&gt;Backhand Net Spin</title>
<path fill="none" stroke="black" d="M2806.67,-376.57C2846.49,-344.93 2933.97,-275.41 2980.13,-238.74"/>
<polygon fill="black" stroke="black" points="2982.22,-241.55 2987.87,-232.59 2977.86,-236.07 2982.22,-241.55"/>
</g>
<!-- Forehand Drive&#45;&gt;Forehand Net Kill -->
<g id="edge40" class="edge">
<title>Forehand Drive&#45;&gt;Forehand Net Kill</title>
<path fill="none" stroke="black" d="M1779.9,-379.03C1688.42,-347.17 1464.3,-269.1 1361.76,-233.38"/>
<polygon fill="black" stroke="black" points="1363.07,-230.13 1352.48,-230.14 1360.77,-236.74 1363.07,-230.13"/>
</g>
<!-- Backhand Drive&#45;&gt;Backhand Net Kill -->
<g id="edge42" class="edge">
<title>Backhand Drive&#45;&gt;Backhand Net Kill</title>
<path fill="none" stroke="black" d="M1993.49,-378.73C1904.95,-346.77 1690.7,-269.41 1591.72,-233.67"/>
<polygon fill="black" stroke="black" points="1593.1,-230.45 1582.51,-230.35 1590.72,-237.04 1593.1,-230.45"/>
</g>
<!-- Backhand Serve&#45;&gt;Backhand Flick Serve -->
<g id="edge58" class="edge">
<title>Backhand Serve&#45;&gt;Backhand Flick Serve</title>
<path fill="none" stroke="black" d="M295.85,-555.61C292.06,-524.9 284.13,-460.81 279.53,-423.54"/>
<polygon fill="black" stroke="black" points="283.04,-423.46 278.34,-413.96 276.1,-424.32 283.04,-423.46"/>
</g>
</g>
</svg>
