<?xml version="1.0" encoding="UTF-8" standalone="no"?>
<!DOCTYPE svg PUBLIC "-//W3C//DTD SVG 1.1//EN"
 "http://www.w3.org/Graphics/SVG/1.1/DTD/svg11.dtd">
<!-- Generated by graphviz version 13.1.0 (20250701.0955)
 -->
<!-- Pages: 1 -->
<svg width="1508pt" height="1465pt"
 viewBox="0.00 0.00 1508.00 1465.00" xmlns="http://www.w3.org/2000/svg" xmlns:xlink="http://www.w3.org/1999/xlink">
<g id="graph0" class="graph" transform="scale(1 1) rotate(0) translate(4 1461)">
<polygon fill="white" stroke="none" points="-4,4 -4,-1461 1504.22,-1461 1504.22,4 -4,4"/>
<g id="clust1" class="cluster">
<title>cluster_Racket Handling</title>
<polygon fill="lightgrey" stroke="lightgrey" points="149.26,-999 149.26,-1292 793.6,-1292 793.6,-999 149.26,-999"/>
<text xml:space="preserve" text-anchor="middle" x="471.43" y="-1274.7" font-family="Times New Roman,serif" font-size="14.00">Racket Handling</text>
</g>
<g id="clust2" class="cluster">
<title>cluster_Form</title>
<polygon fill="lightgrey" stroke="lightgrey" points="620.13,-770 620.13,-991 814.58,-991 814.58,-770 620.13,-770"/>
<text xml:space="preserve" text-anchor="middle" x="717.36" y="-973.7" font-family="Times New Roman,serif" font-size="14.00">Form</text>
</g>
<g id="clust3" class="cluster">
<title>cluster_Footwork</title>
<polygon fill="lightgrey" stroke="lightgrey" points="8,-186 8,-479 829.42,-479 829.42,-186 8,-186"/>
<text xml:space="preserve" text-anchor="middle" x="418.71" y="-461.7" font-family="Times New Roman,serif" font-size="14.00">Footwork</text>
</g>
<g id="clust4" class="cluster">
<title>cluster_Shot</title>
<polygon fill="lightgrey" stroke="lightgrey" points="870.92,-8 870.92,-805 1492.22,-805 1492.22,-8 870.92,-8"/>
<text xml:space="preserve" text-anchor="middle" x="1181.57" y="-787.7" font-family="Times New Roman,serif" font-size="14.00">Shot</text>
</g>
<g id="clust5" class="cluster">
<title>cluster_Serve</title>
<polygon fill="lightgrey" stroke="lightgrey" points="638.04,-1300 638.04,-1449 1051.04,-1449 1051.04,-1300 638.04,-1300"/>
<text xml:space="preserve" text-anchor="middle" x="844.54" y="-1431.7" font-family="Times New Roman,serif" font-size="14.00">Serve</text>
</g>
<!-- Forehand (V) Grip -->
<g id="node1" class="node">
<title>Forehand (V) Grip</title>
<ellipse fill="none" stroke="black" cx="237.79" cy="-1097" rx="80.52" ry="18"/>
<text xml:space="preserve" text-anchor="middle" x="237.79" y="-1091.95" font-family="Times New Roman,serif" font-size="14.00">Forehand (V) Grip</text>
</g>
<!-- Grip Switch -->
<g id="node5" class="node">
<title>Grip Switch</title>
<ellipse fill="none" stroke="black" cx="471.17" cy="-1025" rx="55.96" ry="18"/>
<text xml:space="preserve" text-anchor="middle" x="471.17" y="-1019.95" font-family="Times New Roman,serif" font-size="14.00">Grip Switch</text>
</g>
<!-- Forehand (V) Grip&#45;&gt;Grip Switch -->
<g id="edge1" class="edge">
<title>Forehand (V) Grip&#45;&gt;Grip Switch</title>
<path fill="none" stroke="black" d="M286.17,-1082.26C324.84,-1070.22 379.38,-1053.25 419.04,-1040.91"/>
<polygon fill="black" stroke="black" points="419.85,-1044.32 428.36,-1038.01 417.77,-1037.64 419.85,-1044.32"/>
</g>
<!-- Forearm Pronation -->
<g id="node6" class="node">
<title>Forearm Pronation</title>
<ellipse fill="none" stroke="black" cx="471.17" cy="-1097" rx="81.04" ry="18"/>
<text xml:space="preserve" text-anchor="middle" x="471.17" y="-1091.95" font-family="Times New Roman,serif" font-size="14.00">Forearm Pronation</text>
</g>
<!-- Forehand (V) Grip&#45;&gt;Forearm Pronation -->
<g id="edge3" class="edge">
<title>Forehand (V) Grip&#45;&gt;Forearm Pronation</title>
<path fill="none" stroke="black" d="M318.74,-1097C337.96,-1097 358.64,-1097 378.35,-1097"/>
<polygon fill="black" stroke="black" points="378.31,-1100.5 388.31,-1097 378.31,-1093.5 378.31,-1100.5"/>
</g>
<!-- Forehand Drive -->
<g id="node42" class="node">
<title>Forehand Drive</title>
<ellipse fill="none" stroke="black" cx="950.23" cy="-574" rx="69.26" ry="18"/>
<text xml:space="preserve" text-anchor="middle" x="950.23" y="-568.95" font-family="Times New Roman,serif" font-size="14.00">Forehand Drive</text>
</g>
<!-- Forehand (V) Grip&#45;&gt;Forehand Drive -->
<g id="edge51" class="edge">
<title>Forehand (V) Grip&#45;&gt;Forehand Drive</title>
<path fill="none" stroke="black" d="M291.68,-1083.26C305,-1077.93 318.5,-1070.71 329.06,-1061 355.4,-1036.79 343.53,-1017.57 365.06,-989 455.21,-869.36 486.12,-840.17 613.29,-761 700.78,-706.53 741.05,-730.02 829.42,-677 865.67,-655.26 901.68,-622.38 924.62,-599.64"/>
<polygon fill="black" stroke="black" points="926.81,-602.39 931.38,-592.83 921.85,-597.46 926.81,-602.39"/>
</g>
<!-- Forehand Serve -->
<g id="node48" class="node">
<title>Forehand Serve</title>
<ellipse fill="none" stroke="black" cx="717.36" cy="-1398" rx="69.26" ry="18"/>
<text xml:space="preserve" text-anchor="middle" x="717.36" y="-1392.95" font-family="Times New Roman,serif" font-size="14.00">Forehand Serve</text>
</g>
<!-- Forehand (V) Grip&#45;&gt;Forehand Serve -->
<g id="edge60" class="edge">
<title>Forehand (V) Grip&#45;&gt;Forehand Serve</title>
<path fill="none" stroke="black" d="M295.16,-1109.95C307.82,-1115.24 320.14,-1122.65 329.06,-1133 374.66,-1185.92 317.61,-1234.73 365.06,-1286 435.44,-1362.06 557.29,-1386.71 637.37,-1394.56"/>
<polygon fill="black" stroke="black" points="636.59,-1398 646.87,-1395.42 637.23,-1391.03 636.59,-1398"/>
</g>
<!-- Backhand Grip -->
<g id="node2" class="node">
<title>Backhand Grip</title>
<ellipse fill="none" stroke="black" cx="237.79" cy="-1025" rx="67.22" ry="18"/>
<text xml:space="preserve" text-anchor="middle" x="237.79" y="-1019.95" font-family="Times New Roman,serif" font-size="14.00">Backhand Grip</text>
</g>
<!-- Backhand Grip&#45;&gt;Grip Switch -->
<g id="edge2" class="edge">
<title>Backhand Grip&#45;&gt;Grip Switch</title>
<path fill="none" stroke="black" d="M305.4,-1025C336.18,-1025 372.65,-1025 403.45,-1025"/>
<polygon fill="black" stroke="black" points="403.43,-1028.5 413.43,-1025 403.43,-1021.5 403.43,-1028.5"/>
</g>
<!-- Forearm Supination -->
<g id="node7" class="node">
<title>Forearm Supination</title>
<ellipse fill="none" stroke="black" cx="471.17" cy="-1169" rx="85.13" ry="18"/>
<text xml:space="preserve" text-anchor="middle" x="471.17" y="-1163.95" font-family="Times New Roman,serif" font-size="14.00">Forearm Supination</text>
</g>
<!-- Backhand Grip&#45;&gt;Forearm Supination -->
<g id="edge4" class="edge">
<title>Backhand Grip&#45;&gt;Forearm Supination</title>
<path fill="none" stroke="black" d="M287.92,-1037.28C302.43,-1042.73 317.51,-1050.38 329.06,-1061 355.4,-1085.21 338.13,-1109.45 365.06,-1133 374.49,-1141.25 385.91,-1147.63 397.69,-1152.56"/>
<polygon fill="black" stroke="black" points="396.1,-1155.7 406.69,-1155.99 398.59,-1149.16 396.1,-1155.7"/>
</g>
<!-- Backhand Drive -->
<g id="node43" class="node">
<title>Backhand Drive</title>
<ellipse fill="none" stroke="black" cx="950.23" cy="-502" rx="71.31" ry="18"/>
<text xml:space="preserve" text-anchor="middle" x="950.23" y="-496.95" font-family="Times New Roman,serif" font-size="14.00">Backhand Drive</text>
</g>
<!-- Backhand Grip&#45;&gt;Backhand Drive -->
<g id="edge52" class="edge">
<title>Backhand Grip&#45;&gt;Backhand Drive</title>
<path fill="none" stroke="black" d="M243.69,-1006.68C256.48,-961.95 294.88,-845.86 365.06,-777 518.15,-626.8 768.71,-547.5 885.53,-517.03"/>
<polygon fill="black" stroke="black" points="886.14,-520.49 894.95,-514.61 884.39,-513.71 886.14,-520.49"/>
</g>
<!-- Backhand Serve -->
<g id="node46" class="node">
<title>Backhand Serve</title>
<ellipse fill="none" stroke="black" cx="717.36" cy="-1326" rx="71.31" ry="18"/>
<text xml:space="preserve" text-anchor="middle" x="717.36" y="-1320.95" font-family="Times New Roman,serif" font-size="14.00">Backhand Serve</text>
</g>
<!-- Backhand Grip&#45;&gt;Backhand Serve -->
<g id="edge57" class="edge">
<title>Backhand Grip&#45;&gt;Backhand Serve</title>
<path fill="none" stroke="black" d="M290.83,-1036.36C304.94,-1041.72 319.07,-1049.57 329.06,-1061 372.47,-1110.68 321.39,-1155.55 365.06,-1205 434.08,-1283.16 556,-1310.86 636.5,-1320.66"/>
<polygon fill="black" stroke="black" points="635.73,-1324.09 646.07,-1321.75 636.53,-1317.14 635.73,-1324.09"/>
</g>
<!-- Bevel Grip -->
<g id="node3" class="node">
<title>Bevel Grip</title>
<ellipse fill="none" stroke="black" cx="237.79" cy="-1169" rx="51.86" ry="18"/>
<text xml:space="preserve" text-anchor="middle" x="237.79" y="-1163.95" font-family="Times New Roman,serif" font-size="14.00">Bevel Grip</text>
</g>
<!-- Bevel Grip&#45;&gt;Forearm Supination -->
<g id="edge5" class="edge">
<title>Bevel Grip&#45;&gt;Forearm Supination</title>
<path fill="none" stroke="black" d="M290.14,-1169C314.94,-1169 345.52,-1169 374.4,-1169"/>
<polygon fill="black" stroke="black" points="374.28,-1172.5 384.28,-1169 374.28,-1165.5 374.28,-1172.5"/>
</g>
<!-- Panhandle Grip -->
<g id="node4" class="node">
<title>Panhandle Grip</title>
<ellipse fill="none" stroke="black" cx="237.79" cy="-1241" rx="68.75" ry="18"/>
<text xml:space="preserve" text-anchor="middle" x="237.79" y="-1235.95" font-family="Times New Roman,serif" font-size="14.00">Panhandle Grip</text>
</g>
<!-- Service Return Form -->
<g id="node9" class="node">
<title>Service Return Form</title>
<ellipse fill="none" stroke="black" cx="717.36" cy="-940" rx="89.23" ry="18"/>
<text xml:space="preserve" text-anchor="middle" x="717.36" y="-934.95" font-family="Times New Roman,serif" font-size="14.00">Service Return Form</text>
</g>
<!-- Grip Switch&#45;&gt;Service Return Form -->
<g id="edge9" class="edge">
<title>Grip Switch&#45;&gt;Service Return Form</title>
<path fill="none" stroke="black" d="M510.33,-1011.72C550.56,-997.71 614.37,-975.5 660.31,-959.51"/>
<polygon fill="black" stroke="black" points="661.28,-962.88 669.57,-956.29 658.98,-956.27 661.28,-962.88"/>
</g>
<!-- Defensive Form -->
<g id="node10" class="node">
<title>Defensive Form</title>
<ellipse fill="none" stroke="black" cx="717.36" cy="-796" rx="71.31" ry="18"/>
<text xml:space="preserve" text-anchor="middle" x="717.36" y="-790.95" font-family="Times New Roman,serif" font-size="14.00">Defensive Form</text>
</g>
<!-- Grip Switch&#45;&gt;Defensive Form -->
<g id="edge11" class="edge">
<title>Grip Switch&#45;&gt;Defensive Form</title>
<path fill="none" stroke="black" d="M480.59,-1007.02C499.2,-969.18 547.42,-880.81 613.29,-832 624.76,-823.5 638.41,-816.88 651.96,-811.78"/>
<polygon fill="black" stroke="black" points="653.05,-815.1 661.34,-808.5 650.74,-808.5 653.05,-815.1"/>
</g>
<!-- Aggressive Form -->
<g id="node11" class="node">
<title>Aggressive Form</title>
<ellipse fill="none" stroke="black" cx="717.36" cy="-868" rx="75.41" ry="18"/>
<text xml:space="preserve" text-anchor="middle" x="717.36" y="-862.95" font-family="Times New Roman,serif" font-size="14.00">Aggressive Form</text>
</g>
<!-- Grip Switch&#45;&gt;Aggressive Form -->
<g id="edge13" class="edge">
<title>Grip Switch&#45;&gt;Aggressive Form</title>
<path fill="none" stroke="black" d="M488.38,-1007.43C513.09,-981.57 562.67,-933.15 613.29,-904 626.18,-896.58 640.86,-890.32 655.01,-885.21"/>
<polygon fill="black" stroke="black" points="655.95,-888.59 664.26,-882.03 653.67,-881.98 655.95,-888.59"/>
</g>
<!-- Finger Squeeze -->
<g id="node8" class="node">
<title>Finger Squeeze</title>
<ellipse fill="none" stroke="black" cx="717.36" cy="-1097" rx="68.24" ry="18"/>
<text xml:space="preserve" text-anchor="middle" x="717.36" y="-1091.95" font-family="Times New Roman,serif" font-size="14.00">Finger Squeeze</text>
</g>
<!-- Forearm Pronation&#45;&gt;Finger Squeeze -->
<g id="edge6" class="edge">
<title>Forearm Pronation&#45;&gt;Finger Squeeze</title>
<path fill="none" stroke="black" d="M552.47,-1097C579.71,-1097 610.11,-1097 637.26,-1097"/>
<polygon fill="black" stroke="black" points="637.17,-1100.5 647.17,-1097 637.17,-1093.5 637.17,-1100.5"/>
</g>
<!-- Forearm Supination&#45;&gt;Finger Squeeze -->
<g id="edge7" class="edge">
<title>Forearm Supination&#45;&gt;Finger Squeeze</title>
<path fill="none" stroke="black" d="M522.18,-1154.26C562.14,-1142.47 618.15,-1125.96 659.76,-1113.69"/>
<polygon fill="black" stroke="black" points="660.49,-1117.12 669.09,-1110.94 658.51,-1110.41 660.49,-1117.12"/>
</g>
<!-- Clear -->
<g id="node24" class="node">
<title>Clear</title>
<ellipse fill="none" stroke="black" cx="950.23" cy="-286" rx="30.88" ry="18"/>
<text xml:space="preserve" text-anchor="middle" x="950.23" y="-280.95" font-family="Times New Roman,serif" font-size="14.00">Clear</text>
</g>
<!-- Finger Squeeze&#45;&gt;Clear -->
<g id="edge28" class="edge">
<title>Finger Squeeze&#45;&gt;Clear</title>
<path fill="none" stroke="black" d="M748.31,-1080.49C774.93,-1063.97 812.21,-1035.9 829.42,-1000 862.02,-932.01 813.67,-383.4 857.42,-322 869.25,-305.41 889.91,-296.47 908.64,-291.64"/>
<polygon fill="black" stroke="black" points="909.18,-295.11 918.19,-289.52 907.67,-288.27 909.18,-295.11"/>
</g>
<!-- Backhand Clear -->
<g id="node26" class="node">
<title>Backhand Clear</title>
<ellipse fill="none" stroke="black" cx="950.23" cy="-358" rx="70.29" ry="18"/>
<text xml:space="preserve" text-anchor="middle" x="950.23" y="-352.95" font-family="Times New Roman,serif" font-size="14.00">Backhand Clear</text>
</g>
<!-- Finger Squeeze&#45;&gt;Backhand Clear -->
<g id="edge33" class="edge">
<title>Finger Squeeze&#45;&gt;Backhand Clear</title>
<path fill="none" stroke="black" d="M748.01,-1080.63C774.62,-1064.12 812.07,-1035.97 829.42,-1000 858.71,-939.29 818.17,-448.8 857.42,-394 863.79,-385.12 872.69,-378.43 882.46,-373.38"/>
<polygon fill="black" stroke="black" points="883.82,-376.61 891.51,-369.33 880.95,-370.22 883.82,-376.61"/>
</g>
<!-- Backhand Flick Serve -->
<g id="node47" class="node">
<title>Backhand Flick Serve</title>
<ellipse fill="none" stroke="black" cx="950.23" cy="-1326" rx="92.81" ry="18"/>
<text xml:space="preserve" text-anchor="middle" x="950.23" y="-1320.95" font-family="Times New Roman,serif" font-size="14.00">Backhand Flick Serve</text>
</g>
<!-- Finger Squeeze&#45;&gt;Backhand Flick Serve -->
<g id="edge59" class="edge">
<title>Finger Squeeze&#45;&gt;Backhand Flick Serve</title>
<path fill="none" stroke="black" d="M736.09,-1114.59C776.53,-1154.7 875.74,-1253.1 923.16,-1300.14"/>
<polygon fill="black" stroke="black" points="920.48,-1302.41 930.05,-1306.97 925.41,-1297.44 920.48,-1302.41"/>
</g>
<!-- Defense Lift -->
<g id="node44" class="node">
<title>Defense Lift</title>
<ellipse fill="none" stroke="black" cx="1175.43" cy="-610" rx="57.49" ry="18"/>
<text xml:space="preserve" text-anchor="middle" x="1175.43" y="-604.95" font-family="Times New Roman,serif" font-size="14.00">Defense Lift</text>
</g>
<!-- Defensive Form&#45;&gt;Defense Lift -->
<g id="edge53" class="edge">
<title>Defensive Form&#45;&gt;Defense Lift</title>
<path fill="none" stroke="black" d="M778.32,-805.61C851.85,-813.78 975.91,-815.27 1051.04,-749 1086.62,-717.62 1047.13,-681.11 1079.04,-646 1088.53,-635.56 1101.35,-628.13 1114.52,-622.85"/>
<polygon fill="black" stroke="black" points="1115.43,-626.24 1123.67,-619.57 1113.07,-619.65 1115.43,-626.24"/>
</g>
<!-- Defense Net -->
<g id="node45" class="node">
<title>Defense Net</title>
<ellipse fill="none" stroke="black" cx="1175.43" cy="-538" rx="56.98" ry="18"/>
<text xml:space="preserve" text-anchor="middle" x="1175.43" y="-532.95" font-family="Times New Roman,serif" font-size="14.00">Defense Net</text>
</g>
<!-- Defensive Form&#45;&gt;Defense Net -->
<g id="edge55" class="edge">
<title>Defensive Form&#45;&gt;Defense Net</title>
<path fill="none" stroke="black" d="M758.16,-780.93C785.94,-770.46 823.89,-756.24 857.42,-744 943.24,-712.67 988.81,-741.88 1051.04,-675 1082.77,-640.9 1047.62,-608.39 1079.04,-574 1088.65,-563.48 1101.64,-556.02 1114.95,-550.73"/>
<polygon fill="black" stroke="black" points="1115.94,-554.09 1124.2,-547.44 1113.6,-547.49 1115.94,-554.09"/>
</g>
<!-- Forehand Net Kill -->
<g id="node32" class="node">
<title>Forehand Net Kill</title>
<ellipse fill="none" stroke="black" cx="1175.43" cy="-754" rx="78.48" ry="18"/>
<text xml:space="preserve" text-anchor="middle" x="1175.43" y="-748.95" font-family="Times New Roman,serif" font-size="14.00">Forehand Net Kill</text>
</g>
<!-- Aggressive Form&#45;&gt;Forehand Net Kill -->
<g id="edge39" class="edge">
<title>Aggressive Form&#45;&gt;Forehand Net Kill</title>
<path fill="none" stroke="black" d="M769.8,-881.36C795.86,-887.46 828.11,-893.98 857.42,-897 943.02,-905.83 972.8,-932.83 1051.04,-897 1102.51,-873.43 1140.68,-816.62 1160.07,-782.12"/>
<polygon fill="black" stroke="black" points="1163.05,-783.97 1164.76,-773.51 1156.9,-780.62 1163.05,-783.97"/>
</g>
<!-- Backhand Net Kill -->
<g id="node33" class="node">
<title>Backhand Net Kill</title>
<ellipse fill="none" stroke="black" cx="1175.43" cy="-682" rx="80.52" ry="18"/>
<text xml:space="preserve" text-anchor="middle" x="1175.43" y="-676.95" font-family="Times New Roman,serif" font-size="14.00">Backhand Net Kill</text>
</g>
<!-- Aggressive Form&#45;&gt;Backhand Net Kill -->
<g id="edge41" class="edge">
<title>Aggressive Form&#45;&gt;Backhand Net Kill</title>
<path fill="none" stroke="black" d="M780.27,-878.32C854.03,-886.85 976.59,-888.6 1051.04,-823 1087.28,-791.07 1046.64,-753.82 1079.04,-718 1086.27,-710.01 1095.45,-703.78 1105.25,-698.94"/>
<polygon fill="black" stroke="black" points="1106.5,-702.21 1114.24,-694.98 1103.68,-695.8 1106.5,-702.21"/>
</g>
<!-- Lunge -->
<g id="node12" class="node">
<title>Lunge</title>
<ellipse fill="none" stroke="black" cx="237.79" cy="-212" rx="34.46" ry="18"/>
<text xml:space="preserve" text-anchor="middle" x="237.79" y="-206.95" font-family="Times New Roman,serif" font-size="14.00">Lunge</text>
</g>
<!-- Forehand Lift -->
<g id="node22" class="node">
<title>Forehand Lift</title>
<ellipse fill="none" stroke="black" cx="950.23" cy="-214" rx="62.1" ry="18"/>
<text xml:space="preserve" text-anchor="middle" x="950.23" y="-208.95" font-family="Times New Roman,serif" font-size="14.00">Forehand Lift</text>
</g>
<!-- Lunge&#45;&gt;Forehand Lift -->
<g id="edge25" class="edge">
<title>Lunge&#45;&gt;Forehand Lift</title>
<path fill="none" stroke="black" d="M267.76,-202.77C293.12,-195.21 331.11,-185.11 365.06,-181 569.95,-156.22 624.9,-153.35 829.42,-181 852.44,-184.11 877.28,-190.44 898.35,-196.73"/>
<polygon fill="black" stroke="black" points="897.28,-200.06 907.86,-199.66 899.33,-193.37 897.28,-200.06"/>
</g>
<!-- Backhand Lift -->
<g id="node23" class="node">
<title>Backhand Lift</title>
<ellipse fill="none" stroke="black" cx="950.23" cy="-430" rx="64.15" ry="18"/>
<text xml:space="preserve" text-anchor="middle" x="950.23" y="-424.95" font-family="Times New Roman,serif" font-size="14.00">Backhand Lift</text>
</g>
<!-- Lunge&#45;&gt;Backhand Lift -->
<g id="edge27" class="edge">
<title>Lunge&#45;&gt;Backhand Lift</title>
<path fill="none" stroke="black" d="M272.21,-208.8C384.57,-198.8 746.27,-172.97 829.42,-246 879.72,-290.18 814.71,-342.46 857.42,-394 865.2,-403.39 875.76,-410.34 886.94,-415.48"/>
<polygon fill="black" stroke="black" points="885.34,-418.61 895.92,-419.14 887.99,-412.12 885.34,-418.61"/>
</g>
<!-- Forehand Net -->
<g id="node34" class="node">
<title>Forehand Net</title>
<ellipse fill="none" stroke="black" cx="950.23" cy="-34" rx="61.59" ry="18"/>
<text xml:space="preserve" text-anchor="middle" x="950.23" y="-28.95" font-family="Times New Roman,serif" font-size="14.00">Forehand Net</text>
</g>
<!-- Lunge&#45;&gt;Forehand Net -->
<g id="edge43" class="edge">
<title>Lunge&#45;&gt;Forehand Net</title>
<path fill="none" stroke="black" d="M252.8,-195.7C274.28,-171.93 317.86,-128.37 365.06,-108 537.92,-33.38 764.42,-27.83 877.9,-30.59"/>
<polygon fill="black" stroke="black" points="877.58,-34.08 887.68,-30.85 877.78,-27.08 877.58,-34.08"/>
</g>
<!-- Backhand Net -->
<g id="node35" class="node">
<title>Backhand Net</title>
<ellipse fill="none" stroke="black" cx="950.23" cy="-106" rx="63.63" ry="18"/>
<text xml:space="preserve" text-anchor="middle" x="950.23" y="-100.95" font-family="Times New Roman,serif" font-size="14.00">Backhand Net</text>
</g>
<!-- Lunge&#45;&gt;Backhand Net -->
<g id="edge44" class="edge">
<title>Lunge&#45;&gt;Backhand Net</title>
<path fill="none" stroke="black" d="M261.13,-198.55C285.66,-184.51 326.7,-163.15 365.06,-153 543.84,-105.69 763.23,-101.87 875.44,-103.63"/>
<polygon fill="black" stroke="black" points="875.04,-107.12 885.11,-103.8 875.17,-100.12 875.04,-107.12"/>
</g>
<!-- Chasse -->
<g id="node13" class="node">
<title>Chasse</title>
<ellipse fill="none" stroke="black" cx="237.79" cy="-284" rx="37.02" ry="18"/>
<text xml:space="preserve" text-anchor="middle" x="237.79" y="-278.95" font-family="Times New Roman,serif" font-size="14.00">Chasse</text>
</g>
<!-- Back Crossover -->
<g id="node14" class="node">
<title>Back Crossover</title>
<ellipse fill="none" stroke="black" cx="471.17" cy="-284" rx="69.78" ry="18"/>
<text xml:space="preserve" text-anchor="middle" x="471.17" y="-278.95" font-family="Times New Roman,serif" font-size="14.00">Back Crossover</text>
</g>
<!-- Chasse&#45;&gt;Back Crossover -->
<g id="edge16" class="edge">
<title>Chasse&#45;&gt;Back Crossover</title>
<path fill="none" stroke="black" d="M275.2,-284C305.78,-284 350.6,-284 389.56,-284"/>
<polygon fill="black" stroke="black" points="389.39,-287.5 399.39,-284 389.39,-280.5 389.39,-287.5"/>
</g>
<!-- Backhand Footwork -->
<g id="node19" class="node">
<title>Backhand Footwork</title>
<ellipse fill="none" stroke="black" cx="471.17" cy="-356" rx="86.15" ry="18"/>
<text xml:space="preserve" text-anchor="middle" x="471.17" y="-350.95" font-family="Times New Roman,serif" font-size="14.00">Backhand Footwork</text>
</g>
<!-- Chasse&#45;&gt;Backhand Footwork -->
<g id="edge20" class="edge">
<title>Chasse&#45;&gt;Backhand Footwork</title>
<path fill="none" stroke="black" d="M269.51,-293.56C305.4,-304.73 365.6,-323.46 410.72,-337.5"/>
<polygon fill="black" stroke="black" points="409.51,-340.79 420.1,-340.42 411.59,-334.11 409.51,-340.79"/>
</g>
<!-- Forehand Footwork -->
<g id="node18" class="node">
<title>Forehand Footwork</title>
<ellipse fill="none" stroke="black" cx="717.36" cy="-282" rx="84.11" ry="18"/>
<text xml:space="preserve" text-anchor="middle" x="717.36" y="-276.95" font-family="Times New Roman,serif" font-size="14.00">Forehand Footwork</text>
</g>
<!-- Back Crossover&#45;&gt;Forehand Footwork -->
<g id="edge19" class="edge">
<title>Back Crossover&#45;&gt;Forehand Footwork</title>
<path fill="none" stroke="black" d="M541.17,-283.43C566.22,-283.23 594.97,-282.99 621.85,-282.77"/>
<polygon fill="black" stroke="black" points="621.75,-286.28 631.72,-282.69 621.69,-279.28 621.75,-286.28"/>
</g>
<!-- Rear Forehand Footwork -->
<g id="node20" class="node">
<title>Rear Forehand Footwork</title>
<ellipse fill="none" stroke="black" cx="717.36" cy="-354" rx="104.07" ry="18"/>
<text xml:space="preserve" text-anchor="middle" x="717.36" y="-348.95" font-family="Times New Roman,serif" font-size="14.00">Rear Forehand Footwork</text>
</g>
<!-- Back Crossover&#45;&gt;Rear Forehand Footwork -->
<g id="edge22" class="edge">
<title>Back Crossover&#45;&gt;Rear Forehand Footwork</title>
<path fill="none" stroke="black" d="M518.97,-297.41C556.47,-308.16 609.52,-323.37 651.18,-335.32"/>
<polygon fill="black" stroke="black" points="650.02,-338.62 660.6,-338.02 651.95,-331.9 650.02,-338.62"/>
</g>
<!-- Non&#45;Racket Pivot -->
<g id="node15" class="node">
<title>Non&#45;Racket Pivot</title>
<ellipse fill="none" stroke="black" cx="237.79" cy="-356" rx="77.45" ry="18"/>
<text xml:space="preserve" text-anchor="middle" x="237.79" y="-350.95" font-family="Times New Roman,serif" font-size="14.00">Non&#45;Racket Pivot</text>
</g>
<!-- Non&#45;Racket Pivot&#45;&gt;Backhand Footwork -->
<g id="edge21" class="edge">
<title>Non&#45;Racket Pivot&#45;&gt;Backhand Footwork</title>
<path fill="none" stroke="black" d="M315.51,-356C334.1,-356 354.2,-356 373.57,-356"/>
<polygon fill="black" stroke="black" points="373.36,-359.5 383.36,-356 373.36,-352.5 373.36,-359.5"/>
</g>
<!-- Rear Backhand Footwork -->
<g id="node21" class="node">
<title>Rear Backhand Footwork</title>
<ellipse fill="none" stroke="black" cx="471.17" cy="-428" rx="106.11" ry="18"/>
<text xml:space="preserve" text-anchor="middle" x="471.17" y="-422.95" font-family="Times New Roman,serif" font-size="14.00">Rear Backhand Footwork</text>
</g>
<!-- Non&#45;Racket Pivot&#45;&gt;Rear Backhand Footwork -->
<g id="edge23" class="edge">
<title>Non&#45;Racket Pivot&#45;&gt;Rear Backhand Footwork</title>
<path fill="none" stroke="black" d="M285.61,-370.57C320.86,-381.54 369.51,-396.68 408.02,-408.66"/>
<polygon fill="black" stroke="black" points="406.55,-411.87 417.14,-411.5 408.63,-405.19 406.55,-411.87"/>
</g>
<!-- Split Step -->
<g id="node16" class="node">
<title>Split Step</title>
<ellipse fill="none" stroke="black" cx="63.26" cy="-392" rx="47.26" ry="18"/>
<text xml:space="preserve" text-anchor="middle" x="63.26" y="-386.95" font-family="Times New Roman,serif" font-size="14.00">Split Step</text>
</g>
<!-- Split Step&#45;&gt;Service Return Form -->
<g id="edge8" class="edge">
<title>Split Step&#45;&gt;Service Return Form</title>
<path fill="none" stroke="black" d="M70.89,-409.82C82.84,-440.42 110.16,-504 146.51,-549 310.3,-751.75 381.19,-785.41 613.29,-904 626.07,-910.53 640.32,-916.35 654.04,-921.31"/>
<polygon fill="black" stroke="black" points="652.86,-924.6 663.46,-924.59 655.17,-917.99 652.86,-924.6"/>
</g>
<!-- Split Step&#45;&gt;Defensive Form -->
<g id="edge10" class="edge">
<title>Split Step&#45;&gt;Defensive Form</title>
<path fill="none" stroke="black" d="M81.72,-409.06C97.84,-424.35 122.78,-446.94 146.51,-464 332.64,-597.8 576.16,-725.38 673.47,-774.63"/>
<polygon fill="black" stroke="black" points="671.66,-777.64 682.17,-779.02 674.82,-771.39 671.66,-777.64"/>
</g>
<!-- Split Step&#45;&gt;Lunge -->
<g id="edge14" class="edge">
<title>Split Step&#45;&gt;Lunge</title>
<path fill="none" stroke="black" d="M70.11,-373.95C80.72,-343.88 105.88,-283.32 146.51,-248 160.3,-236.01 178.58,-227.73 195.07,-222.15"/>
<polygon fill="black" stroke="black" points="195.65,-225.64 204.15,-219.32 193.56,-218.96 195.65,-225.64"/>
</g>
<!-- Split Step&#45;&gt;Chasse -->
<g id="edge15" class="edge">
<title>Split Step&#45;&gt;Chasse</title>
<path fill="none" stroke="black" d="M80.25,-375C95.92,-359.11 121.1,-335.55 146.51,-320 161.6,-310.77 179.46,-303.06 195.3,-297.18"/>
<polygon fill="black" stroke="black" points="196.22,-300.57 204.46,-293.91 193.87,-293.97 196.22,-300.57"/>
</g>
<!-- Split Step&#45;&gt;Non&#45;Racket Pivot -->
<g id="edge17" class="edge">
<title>Split Step&#45;&gt;Non&#45;Racket Pivot</title>
<path fill="none" stroke="black" d="M105.14,-383.47C123.81,-379.57 146.44,-374.85 167.64,-370.43"/>
<polygon fill="black" stroke="black" points="168.34,-373.86 177.41,-368.39 166.91,-367.01 168.34,-373.86"/>
</g>
<!-- Directional Split Step -->
<g id="node17" class="node">
<title>Directional Split Step</title>
<ellipse fill="none" stroke="black" cx="237.79" cy="-428" rx="91.27" ry="18"/>
<text xml:space="preserve" text-anchor="middle" x="237.79" y="-422.95" font-family="Times New Roman,serif" font-size="14.00">Directional Split Step</text>
</g>
<!-- Split Step&#45;&gt;Directional Split Step -->
<g id="edge18" class="edge">
<title>Split Step&#45;&gt;Directional Split Step</title>
<path fill="none" stroke="black" d="M105.14,-400.53C122.3,-404.11 142.8,-408.39 162.46,-412.49"/>
<polygon fill="black" stroke="black" points="161.6,-415.89 172.11,-414.5 163.03,-409.04 161.6,-415.89"/>
</g>
<!-- Directional Split Step&#45;&gt;Aggressive Form -->
<g id="edge12" class="edge">
<title>Directional Split Step&#45;&gt;Aggressive Form</title>
<path fill="none" stroke="black" d="M250.7,-446.22C292.66,-509.03 440.45,-718.85 613.29,-832 625.24,-839.82 639.08,-846.16 652.67,-851.21"/>
<polygon fill="black" stroke="black" points="651.45,-854.49 662.05,-854.48 653.76,-847.88 651.45,-854.49"/>
</g>
<!-- Forehand Footwork&#45;&gt;Forehand Lift -->
<g id="edge24" class="edge">
<title>Forehand Footwork&#45;&gt;Forehand Lift</title>
<path fill="none" stroke="black" d="M768.17,-267.33C805.45,-256.35 856.41,-241.34 894.76,-230.04"/>
<polygon fill="black" stroke="black" points="895.67,-233.42 904.28,-227.24 893.7,-226.71 895.67,-233.42"/>
</g>
<!-- Backhand Footwork&#45;&gt;Backhand Lift -->
<g id="edge26" class="edge">
<title>Backhand Footwork&#45;&gt;Backhand Lift</title>
<path fill="none" stroke="black" d="M525.92,-370.24C542.92,-375.82 561.4,-383.06 577.29,-392 595.44,-402.21 593.79,-414.68 613.29,-422 702.27,-455.42 814.07,-449.54 883.59,-440.85"/>
<polygon fill="black" stroke="black" points="883.84,-444.35 893.3,-439.57 882.93,-437.41 883.84,-444.35"/>
</g>
<!-- Backhand Footwork&#45;&gt;Backhand Clear -->
<g id="edge32" class="edge">
<title>Backhand Footwork&#45;&gt;Backhand Clear</title>
<path fill="none" stroke="black" d="M521.61,-370.95C548.46,-378.29 582.38,-386.33 613.29,-390 708.68,-401.33 734.18,-402.5 829.42,-390 851.31,-387.13 874.88,-381.42 895.27,-375.62"/>
<polygon fill="black" stroke="black" points="896.18,-379 904.79,-372.82 894.21,-372.28 896.18,-379"/>
</g>
<!-- Rear Forehand Footwork&#45;&gt;Clear -->
<g id="edge29" class="edge">
<title>Rear Forehand Footwork&#45;&gt;Clear</title>
<path fill="none" stroke="black" d="M771.9,-338.23C814.7,-325.62 873.61,-308.27 911.56,-297.09"/>
<polygon fill="black" stroke="black" points="912.1,-300.59 920.7,-294.4 910.12,-293.87 912.1,-300.59"/>
</g>
<!-- Round The Head Clear -->
<g id="node25" class="node">
<title>Round The Head Clear</title>
<ellipse fill="none" stroke="black" cx="1175.43" cy="-466" rx="96.39" ry="18"/>
<text xml:space="preserve" text-anchor="middle" x="1175.43" y="-460.95" font-family="Times New Roman,serif" font-size="14.00">Round The Head Clear</text>
</g>
<!-- Rear Backhand Footwork&#45;&gt;Round The Head Clear -->
<g id="edge31" class="edge">
<title>Rear Backhand Footwork&#45;&gt;Round The Head Clear</title>
<path fill="none" stroke="black" d="M513.07,-444.94C532.61,-453.18 556.26,-463.37 577.29,-473 703.29,-530.74 722.4,-578.75 857.42,-610 941.26,-629.4 982.98,-662.66 1051.04,-610 1090.26,-579.65 1045.91,-538.89 1079.04,-502 1085.42,-494.9 1093.34,-489.2 1101.87,-484.61"/>
<polygon fill="black" stroke="black" points="1103.22,-487.84 1110.74,-480.38 1100.21,-481.52 1103.22,-487.84"/>
</g>
<!-- Backhand Lift&#45;&gt;Defense Lift -->
<g id="edge54" class="edge">
<title>Backhand Lift&#45;&gt;Defense Lift</title>
<path fill="none" stroke="black" d="M1005.76,-439.38C1022.29,-444.69 1039.19,-453 1051.04,-466 1084.44,-502.65 1045.91,-537.11 1079.04,-574 1088.47,-584.5 1101.27,-591.94 1114.43,-597.23"/>
<polygon fill="black" stroke="black" points="1112.99,-600.43 1123.58,-600.51 1115.35,-593.84 1112.99,-600.43"/>
</g>
<!-- Backhand Lift&#45;&gt;Defense Net -->
<g id="edge56" class="edge">
<title>Backhand Lift&#45;&gt;Defense Net</title>
<path fill="none" stroke="black" d="M1000.13,-441.59C1017.27,-447.16 1035.98,-455.07 1051.04,-466 1067.44,-477.91 1062.72,-489.97 1079.04,-502 1091.07,-510.87 1105.55,-517.81 1119.55,-523.12"/>
<polygon fill="black" stroke="black" points="1118.09,-526.32 1128.69,-526.37 1120.44,-519.72 1118.09,-526.32"/>
</g>
<!-- Clear&#45;&gt;Round The Head Clear -->
<g id="edge30" class="edge">
<title>Clear&#45;&gt;Round The Head Clear</title>
<path fill="none" stroke="black" d="M981.1,-289.3C1003.42,-293.33 1033.05,-302.26 1051.04,-322 1084.44,-358.65 1045.91,-393.11 1079.04,-430 1085.42,-437.1 1093.34,-442.8 1101.87,-447.39"/>
<polygon fill="black" stroke="black" points="1100.21,-450.48 1110.74,-451.62 1103.22,-444.16 1100.21,-450.48"/>
</g>
<!-- Overhead Smash -->
<g id="node28" class="node">
<title>Overhead Smash</title>
<ellipse fill="none" stroke="black" cx="1175.43" cy="-178" rx="74.38" ry="18"/>
<text xml:space="preserve" text-anchor="middle" x="1175.43" y="-172.95" font-family="Times New Roman,serif" font-size="14.00">Overhead Smash</text>
</g>
<!-- Clear&#45;&gt;Overhead Smash -->
<g id="edge35" class="edge">
<title>Clear&#45;&gt;Overhead Smash</title>
<path fill="none" stroke="black" d="M979.94,-280.2C1001.08,-274.89 1029.72,-265.48 1051.04,-250 1067.44,-238.09 1062.72,-226.03 1079.04,-214 1089.29,-206.44 1101.31,-200.29 1113.29,-195.35"/>
<polygon fill="black" stroke="black" points="1114.29,-198.72 1122.36,-191.86 1111.77,-192.19 1114.29,-198.72"/>
</g>
<!-- Forehand Drop -->
<g id="node40" class="node">
<title>Forehand Drop</title>
<ellipse fill="none" stroke="black" cx="1175.43" cy="-250" rx="67.22" ry="18"/>
<text xml:space="preserve" text-anchor="middle" x="1175.43" y="-244.95" font-family="Times New Roman,serif" font-size="14.00">Forehand Drop</text>
</g>
<!-- Clear&#45;&gt;Forehand Drop -->
<g id="edge49" class="edge">
<title>Clear&#45;&gt;Forehand Drop</title>
<path fill="none" stroke="black" d="M980.41,-281.29C1012.13,-276.18 1063.9,-267.83 1106,-261.04"/>
<polygon fill="black" stroke="black" points="1106.5,-264.5 1115.81,-259.45 1105.38,-257.59 1106.5,-264.5"/>
</g>
<!-- Backhand Smash -->
<g id="node27" class="node">
<title>Backhand Smash</title>
<ellipse fill="none" stroke="black" cx="1175.43" cy="-394" rx="75.41" ry="18"/>
<text xml:space="preserve" text-anchor="middle" x="1175.43" y="-388.95" font-family="Times New Roman,serif" font-size="14.00">Backhand Smash</text>
</g>
<!-- Backhand Clear&#45;&gt;Backhand Smash -->
<g id="edge34" class="edge">
<title>Backhand Clear&#45;&gt;Backhand Smash</title>
<path fill="none" stroke="black" d="M1010.46,-367.55C1038.29,-372.04 1071.73,-377.44 1101.14,-382.18"/>
<polygon fill="black" stroke="black" points="1100.27,-385.58 1110.7,-383.72 1101.38,-378.67 1100.27,-385.58"/>
</g>
<!-- Backhand Drop -->
<g id="node41" class="node">
<title>Backhand Drop</title>
<ellipse fill="none" stroke="black" cx="1175.43" cy="-322" rx="69.26" ry="18"/>
<text xml:space="preserve" text-anchor="middle" x="1175.43" y="-316.95" font-family="Times New Roman,serif" font-size="14.00">Backhand Drop</text>
</g>
<!-- Backhand Clear&#45;&gt;Backhand Drop -->
<g id="edge50" class="edge">
<title>Backhand Clear&#45;&gt;Backhand Drop</title>
<path fill="none" stroke="black" d="M1010.46,-348.45C1039.32,-343.79 1074.22,-338.16 1104.39,-333.3"/>
<polygon fill="black" stroke="black" points="1104.89,-336.76 1114.21,-331.71 1103.78,-329.85 1104.89,-336.76"/>
</g>
<!-- Scissor Kick Smash -->
<g id="node29" class="node">
<title>Scissor Kick Smash</title>
<ellipse fill="none" stroke="black" cx="1396.02" cy="-106" rx="85.64" ry="18"/>
<text xml:space="preserve" text-anchor="middle" x="1396.02" y="-100.95" font-family="Times New Roman,serif" font-size="14.00">Scissor Kick Smash</text>
</g>
<!-- Overhead Smash&#45;&gt;Scissor Kick Smash -->
<g id="edge36" class="edge">
<title>Overhead Smash&#45;&gt;Scissor Kick Smash</title>
<path fill="none" stroke="black" d="M1220.93,-163.34C1254.67,-152.23 1301.31,-136.87 1337.83,-124.84"/>
<polygon fill="black" stroke="black" points="1338.48,-128.31 1346.88,-121.86 1336.29,-121.66 1338.48,-128.31"/>
</g>
<!-- Jump Out Smash -->
<g id="node30" class="node">
<title>Jump Out Smash</title>
<ellipse fill="none" stroke="black" cx="1396.02" cy="-178" rx="75.41" ry="18"/>
<text xml:space="preserve" text-anchor="middle" x="1396.02" y="-172.95" font-family="Times New Roman,serif" font-size="14.00">Jump Out Smash</text>
</g>
<!-- Overhead Smash&#45;&gt;Jump Out Smash -->
<g id="edge37" class="edge">
<title>Overhead Smash&#45;&gt;Jump Out Smash</title>
<path fill="none" stroke="black" d="M1250.13,-178C1268.99,-178 1289.43,-178 1308.85,-178"/>
<polygon fill="black" stroke="black" points="1308.64,-181.5 1318.64,-178 1308.64,-174.5 1308.64,-181.5"/>
</g>
<!-- Jump Smash -->
<g id="node31" class="node">
<title>Jump Smash</title>
<ellipse fill="none" stroke="black" cx="1396.02" cy="-250" rx="59.03" ry="18"/>
<text xml:space="preserve" text-anchor="middle" x="1396.02" y="-244.95" font-family="Times New Roman,serif" font-size="14.00">Jump Smash</text>
</g>
<!-- Overhead Smash&#45;&gt;Jump Smash -->
<g id="edge38" class="edge">
<title>Overhead Smash&#45;&gt;Jump Smash</title>
<path fill="none" stroke="black" d="M1220.93,-192.66C1256.72,-204.45 1307.01,-221.01 1344.35,-233.31"/>
<polygon fill="black" stroke="black" points="1342.97,-236.54 1353.56,-236.34 1345.16,-229.89 1342.97,-236.54"/>
</g>
<!-- Forehand Net Brush -->
<g id="node38" class="node">
<title>Forehand Net Brush</title>
<ellipse fill="none" stroke="black" cx="1396.02" cy="-754" rx="86.15" ry="18"/>
<text xml:space="preserve" text-anchor="middle" x="1396.02" y="-748.95" font-family="Times New Roman,serif" font-size="14.00">Forehand Net Brush</text>
</g>
<!-- Forehand Net Kill&#45;&gt;Forehand Net Brush -->
<g id="edge47" class="edge">
<title>Forehand Net Kill&#45;&gt;Forehand Net Brush</title>
<path fill="none" stroke="black" d="M1254.11,-754C1268.39,-754 1283.45,-754 1298.21,-754"/>
<polygon fill="black" stroke="black" points="1297.9,-757.5 1307.9,-754 1297.9,-750.5 1297.9,-757.5"/>
</g>
<!-- Backhand Net Brush -->
<g id="node39" class="node">
<title>Backhand Net Brush</title>
<ellipse fill="none" stroke="black" cx="1396.02" cy="-682" rx="88.2" ry="18"/>
<text xml:space="preserve" text-anchor="middle" x="1396.02" y="-676.95" font-family="Times New Roman,serif" font-size="14.00">Backhand Net Brush</text>
</g>
<!-- Backhand Net Kill&#45;&gt;Backhand Net Brush -->
<g id="edge48" class="edge">
<title>Backhand Net Kill&#45;&gt;Backhand Net Brush</title>
<path fill="none" stroke="black" d="M1256.27,-682C1269.33,-682 1282.99,-682 1296.43,-682"/>
<polygon fill="black" stroke="black" points="1296.14,-685.5 1306.14,-682 1296.14,-678.5 1296.14,-685.5"/>
</g>
<!-- Forehand Net Spin -->
<g id="node36" class="node">
<title>Forehand Net Spin</title>
<ellipse fill="none" stroke="black" cx="1175.43" cy="-34" rx="81.04" ry="18"/>
<text xml:space="preserve" text-anchor="middle" x="1175.43" y="-28.95" font-family="Times New Roman,serif" font-size="14.00">Forehand Net Spin</text>
</g>
<!-- Forehand Net&#45;&gt;Forehand Net Spin -->
<g id="edge45" class="edge">
<title>Forehand Net&#45;&gt;Forehand Net Spin</title>
<path fill="none" stroke="black" d="M1012.22,-34C1034.06,-34 1059.18,-34 1083.03,-34"/>
<polygon fill="black" stroke="black" points="1082.73,-37.5 1092.73,-34 1082.73,-30.5 1082.73,-37.5"/>
</g>
<!-- Backhand Net Spin -->
<g id="node37" class="node">
<title>Backhand Net Spin</title>
<ellipse fill="none" stroke="black" cx="1175.43" cy="-106" rx="83.08" ry="18"/>
<text xml:space="preserve" text-anchor="middle" x="1175.43" y="-100.95" font-family="Times New Roman,serif" font-size="14.00">Backhand Net Spin</text>
</g>
<!-- Backhand Net&#45;&gt;Backhand Net Spin -->
<g id="edge46" class="edge">
<title>Backhand Net&#45;&gt;Backhand Net Spin</title>
<path fill="none" stroke="black" d="M1014.3,-106C1034.92,-106 1058.29,-106 1080.67,-106"/>
<polygon fill="black" stroke="black" points="1080.4,-109.5 1090.4,-106 1080.4,-102.5 1080.4,-109.5"/>
</g>
<!-- Forehand Drive&#45;&gt;Forehand Net Kill -->
<g id="edge40" class="edge">
<title>Forehand Drive&#45;&gt;Forehand Net Kill</title>
<path fill="none" stroke="black" d="M962.86,-592.02C983.09,-622.06 1027.55,-682.56 1079.04,-718 1089.53,-725.22 1101.65,-731.22 1113.67,-736.13"/>
<polygon fill="black" stroke="black" points="1112.15,-739.29 1122.74,-739.61 1114.66,-732.76 1112.15,-739.29"/>
</g>
<!-- Backhand Drive&#45;&gt;Backhand Net Kill -->
<g id="edge42" class="edge">
<title>Backhand Drive&#45;&gt;Backhand Net Kill</title>
<path fill="none" stroke="black" d="M1009.14,-512.5C1024.57,-517.84 1040,-525.88 1051.04,-538 1084.44,-574.65 1045.91,-609.11 1079.04,-646 1086.24,-654.01 1095.4,-660.25 1105.2,-665.11"/>
<polygon fill="black" stroke="black" points="1103.63,-668.24 1114.19,-669.07 1106.45,-661.83 1103.63,-668.24"/>
</g>
<!-- Backhand Serve&#45;&gt;Backhand Flick Serve -->
<g id="edge58" class="edge">
<title>Backhand Serve&#45;&gt;Backhand Flick Serve</title>
<path fill="none" stroke="black" d="M788.88,-1326C806.84,-1326 826.52,-1326 845.74,-1326"/>
<polygon fill="black" stroke="black" points="845.49,-1329.5 855.49,-1326 845.49,-1322.5 845.49,-1329.5"/>
</g>
</g>
</svg>
