<?xml version="1.0" encoding="UTF-8" standalone="no"?>
<!DOCTYPE svg PUBLIC "-//W3C//DTD SVG 1.1//EN"
 "http://www.w3.org/Graphics/SVG/1.1/DTD/svg11.dtd">
<!-- Generated by graphviz version 13.1.0 (20250701.0955)
 -->
<!-- Pages: 1 -->
<svg width="1856pt" height="1576pt"
 viewBox="0.00 0.00 1856.00 1576.00" xmlns="http://www.w3.org/2000/svg" xmlns:xlink="http://www.w3.org/1999/xlink">
<g id="graph0" class="graph" transform="scale(1 1) rotate(0) translate(4 1572)">
<polygon fill="white" stroke="none" points="-4,4 -4,-1572 1852.22,-1572 1852.22,4 -4,4"/>
<g id="clust1" class="cluster">
<title>cluster_Serve</title>
<polygon fill="lightgrey" stroke="lightgrey" points="812.04,-8 812.04,-178 1283.04,-178 1283.04,-8 812.04,-8"/>
<text xml:space="preserve" text-anchor="middle" x="1047.54" y="-160.7" font-family="Times New Roman,serif" font-size="14.00">Serve</text>
</g>
<g id="clust2" class="cluster">
<title>cluster_Racket Handling</title>
<polygon fill="lightgrey" stroke="lightgrey" points="498.65,-186 498.65,-635 984.49,-635 984.49,-186 498.65,-186"/>
<text xml:space="preserve" text-anchor="middle" x="741.57" y="-617.7" font-family="Times New Roman,serif" font-size="14.00">Racket Handling</text>
</g>
<g id="clust3" class="cluster">
<title>cluster_Form</title>
<polygon fill="lightgrey" stroke="lightgrey" points="1085.01,-282 1085.01,-545 1279.46,-545 1279.46,-282 1085.01,-282"/>
<text xml:space="preserve" text-anchor="middle" x="1182.23" y="-527.7" font-family="Times New Roman,serif" font-size="14.00">Form</text>
</g>
<g id="clust4" class="cluster">
<title>cluster_Footwork</title>
<polygon fill="lightgrey" stroke="lightgrey" points="8,-1061 8,-1417 1003.42,-1417 1003.42,-1061 8,-1061"/>
<text xml:space="preserve" text-anchor="middle" x="505.71" y="-1399.7" font-family="Times New Roman,serif" font-size="14.00">Footwork</text>
</g>
<g id="clust5" class="cluster">
<title>cluster_Shot</title>
<polygon fill="lightgrey" stroke="lightgrey" points="1102.92,-553 1102.92,-1560 1840.22,-1560 1840.22,-553 1102.92,-553"/>
<text xml:space="preserve" text-anchor="middle" x="1471.57" y="-1542.7" font-family="Times New Roman,serif" font-size="14.00">Shot</text>
</g>
<!-- Forehand Serve -->
<g id="node1" class="node">
<title>Forehand Serve</title>
<ellipse fill="none" stroke="black" cx="891.36" cy="-127" rx="69.26" ry="18"/>
<text xml:space="preserve" text-anchor="middle" x="891.36" y="-121.95" font-family="Times New Roman,serif" font-size="14.00">Forehand Serve</text>
</g>
<!-- Backhand Serve -->
<g id="node2" class="node">
<title>Backhand Serve</title>
<ellipse fill="none" stroke="black" cx="891.36" cy="-34" rx="71.31" ry="18"/>
<text xml:space="preserve" text-anchor="middle" x="891.36" y="-28.95" font-family="Times New Roman,serif" font-size="14.00">Backhand Serve</text>
</g>
<!-- Backhand Flick Serve -->
<g id="node3" class="node">
<title>Backhand Flick Serve</title>
<ellipse fill="none" stroke="black" cx="1182.23" cy="-80" rx="92.81" ry="18"/>
<text xml:space="preserve" text-anchor="middle" x="1182.23" y="-74.95" font-family="Times New Roman,serif" font-size="14.00">Backhand Flick Serve</text>
</g>
<!-- Backhand Serve&#45;&gt;Backhand Flick Serve -->
<g id="edge58" class="edge">
<title>Backhand Serve&#45;&gt;Backhand Flick Serve</title>
<path fill="none" stroke="black" d="M952.56,-43.59C994.65,-50.29 1051.4,-59.33 1097.83,-66.72"/>
<polygon fill="black" stroke="black" points="1097.17,-70.16 1107.6,-68.28 1098.27,-63.25 1097.17,-70.16"/>
</g>
<!-- Forearm Supination -->
<g id="node4" class="node">
<title>Forearm Supination</title>
<ellipse fill="none" stroke="black" cx="891.36" cy="-305" rx="85.13" ry="18"/>
<text xml:space="preserve" text-anchor="middle" x="891.36" y="-299.95" font-family="Times New Roman,serif" font-size="14.00">Forearm Supination</text>
</g>
<!-- Forearm Supination&#45;&gt;Backhand Flick Serve -->
<g id="edge59" class="edge">
<title>Forearm Supination&#45;&gt;Backhand Flick Serve</title>
<path fill="none" stroke="black" d="M915.02,-287.34C966.28,-247.42 1091.2,-150.13 1149.85,-104.44"/>
<polygon fill="black" stroke="black" points="1151.74,-107.41 1157.48,-98.5 1147.44,-101.89 1151.74,-107.41"/>
</g>
<!-- Backhand Clear -->
<g id="node47" class="node">
<title>Backhand Clear</title>
<ellipse fill="none" stroke="black" cx="1182.23" cy="-974" rx="70.29" ry="18"/>
<text xml:space="preserve" text-anchor="middle" x="1182.23" y="-968.95" font-family="Times New Roman,serif" font-size="14.00">Backhand Clear</text>
</g>
<!-- Forearm Supination&#45;&gt;Backhand Clear -->
<g id="edge33" class="edge">
<title>Forearm Supination&#45;&gt;Backhand Clear</title>
<path fill="none" stroke="black" d="M952.42,-317.96C971.45,-324.97 990.8,-335.69 1003.42,-352 1155.45,-548.5 955.66,-692.89 1085.01,-905 1097.31,-925.18 1117.97,-941.15 1137,-952.62"/>
<polygon fill="black" stroke="black" points="1135.02,-955.52 1145.43,-957.45 1138.5,-949.45 1135.02,-955.52"/>
</g>
<!-- Bevel Grip -->
<g id="node5" class="node">
<title>Bevel Grip</title>
<ellipse fill="none" stroke="black" cx="587.17" cy="-212" rx="51.86" ry="18"/>
<text xml:space="preserve" text-anchor="middle" x="587.17" y="-206.95" font-family="Times New Roman,serif" font-size="14.00">Bevel Grip</text>
</g>
<!-- Bevel Grip&#45;&gt;Forearm Supination -->
<g id="edge6" class="edge">
<title>Bevel Grip&#45;&gt;Forearm Supination</title>
<path fill="none" stroke="black" d="M627.06,-223.97C678.68,-239.85 770.34,-268.06 830.73,-286.65"/>
<polygon fill="black" stroke="black" points="829.59,-289.96 840.18,-289.56 831.65,-283.27 829.59,-289.96"/>
</g>
<!-- Grip Switch -->
<g id="node6" class="node">
<title>Grip Switch</title>
<ellipse fill="none" stroke="black" cx="891.36" cy="-398" rx="55.96" ry="18"/>
<text xml:space="preserve" text-anchor="middle" x="891.36" y="-392.95" font-family="Times New Roman,serif" font-size="14.00">Grip Switch</text>
</g>
<!-- Defensive Form -->
<g id="node12" class="node">
<title>Defensive Form</title>
<ellipse fill="none" stroke="black" cx="1182.23" cy="-494" rx="71.31" ry="18"/>
<text xml:space="preserve" text-anchor="middle" x="1182.23" y="-488.95" font-family="Times New Roman,serif" font-size="14.00">Defensive Form</text>
</g>
<!-- Grip Switch&#45;&gt;Defensive Form -->
<g id="edge11" class="edge">
<title>Grip Switch&#45;&gt;Defensive Form</title>
<path fill="none" stroke="black" d="M931.32,-410.95C981.81,-427.73 1070.12,-457.07 1127.1,-476.01"/>
<polygon fill="black" stroke="black" points="1125.68,-479.23 1136.28,-479.06 1127.89,-472.59 1125.68,-479.23"/>
</g>
<!-- Aggressive Form -->
<g id="node13" class="node">
<title>Aggressive Form</title>
<ellipse fill="none" stroke="black" cx="1182.23" cy="-401" rx="75.41" ry="18"/>
<text xml:space="preserve" text-anchor="middle" x="1182.23" y="-395.95" font-family="Times New Roman,serif" font-size="14.00">Aggressive Form</text>
</g>
<!-- Grip Switch&#45;&gt;Aggressive Form -->
<g id="edge13" class="edge">
<title>Grip Switch&#45;&gt;Aggressive Form</title>
<path fill="none" stroke="black" d="M947.71,-398.57C989.42,-399.01 1047.39,-399.61 1095.13,-400.11"/>
<polygon fill="black" stroke="black" points="1094.86,-403.6 1104.89,-400.21 1094.93,-396.6 1094.86,-403.6"/>
</g>
<!-- Service Return Form -->
<g id="node14" class="node">
<title>Service Return Form</title>
<ellipse fill="none" stroke="black" cx="1182.23" cy="-308" rx="89.23" ry="18"/>
<text xml:space="preserve" text-anchor="middle" x="1182.23" y="-302.95" font-family="Times New Roman,serif" font-size="14.00">Service Return Form</text>
</g>
<!-- Grip Switch&#45;&gt;Service Return Form -->
<g id="edge9" class="edge">
<title>Grip Switch&#45;&gt;Service Return Form</title>
<path fill="none" stroke="black" d="M932.52,-385.49C981.5,-370.23 1064.74,-344.29 1121.3,-326.67"/>
<polygon fill="black" stroke="black" points="1122.29,-330.03 1130.79,-323.71 1120.2,-323.35 1122.29,-330.03"/>
</g>
<!-- Forearm Pronation -->
<g id="node7" class="node">
<title>Forearm Pronation</title>
<ellipse fill="none" stroke="black" cx="891.36" cy="-491" rx="81.04" ry="18"/>
<text xml:space="preserve" text-anchor="middle" x="891.36" y="-485.95" font-family="Times New Roman,serif" font-size="14.00">Forearm Pronation</text>
</g>
<!-- Clear -->
<g id="node42" class="node">
<title>Clear</title>
<ellipse fill="none" stroke="black" cx="1182.23" cy="-1088" rx="30.88" ry="18"/>
<text xml:space="preserve" text-anchor="middle" x="1182.23" y="-1082.95" font-family="Times New Roman,serif" font-size="14.00">Clear</text>
</g>
<!-- Forearm Pronation&#45;&gt;Clear -->
<g id="edge29" class="edge">
<title>Forearm Pronation&#45;&gt;Clear</title>
<path fill="none" stroke="black" d="M894.92,-509.37C905.8,-581.56 953.7,-850.27 1085.01,-1021 1101.57,-1042.53 1127.01,-1059.82 1147.58,-1071.44"/>
<polygon fill="black" stroke="black" points="1145.73,-1074.42 1156.19,-1076.12 1149.07,-1068.27 1145.73,-1074.42"/>
</g>
<!-- Forehand (V) Grip -->
<g id="node8" class="node">
<title>Forehand (V) Grip</title>
<ellipse fill="none" stroke="black" cx="587.17" cy="-584" rx="80.52" ry="18"/>
<text xml:space="preserve" text-anchor="middle" x="587.17" y="-578.95" font-family="Times New Roman,serif" font-size="14.00">Forehand (V) Grip</text>
</g>
<!-- Forehand (V) Grip&#45;&gt;Forehand Serve -->
<g id="edge60" class="edge">
<title>Forehand (V) Grip&#45;&gt;Forehand Serve</title>
<path fill="none" stroke="black" d="M642.78,-570.68C661.14,-563.72 680.25,-553.33 693.29,-538 802.1,-410.07 678.42,-299.88 787.29,-172 798.09,-159.32 813.13,-150.09 828.4,-143.42"/>
<polygon fill="black" stroke="black" points="829.56,-146.73 837.55,-139.77 826.96,-140.23 829.56,-146.73"/>
</g>
<!-- Forehand (V) Grip&#45;&gt;Grip Switch -->
<g id="edge1" class="edge">
<title>Forehand (V) Grip&#45;&gt;Grip Switch</title>
<path fill="none" stroke="black" d="M632.75,-568.71C652.2,-560.99 674.75,-550.58 693.29,-538 741.92,-505 738.92,-478.37 787.29,-445 804.12,-433.38 824.29,-423.45 842.31,-415.75"/>
<polygon fill="black" stroke="black" points="843.61,-419 851.51,-411.94 840.93,-412.53 843.61,-419"/>
</g>
<!-- Forehand (V) Grip&#45;&gt;Forearm Pronation -->
<g id="edge3" class="edge">
<title>Forehand (V) Grip&#45;&gt;Forearm Pronation</title>
<path fill="none" stroke="black" d="M636.06,-569.26C689.13,-552.93 774.77,-526.57 831.8,-509.02"/>
<polygon fill="black" stroke="black" points="832.47,-512.48 841,-506.19 830.42,-505.79 832.47,-512.48"/>
</g>
<!-- Forehand Drive -->
<g id="node25" class="node">
<title>Forehand Drive</title>
<ellipse fill="none" stroke="black" cx="1182.23" cy="-697" rx="69.26" ry="18"/>
<text xml:space="preserve" text-anchor="middle" x="1182.23" y="-691.95" font-family="Times New Roman,serif" font-size="14.00">Forehand Drive</text>
</g>
<!-- Forehand (V) Grip&#45;&gt;Forehand Drive -->
<g id="edge51" class="edge">
<title>Forehand (V) Grip&#45;&gt;Forehand Drive</title>
<path fill="none" stroke="black" d="M636.08,-598.67C676.17,-610.55 735.06,-627.04 787.29,-638 897.6,-661.14 1027.13,-678.73 1106.69,-688.46"/>
<polygon fill="black" stroke="black" points="1106.21,-691.92 1116.56,-689.65 1107.05,-684.97 1106.21,-691.92"/>
</g>
<!-- Panhandle Grip -->
<g id="node9" class="node">
<title>Panhandle Grip</title>
<ellipse fill="none" stroke="black" cx="587.17" cy="-305" rx="68.75" ry="18"/>
<text xml:space="preserve" text-anchor="middle" x="587.17" y="-299.95" font-family="Times New Roman,serif" font-size="14.00">Panhandle Grip</text>
</g>
<!-- Panhandle Grip&#45;&gt;Forearm Supination -->
<g id="edge7" class="edge">
<title>Panhandle Grip&#45;&gt;Forearm Supination</title>
<path fill="none" stroke="black" d="M656.37,-305C697.21,-305 749.75,-305 794.7,-305"/>
<polygon fill="black" stroke="black" points="794.44,-308.5 804.44,-305 794.44,-301.5 794.44,-308.5"/>
</g>
<!-- Finger Squeeze -->
<g id="node10" class="node">
<title>Finger Squeeze</title>
<ellipse fill="none" stroke="black" cx="587.17" cy="-491" rx="68.24" ry="18"/>
<text xml:space="preserve" text-anchor="middle" x="587.17" y="-485.95" font-family="Times New Roman,serif" font-size="14.00">Finger Squeeze</text>
</g>
<!-- Finger Squeeze&#45;&gt;Forearm Supination -->
<g id="edge8" class="edge">
<title>Finger Squeeze&#45;&gt;Forearm Supination</title>
<path fill="none" stroke="black" d="M630.18,-476.72C650.19,-468.91 673.92,-458.14 693.29,-445 741.92,-412 738.92,-385.37 787.29,-352 802.29,-341.65 819.95,-332.63 836.36,-325.34"/>
<polygon fill="black" stroke="black" points="837.73,-328.56 845.54,-321.4 834.97,-322.13 837.73,-328.56"/>
</g>
<!-- Finger Squeeze&#45;&gt;Forearm Pronation -->
<g id="edge4" class="edge">
<title>Finger Squeeze&#45;&gt;Forearm Pronation</title>
<path fill="none" stroke="black" d="M655.61,-491C697.71,-491 752.45,-491 798.48,-491"/>
<polygon fill="black" stroke="black" points="798.47,-494.5 808.47,-491 798.47,-487.5 798.47,-494.5"/>
</g>
<!-- Backhand Grip -->
<g id="node11" class="node">
<title>Backhand Grip</title>
<ellipse fill="none" stroke="black" cx="587.17" cy="-398" rx="67.22" ry="18"/>
<text xml:space="preserve" text-anchor="middle" x="587.17" y="-392.95" font-family="Times New Roman,serif" font-size="14.00">Backhand Grip</text>
</g>
<!-- Backhand Grip&#45;&gt;Backhand Serve -->
<g id="edge57" class="edge">
<title>Backhand Grip&#45;&gt;Backhand Serve</title>
<path fill="none" stroke="black" d="M637.51,-385.79C657.12,-378.76 678.49,-368.03 693.29,-352 780.05,-258.02 700.87,-174.29 787.29,-80 798.86,-67.38 814.53,-58.02 830.16,-51.16"/>
<polygon fill="black" stroke="black" points="831.04,-54.58 838.98,-47.57 828.4,-48.09 831.04,-54.58"/>
</g>
<!-- Backhand Grip&#45;&gt;Forearm Supination -->
<g id="edge5" class="edge">
<title>Backhand Grip&#45;&gt;Forearm Supination</title>
<path fill="none" stroke="black" d="M632.44,-384.38C684.88,-368.24 772.47,-341.28 830.82,-323.32"/>
<polygon fill="black" stroke="black" points="831.74,-326.7 840.27,-320.41 829.68,-320.01 831.74,-326.7"/>
</g>
<!-- Backhand Grip&#45;&gt;Grip Switch -->
<g id="edge2" class="edge">
<title>Backhand Grip&#45;&gt;Grip Switch</title>
<path fill="none" stroke="black" d="M654.86,-398C705.01,-398 773.42,-398 823.59,-398"/>
<polygon fill="black" stroke="black" points="823.45,-401.5 833.45,-398 823.45,-394.5 823.45,-401.5"/>
</g>
<!-- Backhand Drive -->
<g id="node29" class="node">
<title>Backhand Drive</title>
<ellipse fill="none" stroke="black" cx="1182.23" cy="-590" rx="71.31" ry="18"/>
<text xml:space="preserve" text-anchor="middle" x="1182.23" y="-584.95" font-family="Times New Roman,serif" font-size="14.00">Backhand Drive</text>
</g>
<!-- Backhand Grip&#45;&gt;Backhand Drive -->
<g id="edge52" class="edge">
<title>Backhand Grip&#45;&gt;Backhand Drive</title>
<path fill="none" stroke="black" d="M629.4,-412.43C649.57,-420.46 673.66,-431.56 693.29,-445 741.78,-478.2 734.52,-512.14 787.29,-538 887.43,-587.07 1018.17,-594.9 1100.95,-594.01"/>
<polygon fill="black" stroke="black" points="1100.84,-597.52 1110.79,-593.86 1100.73,-590.52 1100.84,-597.52"/>
</g>
<!-- Defense Net -->
<g id="node31" class="node">
<title>Defense Net</title>
<ellipse fill="none" stroke="black" cx="1465.43" cy="-858" rx="56.98" ry="18"/>
<text xml:space="preserve" text-anchor="middle" x="1465.43" y="-852.95" font-family="Times New Roman,serif" font-size="14.00">Defense Net</text>
</g>
<!-- Defensive Form&#45;&gt;Defense Net -->
<g id="edge55" class="edge">
<title>Defensive Form&#45;&gt;Defense Net</title>
<path fill="none" stroke="black" d="M1232.87,-507.02C1250.8,-513.92 1269.85,-524.15 1283.04,-539 1367.51,-634.12 1285.8,-715.8 1369.04,-812 1380.28,-824.99 1396.02,-834.63 1411.49,-841.63"/>
<polygon fill="black" stroke="black" points="1410.11,-844.85 1420.69,-845.48 1412.81,-838.39 1410.11,-844.85"/>
</g>
<!-- Defense Lift -->
<g id="node43" class="node">
<title>Defense Lift</title>
<ellipse fill="none" stroke="black" cx="1465.43" cy="-765" rx="57.49" ry="18"/>
<text xml:space="preserve" text-anchor="middle" x="1465.43" y="-759.95" font-family="Times New Roman,serif" font-size="14.00">Defense Lift</text>
</g>
<!-- Defensive Form&#45;&gt;Defense Lift -->
<g id="edge53" class="edge">
<title>Defensive Form&#45;&gt;Defense Lift</title>
<path fill="none" stroke="black" d="M1230.53,-507.53C1248.68,-514.58 1268.5,-524.78 1283.04,-539 1346.42,-601 1306.46,-656.19 1369.04,-719 1381.39,-731.39 1397.74,-740.93 1413.4,-748.02"/>
<polygon fill="black" stroke="black" points="1411.59,-751.05 1422.16,-751.74 1414.33,-744.61 1411.59,-751.05"/>
</g>
<!-- Forehand Net Kill -->
<g id="node36" class="node">
<title>Forehand Net Kill</title>
<ellipse fill="none" stroke="black" cx="1465.43" cy="-672" rx="78.48" ry="18"/>
<text xml:space="preserve" text-anchor="middle" x="1465.43" y="-666.95" font-family="Times New Roman,serif" font-size="14.00">Forehand Net Kill</text>
</g>
<!-- Aggressive Form&#45;&gt;Forehand Net Kill -->
<g id="edge39" class="edge">
<title>Aggressive Form&#45;&gt;Forehand Net Kill</title>
<path fill="none" stroke="black" d="M1230,-415.37C1248.28,-422.81 1268.34,-433.45 1283.04,-448 1345.48,-509.82 1306.89,-563.9 1369.04,-626 1380.13,-637.09 1394.42,-645.89 1408.55,-652.7"/>
<polygon fill="black" stroke="black" points="1406.83,-655.77 1417.38,-656.69 1409.71,-649.39 1406.83,-655.77"/>
</g>
<!-- Backhand Net Kill -->
<g id="node37" class="node">
<title>Backhand Net Kill</title>
<ellipse fill="none" stroke="black" cx="1465.43" cy="-579" rx="80.52" ry="18"/>
<text xml:space="preserve" text-anchor="middle" x="1465.43" y="-573.95" font-family="Times New Roman,serif" font-size="14.00">Backhand Net Kill</text>
</g>
<!-- Aggressive Form&#45;&gt;Backhand Net Kill -->
<g id="edge41" class="edge">
<title>Aggressive Form&#45;&gt;Backhand Net Kill</title>
<path fill="none" stroke="black" d="M1221.05,-416.82C1240.07,-425.27 1263.24,-436.33 1283.04,-448 1338.79,-480.87 1398.8,-526.45 1433.92,-554.26"/>
<polygon fill="black" stroke="black" points="1431.53,-556.83 1441.53,-560.33 1435.89,-551.36 1431.53,-556.83"/>
</g>
<!-- Backhand Footwork -->
<g id="node15" class="node">
<title>Backhand Footwork</title>
<ellipse fill="none" stroke="black" cx="587.17" cy="-1214" rx="86.15" ry="18"/>
<text xml:space="preserve" text-anchor="middle" x="587.17" y="-1208.95" font-family="Times New Roman,serif" font-size="14.00">Backhand Footwork</text>
</g>
<!-- Backhand Net -->
<g id="node26" class="node">
<title>Backhand Net</title>
<ellipse fill="none" stroke="black" cx="1182.23" cy="-1181" rx="63.63" ry="18"/>
<text xml:space="preserve" text-anchor="middle" x="1182.23" y="-1175.95" font-family="Times New Roman,serif" font-size="14.00">Backhand Net</text>
</g>
<!-- Backhand Footwork&#45;&gt;Backhand Net -->
<g id="edge44" class="edge">
<title>Backhand Footwork&#45;&gt;Backhand Net</title>
<path fill="none" stroke="black" d="M892.36,-1055C904.88,-1051.11 1060.68,-1123.72 1138.12,-1160.43"/>
<polygon fill="black" stroke="black" points="1136.6,-1163.58 1147.14,-1164.71 1139.61,-1157.26 1136.6,-1163.58"/>
</g>
<!-- Backhand Lift -->
<g id="node34" class="node">
<title>Backhand Lift</title>
<ellipse fill="none" stroke="black" cx="1182.23" cy="-858" rx="64.15" ry="18"/>
<text xml:space="preserve" text-anchor="middle" x="1182.23" y="-852.95" font-family="Times New Roman,serif" font-size="14.00">Backhand Lift</text>
</g>
<!-- Backhand Footwork&#45;&gt;Backhand Lift -->
<g id="edge27" class="edge">
<title>Backhand Footwork&#45;&gt;Backhand Lift</title>
<path fill="none" stroke="black" d="M892.36,-1055C921.21,-1046.02 1079.97,-931.81 1149.07,-881.51"/>
<polygon fill="black" stroke="black" points="1150.96,-884.47 1156.98,-875.75 1146.84,-878.81 1150.96,-884.47"/>
<path fill="none" stroke="black" d="M628.12,-1197.82C647.97,-1189.45 672.16,-1178.76 693.29,-1168 783.26,-1122.19 793.95,-1084.99 890.36,-1055"/>
</g>
<!-- Backhand Footwork&#45;&gt;Backhand Clear -->
<g id="edge32" class="edge">
<title>Backhand Footwork&#45;&gt;Backhand Clear</title>
<path fill="none" stroke="black" d="M613.72,-1231.54C683.45,-1277.05 880.05,-1389.28 1003.42,-1299 1100.14,-1228.23 1014.26,-1138.73 1085.01,-1042 1098.93,-1022.97 1119.82,-1007.29 1138.59,-995.8"/>
<polygon fill="black" stroke="black" points="1140.29,-998.86 1147.14,-990.78 1136.75,-992.82 1140.29,-998.86"/>
</g>
<!-- Rear Forehand Footwork -->
<g id="node16" class="node">
<title>Rear Forehand Footwork</title>
<ellipse fill="none" stroke="black" cx="891.36" cy="-1159" rx="104.07" ry="18"/>
<text xml:space="preserve" text-anchor="middle" x="891.36" y="-1153.95" font-family="Times New Roman,serif" font-size="14.00">Rear Forehand Footwork</text>
</g>
<!-- Rear Forehand Footwork&#45;&gt;Clear -->
<g id="edge28" class="edge">
<title>Rear Forehand Footwork&#45;&gt;Clear</title>
<path fill="none" stroke="black" d="M952.91,-1144.12C1009.89,-1130.11 1093.52,-1109.56 1142.17,-1097.6"/>
<polygon fill="black" stroke="black" points="1142.81,-1101.05 1151.69,-1095.26 1141.14,-1094.25 1142.81,-1101.05"/>
</g>
<!-- Non&#45;Racket Pivot -->
<g id="node17" class="node">
<title>Non&#45;Racket Pivot</title>
<ellipse fill="none" stroke="black" cx="295.79" cy="-1366" rx="77.45" ry="18"/>
<text xml:space="preserve" text-anchor="middle" x="295.79" y="-1360.95" font-family="Times New Roman,serif" font-size="14.00">Non&#45;Racket Pivot</text>
</g>
<!-- Non&#45;Racket Pivot&#45;&gt;Backhand Footwork -->
<g id="edge22" class="edge">
<title>Non&#45;Racket Pivot&#45;&gt;Backhand Footwork</title>
<path fill="none" stroke="black" d="M329.45,-1349.53C346.63,-1340.83 368.03,-1329.91 387.06,-1320 441.69,-1291.54 504.37,-1258.03 544.57,-1236.43"/>
<polygon fill="black" stroke="black" points="546.06,-1239.6 553.21,-1231.78 542.74,-1233.44 546.06,-1239.6"/>
</g>
<!-- Rear Backhand Footwork -->
<g id="node21" class="node">
<title>Rear Backhand Footwork</title>
<ellipse fill="none" stroke="black" cx="587.17" cy="-1366" rx="106.11" ry="18"/>
<text xml:space="preserve" text-anchor="middle" x="587.17" y="-1360.95" font-family="Times New Roman,serif" font-size="14.00">Rear Backhand Footwork</text>
</g>
<!-- Non&#45;Racket Pivot&#45;&gt;Rear Backhand Footwork -->
<g id="edge25" class="edge">
<title>Non&#45;Racket Pivot&#45;&gt;Rear Backhand Footwork</title>
<path fill="none" stroke="black" d="M373.58,-1366C402.94,-1366 437.12,-1366 469.37,-1366"/>
<polygon fill="black" stroke="black" points="469.18,-1369.5 479.18,-1366 469.18,-1362.5 469.18,-1369.5"/>
</g>
<!-- Directional Split Step -->
<g id="node18" class="node">
<title>Directional Split Step</title>
<ellipse fill="none" stroke="black" cx="295.79" cy="-1087" rx="91.27" ry="18"/>
<text xml:space="preserve" text-anchor="middle" x="295.79" y="-1081.95" font-family="Times New Roman,serif" font-size="14.00">Directional Split Step</text>
</g>
<!-- Directional Split Step&#45;&gt;Aggressive Form -->
<g id="edge12" class="edge">
<title>Directional Split Step&#45;&gt;Aggressive Form</title>
<path fill="none" stroke="black" d="M341.14,-1070.95C463.51,-1024.55 809.61,-878.75 1003.42,-649 1065.59,-575.31 1019.22,-518.48 1085.01,-448 1095.93,-436.3 1110.39,-427.15 1124.77,-420.16"/>
<polygon fill="black" stroke="black" points="1126.14,-423.39 1133.8,-416.08 1123.25,-417.01 1126.14,-423.39"/>
</g>
<!-- Forehand Footwork -->
<g id="node19" class="node">
<title>Forehand Footwork</title>
<ellipse fill="none" stroke="black" cx="891.36" cy="-1252" rx="84.11" ry="18"/>
<text xml:space="preserve" text-anchor="middle" x="891.36" y="-1246.95" font-family="Times New Roman,serif" font-size="14.00">Forehand Footwork</text>
</g>
<!-- Forehand Lift -->
<g id="node28" class="node">
<title>Forehand Lift</title>
<ellipse fill="none" stroke="black" cx="1182.23" cy="-1367" rx="62.1" ry="18"/>
<text xml:space="preserve" text-anchor="middle" x="1182.23" y="-1361.95" font-family="Times New Roman,serif" font-size="14.00">Forehand Lift</text>
</g>
<!-- Forehand Footwork&#45;&gt;Forehand Lift -->
<g id="edge26" class="edge">
<title>Forehand Footwork&#45;&gt;Forehand Lift</title>
<path fill="none" stroke="black" d="M932.83,-1268.11C985.67,-1289.15 1078.01,-1325.91 1133.99,-1348.2"/>
<polygon fill="black" stroke="black" points="1132.69,-1351.44 1143.28,-1351.89 1135.28,-1344.94 1132.69,-1351.44"/>
</g>
<!-- Forehand Net -->
<g id="node32" class="node">
<title>Forehand Net</title>
<ellipse fill="none" stroke="black" cx="1182.23" cy="-1274" rx="61.59" ry="18"/>
<text xml:space="preserve" text-anchor="middle" x="1182.23" y="-1268.95" font-family="Times New Roman,serif" font-size="14.00">Forehand Net</text>
</g>
<!-- Forehand Footwork&#45;&gt;Forehand Net -->
<g id="edge43" class="edge">
<title>Forehand Footwork&#45;&gt;Forehand Net</title>
<path fill="none" stroke="black" d="M971.29,-1258.01C1014.9,-1261.33 1068.62,-1265.42 1110.8,-1268.64"/>
<polygon fill="black" stroke="black" points="1110.35,-1272.11 1120.59,-1269.38 1110.88,-1265.13 1110.35,-1272.11"/>
</g>
<!-- Split Step -->
<g id="node20" class="node">
<title>Split Step</title>
<ellipse fill="none" stroke="black" cx="63.26" cy="-1180" rx="47.26" ry="18"/>
<text xml:space="preserve" text-anchor="middle" x="63.26" y="-1174.95" font-family="Times New Roman,serif" font-size="14.00">Split Step</text>
</g>
<!-- Split Step&#45;&gt;Defensive Form -->
<g id="edge10" class="edge">
<title>Split Step&#45;&gt;Defensive Form</title>
<path fill="none" stroke="black" d="M78.33,-1162.8C102.06,-1134.6 152.56,-1077.97 204.51,-1041 526.75,-811.67 699.5,-902.1 1003.42,-649 1050.2,-610.05 1037.87,-577.51 1085.01,-539 1097.89,-528.48 1113.63,-519.78 1128.63,-512.94"/>
<polygon fill="black" stroke="black" points="1129.69,-516.29 1137.46,-509.09 1126.89,-509.87 1129.69,-516.29"/>
</g>
<!-- Split Step&#45;&gt;Non&#45;Racket Pivot -->
<g id="edge17" class="edge">
<title>Split Step&#45;&gt;Non&#45;Racket Pivot</title>
<path fill="none" stroke="black" d="M78.37,-1197.25C102.15,-1225.54 152.73,-1282.41 204.51,-1320 217.57,-1329.48 232.86,-1338.07 247.11,-1345.19"/>
<polygon fill="black" stroke="black" points="245.37,-1348.24 255.89,-1349.45 248.42,-1341.94 245.37,-1348.24"/>
</g>
<!-- Split Step&#45;&gt;Directional Split Step -->
<g id="edge18" class="edge">
<title>Split Step&#45;&gt;Directional Split Step</title>
<path fill="none" stroke="black" d="M96.8,-1166.87C135.06,-1151.44 199.03,-1125.63 243.87,-1107.54"/>
<polygon fill="black" stroke="black" points="244.9,-1110.9 252.86,-1103.91 242.28,-1104.41 244.9,-1110.9"/>
</g>
<!-- Chasse -->
<g id="node22" class="node">
<title>Chasse</title>
<ellipse fill="none" stroke="black" cx="295.79" cy="-1180" rx="37.02" ry="18"/>
<text xml:space="preserve" text-anchor="middle" x="295.79" y="-1174.95" font-family="Times New Roman,serif" font-size="14.00">Chasse</text>
</g>
<!-- Split Step&#45;&gt;Chasse -->
<g id="edge15" class="edge">
<title>Split Step&#45;&gt;Chasse</title>
<path fill="none" stroke="black" d="M110.91,-1180C150.54,-1180 207.2,-1180 247.12,-1180"/>
<polygon fill="black" stroke="black" points="246.91,-1183.5 256.91,-1180 246.91,-1176.5 246.91,-1183.5"/>
</g>
<!-- Lunge -->
<g id="node24" class="node">
<title>Lunge</title>
<ellipse fill="none" stroke="black" cx="295.79" cy="-1273" rx="34.46" ry="18"/>
<text xml:space="preserve" text-anchor="middle" x="295.79" y="-1267.95" font-family="Times New Roman,serif" font-size="14.00">Lunge</text>
</g>
<!-- Split Step&#45;&gt;Lunge -->
<g id="edge14" class="edge">
<title>Split Step&#45;&gt;Lunge</title>
<path fill="none" stroke="black" d="M96.8,-1193.13C139.02,-1210.16 212.53,-1239.82 257.12,-1257.81"/>
<polygon fill="black" stroke="black" points="255.81,-1261.05 266.39,-1261.55 258.43,-1254.56 255.81,-1261.05"/>
</g>
<!-- Round The Head Clear -->
<g id="node30" class="node">
<title>Round The Head Clear</title>
<ellipse fill="none" stroke="black" cx="1465.43" cy="-1416" rx="96.39" ry="18"/>
<text xml:space="preserve" text-anchor="middle" x="1465.43" y="-1410.95" font-family="Times New Roman,serif" font-size="14.00">Round The Head Clear</text>
</g>
<!-- Rear Backhand Footwork&#45;&gt;Round The Head Clear -->
<g id="edge31" class="edge">
<title>Rear Backhand Footwork&#45;&gt;Round The Head Clear</title>
<path fill="none" stroke="black" d="M673.72,-1376.65C772.58,-1388.41 940.26,-1406.64 1085.01,-1414 1176.99,-1418.68 1281.68,-1418.84 1357.76,-1418.03"/>
<polygon fill="black" stroke="black" points="1357.77,-1421.53 1367.73,-1417.91 1357.69,-1414.53 1357.77,-1421.53"/>
</g>
<!-- Chasse&#45;&gt;Backhand Footwork -->
<g id="edge21" class="edge">
<title>Chasse&#45;&gt;Backhand Footwork</title>
<path fill="none" stroke="black" d="M332.27,-1184.17C373.71,-1189.04 443.73,-1197.26 499.75,-1203.85"/>
<polygon fill="black" stroke="black" points="499.28,-1207.31 509.62,-1205.01 500.09,-1200.36 499.28,-1207.31"/>
</g>
<!-- Back Crossover -->
<g id="node23" class="node">
<title>Back Crossover</title>
<ellipse fill="none" stroke="black" cx="587.17" cy="-1121" rx="69.78" ry="18"/>
<text xml:space="preserve" text-anchor="middle" x="587.17" y="-1115.95" font-family="Times New Roman,serif" font-size="14.00">Back Crossover</text>
</g>
<!-- Chasse&#45;&gt;Back Crossover -->
<g id="edge16" class="edge">
<title>Chasse&#45;&gt;Back Crossover</title>
<path fill="none" stroke="black" d="M330.55,-1173.12C376.91,-1163.66 461.25,-1146.47 520.33,-1134.42"/>
<polygon fill="black" stroke="black" points="520.84,-1137.89 529.94,-1132.46 519.44,-1131.03 520.84,-1137.89"/>
</g>
<!-- Back Crossover&#45;&gt;Rear Forehand Footwork -->
<g id="edge24" class="edge">
<title>Back Crossover&#45;&gt;Rear Forehand Footwork</title>
<path fill="none" stroke="black" d="M650.42,-1128.83C692.01,-1134.06 747.52,-1141.04 794.68,-1146.97"/>
<polygon fill="black" stroke="black" points="793.99,-1150.41 804.34,-1148.18 794.86,-1143.46 793.99,-1150.41"/>
</g>
<!-- Back Crossover&#45;&gt;Forehand Footwork -->
<g id="edge19" class="edge">
<title>Back Crossover&#45;&gt;Forehand Footwork</title>
<path fill="none" stroke="black" d="M624.32,-1136.67C678.71,-1160.25 781.65,-1204.87 842.3,-1231.17"/>
<polygon fill="black" stroke="black" points="840.79,-1234.33 851.35,-1235.09 843.57,-1227.9 840.79,-1234.33"/>
</g>
<!-- Lunge&#45;&gt;Backhand Footwork -->
<g id="edge23" class="edge">
<title>Lunge&#45;&gt;Backhand Footwork</title>
<path fill="none" stroke="black" d="M328.31,-1266.57C372.28,-1257.61 453.32,-1241.09 512.85,-1228.95"/>
<polygon fill="black" stroke="black" points="513.49,-1232.39 522.59,-1226.96 512.1,-1225.53 513.49,-1232.39"/>
</g>
<!-- Lunge&#45;&gt;Forehand Footwork -->
<g id="edge20" class="edge">
<title>Lunge&#45;&gt;Forehand Footwork</title>
<path fill="none" stroke="black" d="M330.47,-1272.16C398.87,-1270.4 558.92,-1266.1 693.29,-1261 727.27,-1259.71 764.54,-1258.07 797.43,-1256.54"/>
<polygon fill="black" stroke="black" points="797.53,-1260.04 807.36,-1256.07 797.21,-1253.04 797.53,-1260.04"/>
</g>
<!-- Forehand Drive&#45;&gt;Forehand Net Kill -->
<g id="edge40" class="edge">
<title>Forehand Drive&#45;&gt;Forehand Net Kill</title>
<path fill="none" stroke="black" d="M1248.45,-691.2C1287.69,-687.71 1338.04,-683.24 1380.26,-679.48"/>
<polygon fill="black" stroke="black" points="1380.49,-682.98 1390.14,-678.6 1379.87,-676 1380.49,-682.98"/>
</g>
<!-- Backhand Net Spin -->
<g id="node46" class="node">
<title>Backhand Net Spin</title>
<ellipse fill="none" stroke="black" cx="1465.43" cy="-1323" rx="83.08" ry="18"/>
<text xml:space="preserve" text-anchor="middle" x="1465.43" y="-1317.95" font-family="Times New Roman,serif" font-size="14.00">Backhand Net Spin</text>
</g>
<!-- Backhand Net&#45;&gt;Backhand Net Spin -->
<g id="edge46" class="edge">
<title>Backhand Net&#45;&gt;Backhand Net Spin</title>
<path fill="none" stroke="black" d="M1217.28,-1196.24C1236.72,-1205.13 1261.45,-1216.79 1283.04,-1228 1322.08,-1248.28 1330.09,-1256.55 1369.04,-1277 1385.06,-1285.42 1402.87,-1294.16 1418.71,-1301.74"/>
<polygon fill="black" stroke="black" points="1416.91,-1304.75 1427.44,-1305.88 1419.91,-1298.43 1416.91,-1304.75"/>
</g>
<!-- Forehand Drop -->
<g id="node27" class="node">
<title>Forehand Drop</title>
<ellipse fill="none" stroke="black" cx="1465.43" cy="-1137" rx="67.22" ry="18"/>
<text xml:space="preserve" text-anchor="middle" x="1465.43" y="-1131.95" font-family="Times New Roman,serif" font-size="14.00">Forehand Drop</text>
</g>
<!-- Backhand Drive&#45;&gt;Backhand Net Kill -->
<g id="edge42" class="edge">
<title>Backhand Drive&#45;&gt;Backhand Net Kill</title>
<path fill="none" stroke="black" d="M1253.1,-587.27C1289.74,-585.83 1335.05,-584.06 1374.3,-582.53"/>
<polygon fill="black" stroke="black" points="1374.37,-586.03 1384.22,-582.14 1374.1,-579.03 1374.37,-586.03"/>
</g>
<!-- Forehand Net Spin -->
<g id="node40" class="node">
<title>Forehand Net Spin</title>
<ellipse fill="none" stroke="black" cx="1465.43" cy="-1509" rx="81.04" ry="18"/>
<text xml:space="preserve" text-anchor="middle" x="1465.43" y="-1503.95" font-family="Times New Roman,serif" font-size="14.00">Forehand Net Spin</text>
</g>
<!-- Forehand Net&#45;&gt;Forehand Net Spin -->
<g id="edge45" class="edge">
<title>Forehand Net&#45;&gt;Forehand Net Spin</title>
<path fill="none" stroke="black" d="M1224.83,-1287.26C1244.11,-1294.9 1266.39,-1306 1283.04,-1321 1337.86,-1370.38 1314.44,-1413.37 1369.04,-1463 1380.75,-1473.65 1395.38,-1482.34 1409.63,-1489.18"/>
<polygon fill="black" stroke="black" points="1407.97,-1492.27 1418.52,-1493.21 1410.86,-1485.89 1407.97,-1492.27"/>
</g>
<!-- Forehand Net Brush -->
<g id="node33" class="node">
<title>Forehand Net Brush</title>
<ellipse fill="none" stroke="black" cx="1744.02" cy="-672" rx="86.15" ry="18"/>
<text xml:space="preserve" text-anchor="middle" x="1744.02" y="-666.95" font-family="Times New Roman,serif" font-size="14.00">Forehand Net Brush</text>
</g>
<!-- Backhand Lift&#45;&gt;Defense Net -->
<g id="edge56" class="edge">
<title>Backhand Lift&#45;&gt;Defense Net</title>
<path fill="none" stroke="black" d="M1246.69,-858C1291.49,-858 1351.42,-858 1397.07,-858"/>
<polygon fill="black" stroke="black" points="1396.83,-861.5 1406.83,-858 1396.83,-854.5 1396.83,-861.5"/>
</g>
<!-- Backhand Lift&#45;&gt;Defense Lift -->
<g id="edge54" class="edge">
<title>Backhand Lift&#45;&gt;Defense Lift</title>
<path fill="none" stroke="black" d="M1225.03,-844.18C1275.41,-827.51 1360.02,-799.53 1413.99,-781.68"/>
<polygon fill="black" stroke="black" points="1414.85,-785.08 1423.24,-778.62 1412.65,-778.44 1414.85,-785.08"/>
</g>
<!-- Jump Out Smash -->
<g id="node35" class="node">
<title>Jump Out Smash</title>
<ellipse fill="none" stroke="black" cx="1744.02" cy="-1230" rx="75.41" ry="18"/>
<text xml:space="preserve" text-anchor="middle" x="1744.02" y="-1224.95" font-family="Times New Roman,serif" font-size="14.00">Jump Out Smash</text>
</g>
<!-- Forehand Net Kill&#45;&gt;Forehand Net Brush -->
<g id="edge47" class="edge">
<title>Forehand Net Kill&#45;&gt;Forehand Net Brush</title>
<path fill="none" stroke="black" d="M1544.21,-672C1575.94,-672 1612.96,-672 1646.39,-672"/>
<polygon fill="black" stroke="black" points="1646.07,-675.5 1656.07,-672 1646.07,-668.5 1646.07,-675.5"/>
</g>
<!-- Backhand Net Brush -->
<g id="node45" class="node">
<title>Backhand Net Brush</title>
<ellipse fill="none" stroke="black" cx="1744.02" cy="-579" rx="88.2" ry="18"/>
<text xml:space="preserve" text-anchor="middle" x="1744.02" y="-573.95" font-family="Times New Roman,serif" font-size="14.00">Backhand Net Brush</text>
</g>
<!-- Backhand Net Kill&#45;&gt;Backhand Net Brush -->
<g id="edge48" class="edge">
<title>Backhand Net Kill&#45;&gt;Backhand Net Brush</title>
<path fill="none" stroke="black" d="M1546.43,-579C1576.97,-579 1612.16,-579 1644.25,-579"/>
<polygon fill="black" stroke="black" points="1643.94,-582.5 1653.94,-579 1643.94,-575.5 1643.94,-582.5"/>
</g>
<!-- Backhand Smash -->
<g id="node38" class="node">
<title>Backhand Smash</title>
<ellipse fill="none" stroke="black" cx="1465.43" cy="-951" rx="75.41" ry="18"/>
<text xml:space="preserve" text-anchor="middle" x="1465.43" y="-945.95" font-family="Times New Roman,serif" font-size="14.00">Backhand Smash</text>
</g>
<!-- Overhead Smash -->
<g id="node39" class="node">
<title>Overhead Smash</title>
<ellipse fill="none" stroke="black" cx="1465.43" cy="-1230" rx="74.38" ry="18"/>
<text xml:space="preserve" text-anchor="middle" x="1465.43" y="-1224.95" font-family="Times New Roman,serif" font-size="14.00">Overhead Smash</text>
</g>
<!-- Overhead Smash&#45;&gt;Jump Out Smash -->
<g id="edge37" class="edge">
<title>Overhead Smash&#45;&gt;Jump Out Smash</title>
<path fill="none" stroke="black" d="M1540.19,-1230C1576.16,-1230 1619.63,-1230 1657.09,-1230"/>
<polygon fill="black" stroke="black" points="1656.99,-1233.5 1666.99,-1230 1656.99,-1226.5 1656.99,-1233.5"/>
</g>
<!-- Scissor Kick Smash -->
<g id="node41" class="node">
<title>Scissor Kick Smash</title>
<ellipse fill="none" stroke="black" cx="1744.02" cy="-1323" rx="85.64" ry="18"/>
<text xml:space="preserve" text-anchor="middle" x="1744.02" y="-1317.95" font-family="Times New Roman,serif" font-size="14.00">Scissor Kick Smash</text>
</g>
<!-- Overhead Smash&#45;&gt;Scissor Kick Smash -->
<g id="edge36" class="edge">
<title>Overhead Smash&#45;&gt;Scissor Kick Smash</title>
<path fill="none" stroke="black" d="M1510.26,-1244.74C1557.9,-1260.75 1634.19,-1286.41 1686.35,-1303.95"/>
<polygon fill="black" stroke="black" points="1685.07,-1307.21 1695.66,-1307.08 1687.3,-1300.57 1685.07,-1307.21"/>
</g>
<!-- Jump Smash -->
<g id="node44" class="node">
<title>Jump Smash</title>
<ellipse fill="none" stroke="black" cx="1744.02" cy="-1137" rx="59.03" ry="18"/>
<text xml:space="preserve" text-anchor="middle" x="1744.02" y="-1131.95" font-family="Times New Roman,serif" font-size="14.00">Jump Smash</text>
</g>
<!-- Overhead Smash&#45;&gt;Jump Smash -->
<g id="edge38" class="edge">
<title>Overhead Smash&#45;&gt;Jump Smash</title>
<path fill="none" stroke="black" d="M1510.26,-1215.26C1559.89,-1198.58 1640.62,-1171.43 1692.76,-1153.9"/>
<polygon fill="black" stroke="black" points="1693.64,-1157.3 1702,-1150.79 1691.4,-1150.66 1693.64,-1157.3"/>
</g>
<!-- Clear&#45;&gt;Forehand Drop -->
<g id="edge49" class="edge">
<title>Clear&#45;&gt;Forehand Drop</title>
<path fill="none" stroke="black" d="M1212.27,-1093.06C1255.57,-1100.61 1338.29,-1115.02 1397.17,-1125.28"/>
<polygon fill="black" stroke="black" points="1396.3,-1128.68 1406.75,-1126.95 1397.5,-1121.78 1396.3,-1128.68"/>
</g>
<!-- Clear&#45;&gt;Round The Head Clear -->
<g id="edge30" class="edge">
<title>Clear&#45;&gt;Round The Head Clear</title>
<path fill="none" stroke="black" d="M1211.32,-1094.87C1233.54,-1101.64 1263.91,-1114.08 1283.04,-1135 1358.1,-1217.07 1294.36,-1287.58 1369.04,-1370 1378.59,-1380.54 1391.07,-1388.9 1403.84,-1395.45"/>
<polygon fill="black" stroke="black" points="1402.2,-1398.55 1412.73,-1399.67 1405.2,-1392.22 1402.2,-1398.55"/>
</g>
<!-- Clear&#45;&gt;Overhead Smash -->
<g id="edge35" class="edge">
<title>Clear&#45;&gt;Overhead Smash</title>
<path fill="none" stroke="black" d="M1207.28,-1098.69C1227.66,-1107.9 1257.54,-1121.76 1283.04,-1135 1322.08,-1155.28 1330.09,-1163.55 1369.04,-1184 1385.33,-1192.56 1403.46,-1201.45 1419.51,-1209.12"/>
<polygon fill="black" stroke="black" points="1417.8,-1212.18 1428.34,-1213.31 1420.81,-1205.86 1417.8,-1212.18"/>
</g>
<!-- Backhand Clear&#45;&gt;Backhand Smash -->
<g id="edge34" class="edge">
<title>Backhand Clear&#45;&gt;Backhand Smash</title>
<path fill="none" stroke="black" d="M1249.87,-968.55C1289.59,-965.3 1340.33,-961.15 1382.48,-957.7"/>
<polygon fill="black" stroke="black" points="1382.66,-961.2 1392.34,-956.9 1382.09,-954.22 1382.66,-961.2"/>
</g>
<!-- Backhand Drop -->
<g id="node48" class="node">
<title>Backhand Drop</title>
<ellipse fill="none" stroke="black" cx="1465.43" cy="-1044" rx="69.26" ry="18"/>
<text xml:space="preserve" text-anchor="middle" x="1465.43" y="-1038.95" font-family="Times New Roman,serif" font-size="14.00">Backhand Drop</text>
</g>
<!-- Backhand Clear&#45;&gt;Backhand Drop -->
<g id="edge50" class="edge">
<title>Backhand Clear&#45;&gt;Backhand Drop</title>
<path fill="none" stroke="black" d="M1233.83,-986.6C1281.31,-998.42 1352.42,-1016.12 1403.11,-1028.73"/>
<polygon fill="black" stroke="black" points="1402.22,-1032.12 1412.77,-1031.14 1403.91,-1025.33 1402.22,-1032.12"/>
</g>
</g>
</svg>
