<?xml version="1.0" encoding="UTF-8" standalone="no"?>
<!DOCTYPE svg PUBLIC "-//W3C//DTD SVG 1.1//EN"
 "http://www.w3.org/Graphics/SVG/1.1/DTD/svg11.dtd">
<!-- Generated by graphviz version 13.1.0 (20250701.0955)
 -->
<!-- Pages: 1 -->
<svg width="2156pt" height="1317pt"
 viewBox="0.00 0.00 2156.00 1317.00" xmlns="http://www.w3.org/2000/svg" xmlns:xlink="http://www.w3.org/1999/xlink">
<g id="graph0" class="graph" transform="scale(1 1) rotate(0) translate(4 1313)">
<polygon fill="white" stroke="none" points="-4,4 -4,-1313 2152.22,-1313 2152.22,4 -4,4"/>
<g id="clust1" class="cluster">
<title>cluster_Shot</title>
<polygon fill="lightgrey" stroke="lightgrey" points="1302.92,-474 1302.92,-1301 2140.22,-1301 2140.22,-474 1302.92,-474"/>
<text xml:space="preserve" text-anchor="middle" x="1721.57" y="-1283.7" font-family="Times New Roman,serif" font-size="14.00">Shot</text>
</g>
<g id="clust2" class="cluster">
<title>cluster_Serve</title>
<polygon fill="lightgrey" stroke="lightgrey" points="962.04,-8 962.04,-160 1483.04,-160 1483.04,-8 962.04,-8"/>
<text xml:space="preserve" text-anchor="middle" x="1222.54" y="-142.7" font-family="Times New Roman,serif" font-size="14.00">Serve</text>
</g>
<g id="clust3" class="cluster">
<title>cluster_Form</title>
<polygon fill="lightgrey" stroke="lightgrey" points="1285.01,-239 1285.01,-466 1479.46,-466 1479.46,-239 1285.01,-239"/>
<text xml:space="preserve" text-anchor="middle" x="1382.23" y="-448.7" font-family="Times New Roman,serif" font-size="14.00">Form</text>
</g>
<g id="clust4" class="cluster">
<title>cluster_Racket Handling</title>
<polygon fill="lightgrey" stroke="lightgrey" points="598.65,-168 598.65,-545 1134.49,-545 1134.49,-168 598.65,-168"/>
<text xml:space="preserve" text-anchor="middle" x="866.57" y="-527.7" font-family="Times New Roman,serif" font-size="14.00">Racket Handling</text>
</g>
<g id="clust5" class="cluster">
<title>cluster_Footwork</title>
<polygon fill="lightgrey" stroke="lightgrey" points="8,-825 8,-1127 1153.42,-1127 1153.42,-825 8,-825"/>
<text xml:space="preserve" text-anchor="middle" x="580.71" y="-1109.7" font-family="Times New Roman,serif" font-size="14.00">Footwork</text>
</g>
<!-- Backhand Net Brush -->
<g id="node1" class="node">
<title>Backhand Net Brush</title>
<ellipse fill="none" stroke="black" cx="2044.02" cy="-500" rx="88.2" ry="18"/>
<text xml:space="preserve" text-anchor="middle" x="2044.02" y="-494.95" font-family="Times New Roman,serif" font-size="14.00">Backhand Net Brush</text>
</g>
<!-- Forehand Lift -->
<g id="node2" class="node">
<title>Forehand Lift</title>
<ellipse fill="none" stroke="black" cx="1382.23" cy="-911" rx="62.1" ry="18"/>
<text xml:space="preserve" text-anchor="middle" x="1382.23" y="-905.95" font-family="Times New Roman,serif" font-size="14.00">Forehand Lift</text>
</g>
<!-- Backhand Drive -->
<g id="node3" class="node">
<title>Backhand Drive</title>
<ellipse fill="none" stroke="black" cx="1382.23" cy="-500" rx="71.31" ry="18"/>
<text xml:space="preserve" text-anchor="middle" x="1382.23" y="-494.95" font-family="Times New Roman,serif" font-size="14.00">Backhand Drive</text>
</g>
<!-- Backhand Net Kill -->
<g id="node9" class="node">
<title>Backhand Net Kill</title>
<ellipse fill="none" stroke="black" cx="1715.43" cy="-500" rx="80.52" ry="18"/>
<text xml:space="preserve" text-anchor="middle" x="1715.43" y="-494.95" font-family="Times New Roman,serif" font-size="14.00">Backhand Net Kill</text>
</g>
<!-- Backhand Drive&#45;&gt;Backhand Net Kill -->
<g id="edge43" class="edge">
<title>Backhand Drive&#45;&gt;Backhand Net Kill</title>
<path fill="none" stroke="black" d="M1453.88,-500C1503.36,-500 1569.93,-500 1623.39,-500"/>
<polygon fill="black" stroke="black" points="1623.08,-503.5 1633.08,-500 1623.08,-496.5 1623.08,-503.5"/>
</g>
<!-- Jump Smash -->
<g id="node4" class="node">
<title>Jump Smash</title>
<ellipse fill="none" stroke="black" cx="2044.02" cy="-950" rx="59.03" ry="18"/>
<text xml:space="preserve" text-anchor="middle" x="2044.02" y="-944.95" font-family="Times New Roman,serif" font-size="14.00">Jump Smash</text>
</g>
<!-- Clear -->
<g id="node5" class="node">
<title>Clear</title>
<ellipse fill="none" stroke="black" cx="1382.23" cy="-836" rx="30.88" ry="18"/>
<text xml:space="preserve" text-anchor="middle" x="1382.23" y="-830.95" font-family="Times New Roman,serif" font-size="14.00">Clear</text>
</g>
<!-- Forehand Drop -->
<g id="node12" class="node">
<title>Forehand Drop</title>
<ellipse fill="none" stroke="black" cx="1715.43" cy="-950" rx="67.22" ry="18"/>
<text xml:space="preserve" text-anchor="middle" x="1715.43" y="-944.95" font-family="Times New Roman,serif" font-size="14.00">Forehand Drop</text>
</g>
<!-- Clear&#45;&gt;Forehand Drop -->
<g id="edge50" class="edge">
<title>Clear&#45;&gt;Forehand Drop</title>
<path fill="none" stroke="black" d="M1409.5,-845.04C1464.07,-863.82 1590.6,-907.38 1662.34,-932.07"/>
<polygon fill="black" stroke="black" points="1660.91,-935.28 1671.51,-935.23 1663.19,-928.66 1660.91,-935.28"/>
</g>
<!-- Smash -->
<g id="node18" class="node">
<title>Smash</title>
<ellipse fill="none" stroke="black" cx="1715.43" cy="-1025" rx="36" ry="18"/>
<text xml:space="preserve" text-anchor="middle" x="1715.43" y="-1019.95" font-family="Times New Roman,serif" font-size="14.00">Smash</text>
</g>
<!-- Clear&#45;&gt;Smash -->
<g id="edge36" class="edge">
<title>Clear&#45;&gt;Smash</title>
<path fill="none" stroke="black" d="M1410.6,-843.7C1431.31,-850.15 1460.01,-860.49 1483.04,-874 1551.06,-913.92 1551.14,-947.87 1619.04,-988 1636.01,-998.03 1656.19,-1006.32 1673.61,-1012.49"/>
<polygon fill="black" stroke="black" points="1672.02,-1015.64 1682.61,-1015.56 1674.28,-1009.02 1672.02,-1015.64"/>
</g>
<!-- Round The Head Clear -->
<g id="node20" class="node">
<title>Round The Head Clear</title>
<ellipse fill="none" stroke="black" cx="1715.43" cy="-1175" rx="96.39" ry="18"/>
<text xml:space="preserve" text-anchor="middle" x="1715.43" y="-1169.95" font-family="Times New Roman,serif" font-size="14.00">Round The Head Clear</text>
</g>
<!-- Clear&#45;&gt;Round The Head Clear -->
<g id="edge31" class="edge">
<title>Clear&#45;&gt;Round The Head Clear</title>
<path fill="none" stroke="black" d="M1411.95,-841.13C1433.64,-846.27 1463,-856.08 1483.04,-874 1581.44,-961.96 1520.91,-1049.73 1619.04,-1138 1627.08,-1145.23 1636.68,-1151.11 1646.66,-1155.88"/>
<polygon fill="black" stroke="black" points="1645.19,-1159.06 1655.75,-1159.85 1647.99,-1152.64 1645.19,-1159.06"/>
</g>
<!-- Forehand Net Brush -->
<g id="node6" class="node">
<title>Forehand Net Brush</title>
<ellipse fill="none" stroke="black" cx="2044.02" cy="-575" rx="86.15" ry="18"/>
<text xml:space="preserve" text-anchor="middle" x="2044.02" y="-569.95" font-family="Times New Roman,serif" font-size="14.00">Forehand Net Brush</text>
</g>
<!-- Backhand Clear -->
<g id="node7" class="node">
<title>Backhand Clear</title>
<ellipse fill="none" stroke="black" cx="1382.23" cy="-686" rx="70.29" ry="18"/>
<text xml:space="preserve" text-anchor="middle" x="1382.23" y="-680.95" font-family="Times New Roman,serif" font-size="14.00">Backhand Clear</text>
</g>
<!-- Backhand Smash -->
<g id="node15" class="node">
<title>Backhand Smash</title>
<ellipse fill="none" stroke="black" cx="1715.43" cy="-725" rx="75.41" ry="18"/>
<text xml:space="preserve" text-anchor="middle" x="1715.43" y="-719.95" font-family="Times New Roman,serif" font-size="14.00">Backhand Smash</text>
</g>
<!-- Backhand Clear&#45;&gt;Backhand Smash -->
<g id="edge35" class="edge">
<title>Backhand Clear&#45;&gt;Backhand Smash</title>
<path fill="none" stroke="black" d="M1446.7,-693.47C1500.49,-699.81 1577.88,-708.92 1635.63,-715.72"/>
<polygon fill="black" stroke="black" points="1635.07,-719.18 1645.41,-716.87 1635.88,-712.23 1635.07,-719.18"/>
</g>
<!-- Backhand Drop -->
<g id="node17" class="node">
<title>Backhand Drop</title>
<ellipse fill="none" stroke="black" cx="1715.43" cy="-650" rx="69.26" ry="18"/>
<text xml:space="preserve" text-anchor="middle" x="1715.43" y="-644.95" font-family="Times New Roman,serif" font-size="14.00">Backhand Drop</text>
</g>
<!-- Backhand Clear&#45;&gt;Backhand Drop -->
<g id="edge51" class="edge">
<title>Backhand Clear&#45;&gt;Backhand Drop</title>
<path fill="none" stroke="black" d="M1447.48,-679.02C1502.51,-673.04 1581.78,-664.42 1639.65,-658.13"/>
<polygon fill="black" stroke="black" points="1639.85,-661.63 1649.42,-657.07 1639.1,-654.67 1639.85,-661.63"/>
</g>
<!-- Jump Out Smash -->
<g id="node8" class="node">
<title>Jump Out Smash</title>
<ellipse fill="none" stroke="black" cx="2044.02" cy="-1025" rx="75.41" ry="18"/>
<text xml:space="preserve" text-anchor="middle" x="2044.02" y="-1019.95" font-family="Times New Roman,serif" font-size="14.00">Jump Out Smash</text>
</g>
<!-- Backhand Net Kill&#45;&gt;Backhand Net Brush -->
<g id="edge49" class="edge">
<title>Backhand Net Kill&#45;&gt;Backhand Net Brush</title>
<path fill="none" stroke="black" d="M1796.32,-500C1840.81,-500 1896.59,-500 1943.84,-500"/>
<polygon fill="black" stroke="black" points="1943.84,-503.5 1953.84,-500 1943.84,-496.5 1943.84,-503.5"/>
</g>
<!-- Backhand Lift -->
<g id="node10" class="node">
<title>Backhand Lift</title>
<ellipse fill="none" stroke="black" cx="1382.23" cy="-986" rx="64.15" ry="18"/>
<text xml:space="preserve" text-anchor="middle" x="1382.23" y="-980.95" font-family="Times New Roman,serif" font-size="14.00">Backhand Lift</text>
</g>
<!-- Defense Net -->
<g id="node23" class="node">
<title>Defense Net</title>
<ellipse fill="none" stroke="black" cx="1715.43" cy="-875" rx="56.98" ry="18"/>
<text xml:space="preserve" text-anchor="middle" x="1715.43" y="-869.95" font-family="Times New Roman,serif" font-size="14.00">Defense Net</text>
</g>
<!-- Backhand Lift&#45;&gt;Defense Net -->
<g id="edge57" class="edge">
<title>Backhand Lift&#45;&gt;Defense Net</title>
<path fill="none" stroke="black" d="M1424.51,-972.17C1485.32,-951.78 1598.86,-913.73 1664.35,-891.78"/>
<polygon fill="black" stroke="black" points="1665.41,-895.12 1673.78,-888.62 1663.19,-888.48 1665.41,-895.12"/>
</g>
<!-- Defense Lift -->
<g id="node24" class="node">
<title>Defense Lift</title>
<ellipse fill="none" stroke="black" cx="1715.43" cy="-800" rx="57.49" ry="18"/>
<text xml:space="preserve" text-anchor="middle" x="1715.43" y="-794.95" font-family="Times New Roman,serif" font-size="14.00">Defense Lift</text>
</g>
<!-- Backhand Lift&#45;&gt;Defense Lift -->
<g id="edge55" class="edge">
<title>Backhand Lift&#45;&gt;Defense Lift</title>
<path fill="none" stroke="black" d="M1427.86,-972.97C1445.63,-966.9 1465.88,-958.82 1483.04,-949 1550.76,-910.25 1551.79,-877.56 1619.04,-838 1632.89,-829.85 1648.81,-822.73 1663.62,-816.93"/>
<polygon fill="black" stroke="black" points="1664.64,-820.28 1672.76,-813.47 1662.17,-813.74 1664.64,-820.28"/>
</g>
<!-- Backhand Net -->
<g id="node11" class="node">
<title>Backhand Net</title>
<ellipse fill="none" stroke="black" cx="1382.23" cy="-1136" rx="63.63" ry="18"/>
<text xml:space="preserve" text-anchor="middle" x="1382.23" y="-1130.95" font-family="Times New Roman,serif" font-size="14.00">Backhand Net</text>
</g>
<!-- Backhand Net Spin -->
<g id="node13" class="node">
<title>Backhand Net Spin</title>
<ellipse fill="none" stroke="black" cx="1715.43" cy="-1250" rx="83.08" ry="18"/>
<text xml:space="preserve" text-anchor="middle" x="1715.43" y="-1244.95" font-family="Times New Roman,serif" font-size="14.00">Backhand Net Spin</text>
</g>
<!-- Backhand Net&#45;&gt;Backhand Net Spin -->
<g id="edge47" class="edge">
<title>Backhand Net&#45;&gt;Backhand Net Spin</title>
<path fill="none" stroke="black" d="M1423.84,-1149.98C1482.91,-1170.31 1592.7,-1208.1 1659.11,-1230.96"/>
<polygon fill="black" stroke="black" points="1657.76,-1234.19 1668.35,-1234.14 1660.04,-1227.58 1657.76,-1234.19"/>
</g>
<!-- Scissor Kick Smash -->
<g id="node14" class="node">
<title>Scissor Kick Smash</title>
<ellipse fill="none" stroke="black" cx="2044.02" cy="-1100" rx="85.64" ry="18"/>
<text xml:space="preserve" text-anchor="middle" x="2044.02" y="-1094.95" font-family="Times New Roman,serif" font-size="14.00">Scissor Kick Smash</text>
</g>
<!-- Forehand Drive -->
<g id="node16" class="node">
<title>Forehand Drive</title>
<ellipse fill="none" stroke="black" cx="1382.23" cy="-575" rx="69.26" ry="18"/>
<text xml:space="preserve" text-anchor="middle" x="1382.23" y="-569.95" font-family="Times New Roman,serif" font-size="14.00">Forehand Drive</text>
</g>
<!-- Forehand Net Kill -->
<g id="node21" class="node">
<title>Forehand Net Kill</title>
<ellipse fill="none" stroke="black" cx="1715.43" cy="-575" rx="78.48" ry="18"/>
<text xml:space="preserve" text-anchor="middle" x="1715.43" y="-569.95" font-family="Times New Roman,serif" font-size="14.00">Forehand Net Kill</text>
</g>
<!-- Forehand Drive&#45;&gt;Forehand Net Kill -->
<g id="edge41" class="edge">
<title>Forehand Drive&#45;&gt;Forehand Net Kill</title>
<path fill="none" stroke="black" d="M1451.86,-575C1502.09,-575 1570.71,-575 1625.21,-575"/>
<polygon fill="black" stroke="black" points="1625.1,-578.5 1635.1,-575 1625.1,-571.5 1625.1,-578.5"/>
</g>
<!-- Smash&#45;&gt;Jump Smash -->
<g id="edge39" class="edge">
<title>Smash&#45;&gt;Jump Smash</title>
<path fill="none" stroke="black" d="M1748.64,-1017.6C1803.52,-1005 1915.89,-979.2 1984.82,-963.37"/>
<polygon fill="black" stroke="black" points="1985.47,-966.81 1994.43,-961.16 1983.9,-959.99 1985.47,-966.81"/>
</g>
<!-- Smash&#45;&gt;Jump Out Smash -->
<g id="edge38" class="edge">
<title>Smash&#45;&gt;Jump Out Smash</title>
<path fill="none" stroke="black" d="M1751.69,-1025C1800.42,-1025 1889.9,-1025 1956.89,-1025"/>
<polygon fill="black" stroke="black" points="1956.76,-1028.5 1966.76,-1025 1956.76,-1021.5 1956.76,-1028.5"/>
</g>
<!-- Smash&#45;&gt;Scissor Kick Smash -->
<g id="edge37" class="edge">
<title>Smash&#45;&gt;Scissor Kick Smash</title>
<path fill="none" stroke="black" d="M1748.64,-1032.4C1800.73,-1044.36 1904.61,-1068.21 1973.98,-1084.15"/>
<polygon fill="black" stroke="black" points="1972.8,-1087.47 1983.33,-1086.29 1974.37,-1080.64 1972.8,-1087.47"/>
</g>
<!-- Forehand Net -->
<g id="node19" class="node">
<title>Forehand Net</title>
<ellipse fill="none" stroke="black" cx="1382.23" cy="-1061" rx="61.59" ry="18"/>
<text xml:space="preserve" text-anchor="middle" x="1382.23" y="-1055.95" font-family="Times New Roman,serif" font-size="14.00">Forehand Net</text>
</g>
<!-- Forehand Net Spin -->
<g id="node22" class="node">
<title>Forehand Net Spin</title>
<ellipse fill="none" stroke="black" cx="1715.43" cy="-1100" rx="81.04" ry="18"/>
<text xml:space="preserve" text-anchor="middle" x="1715.43" y="-1094.95" font-family="Times New Roman,serif" font-size="14.00">Forehand Net Spin</text>
</g>
<!-- Forehand Net&#45;&gt;Forehand Net Spin -->
<g id="edge46" class="edge">
<title>Forehand Net&#45;&gt;Forehand Net Spin</title>
<path fill="none" stroke="black" d="M1439.79,-1067.66C1492.56,-1073.87 1571.91,-1083.22 1631.77,-1090.27"/>
<polygon fill="black" stroke="black" points="1631.24,-1093.73 1641.58,-1091.42 1632.06,-1086.78 1631.24,-1093.73"/>
</g>
<!-- Forehand Net Kill&#45;&gt;Forehand Net Brush -->
<g id="edge48" class="edge">
<title>Forehand Net Kill&#45;&gt;Forehand Net Brush</title>
<path fill="none" stroke="black" d="M1794.24,-575C1839.74,-575 1897.58,-575 1946.03,-575"/>
<polygon fill="black" stroke="black" points="1945.98,-578.5 1955.98,-575 1945.98,-571.5 1945.98,-578.5"/>
</g>
<!-- Forehand Serve -->
<g id="node25" class="node">
<title>Forehand Serve</title>
<ellipse fill="none" stroke="black" cx="1041.36" cy="-109" rx="69.26" ry="18"/>
<text xml:space="preserve" text-anchor="middle" x="1041.36" y="-103.95" font-family="Times New Roman,serif" font-size="14.00">Forehand Serve</text>
</g>
<!-- Backhand Flick Serve -->
<g id="node26" class="node">
<title>Backhand Flick Serve</title>
<ellipse fill="none" stroke="black" cx="1382.23" cy="-71" rx="92.81" ry="18"/>
<text xml:space="preserve" text-anchor="middle" x="1382.23" y="-65.95" font-family="Times New Roman,serif" font-size="14.00">Backhand Flick Serve</text>
</g>
<!-- Backhand Serve -->
<g id="node27" class="node">
<title>Backhand Serve</title>
<ellipse fill="none" stroke="black" cx="1041.36" cy="-34" rx="71.31" ry="18"/>
<text xml:space="preserve" text-anchor="middle" x="1041.36" y="-28.95" font-family="Times New Roman,serif" font-size="14.00">Backhand Serve</text>
</g>
<!-- Backhand Serve&#45;&gt;Backhand Flick Serve -->
<g id="edge59" class="edge">
<title>Backhand Serve&#45;&gt;Backhand Flick Serve</title>
<path fill="none" stroke="black" d="M1107.29,-41.09C1158.82,-46.72 1231.51,-54.65 1289.06,-60.94"/>
<polygon fill="black" stroke="black" points="1288.53,-64.4 1298.85,-62.01 1289.29,-57.44 1288.53,-64.4"/>
</g>
<!-- Aggressive Form -->
<g id="node28" class="node">
<title>Aggressive Form</title>
<ellipse fill="none" stroke="black" cx="1382.23" cy="-340" rx="75.41" ry="18"/>
<text xml:space="preserve" text-anchor="middle" x="1382.23" y="-334.95" font-family="Times New Roman,serif" font-size="14.00">Aggressive Form</text>
</g>
<!-- Aggressive Form&#45;&gt;Backhand Net Kill -->
<g id="edge42" class="edge">
<title>Aggressive Form&#45;&gt;Backhand Net Kill</title>
<path fill="none" stroke="black" d="M1425.95,-354.97C1443.8,-361.55 1464.62,-369.68 1483.04,-378 1552.29,-409.3 1629.88,-451.81 1675.31,-477.5"/>
<polygon fill="black" stroke="black" points="1673.31,-480.39 1683.74,-482.28 1676.77,-474.3 1673.31,-480.39"/>
</g>
<!-- Aggressive Form&#45;&gt;Forehand Net Kill -->
<g id="edge40" class="edge">
<title>Aggressive Form&#45;&gt;Forehand Net Kill</title>
<path fill="none" stroke="black" d="M1433.4,-353.58C1450.09,-359.49 1468.2,-367.52 1483.04,-378 1559.27,-431.85 1542.98,-483.91 1619.04,-538 1629.56,-545.48 1641.8,-551.7 1653.94,-556.77"/>
<polygon fill="black" stroke="black" points="1652.53,-559.98 1663.12,-560.37 1655.09,-553.46 1652.53,-559.98"/>
</g>
<!-- Service Return Form -->
<g id="node29" class="node">
<title>Service Return Form</title>
<ellipse fill="none" stroke="black" cx="1382.23" cy="-265" rx="89.23" ry="18"/>
<text xml:space="preserve" text-anchor="middle" x="1382.23" y="-259.95" font-family="Times New Roman,serif" font-size="14.00">Service Return Form</text>
</g>
<!-- Defensive Form -->
<g id="node30" class="node">
<title>Defensive Form</title>
<ellipse fill="none" stroke="black" cx="1382.23" cy="-415" rx="71.31" ry="18"/>
<text xml:space="preserve" text-anchor="middle" x="1382.23" y="-409.95" font-family="Times New Roman,serif" font-size="14.00">Defensive Form</text>
</g>
<!-- Defensive Form&#45;&gt;Defense Net -->
<g id="edge56" class="edge">
<title>Defensive Form&#45;&gt;Defense Net</title>
<path fill="none" stroke="black" d="M1428.23,-429.07C1447.31,-436.99 1468.47,-448.65 1483.04,-465 1600.45,-596.72 1495.55,-711.96 1619.04,-838 1629.34,-848.51 1642.97,-856.1 1656.69,-861.55"/>
<polygon fill="black" stroke="black" points="1655.13,-864.71 1665.73,-864.8 1657.5,-858.12 1655.13,-864.71"/>
</g>
<!-- Defensive Form&#45;&gt;Defense Lift -->
<g id="edge54" class="edge">
<title>Defensive Form&#45;&gt;Defense Lift</title>
<path fill="none" stroke="black" d="M1427.13,-429.41C1446.23,-437.44 1467.7,-449.1 1483.04,-465 1584.1,-569.79 1513.15,-663.09 1619.04,-763 1629.75,-773.1 1643.52,-780.54 1657.25,-785.98"/>
<polygon fill="black" stroke="black" points="1655.67,-789.13 1666.27,-789.25 1658.06,-782.55 1655.67,-789.13"/>
</g>
<!-- Grip Switch -->
<g id="node31" class="node">
<title>Grip Switch</title>
<ellipse fill="none" stroke="black" cx="1041.36" cy="-344" rx="55.96" ry="18"/>
<text xml:space="preserve" text-anchor="middle" x="1041.36" y="-338.95" font-family="Times New Roman,serif" font-size="14.00">Grip Switch</text>
</g>
<!-- Grip Switch&#45;&gt;Aggressive Form -->
<g id="edge13" class="edge">
<title>Grip Switch&#45;&gt;Aggressive Form</title>
<path fill="none" stroke="black" d="M1097.56,-343.35C1151.05,-342.72 1232.99,-341.75 1295.07,-341.02"/>
<polygon fill="black" stroke="black" points="1294.95,-344.52 1304.91,-340.9 1294.87,-337.52 1294.95,-344.52"/>
</g>
<!-- Grip Switch&#45;&gt;Service Return Form -->
<g id="edge9" class="edge">
<title>Grip Switch&#45;&gt;Service Return Form</title>
<path fill="none" stroke="black" d="M1087.36,-333.51C1144.66,-320.15 1244.28,-296.93 1311.47,-281.26"/>
<polygon fill="black" stroke="black" points="1311.96,-284.74 1320.9,-279.06 1310.37,-277.93 1311.96,-284.74"/>
</g>
<!-- Grip Switch&#45;&gt;Defensive Form -->
<g id="edge11" class="edge">
<title>Grip Switch&#45;&gt;Defensive Form</title>
<path fill="none" stroke="black" d="M1089.12,-353.8C1147.73,-366.08 1248.56,-387.2 1315.07,-401.14"/>
<polygon fill="black" stroke="black" points="1314.27,-404.55 1324.77,-403.17 1315.7,-397.69 1314.27,-404.55"/>
</g>
<!-- Bevel Grip -->
<g id="node32" class="node">
<title>Bevel Grip</title>
<ellipse fill="none" stroke="black" cx="687.17" cy="-194" rx="51.86" ry="18"/>
<text xml:space="preserve" text-anchor="middle" x="687.17" y="-188.95" font-family="Times New Roman,serif" font-size="14.00">Bevel Grip</text>
</g>
<!-- Forearm Supination -->
<g id="node34" class="node">
<title>Forearm Supination</title>
<ellipse fill="none" stroke="black" cx="1041.36" cy="-269" rx="85.13" ry="18"/>
<text xml:space="preserve" text-anchor="middle" x="1041.36" y="-263.95" font-family="Times New Roman,serif" font-size="14.00">Forearm Supination</text>
</g>
<!-- Bevel Grip&#45;&gt;Forearm Supination -->
<g id="edge6" class="edge">
<title>Bevel Grip&#45;&gt;Forearm Supination</title>
<path fill="none" stroke="black" d="M732.07,-203.35C791.4,-215.98 897.93,-238.67 968.89,-253.78"/>
<polygon fill="black" stroke="black" points="967.97,-257.16 978.48,-255.82 969.43,-250.32 967.97,-257.16"/>
</g>
<!-- Panhandle Grip -->
<g id="node33" class="node">
<title>Panhandle Grip</title>
<ellipse fill="none" stroke="black" cx="687.17" cy="-269" rx="68.75" ry="18"/>
<text xml:space="preserve" text-anchor="middle" x="687.17" y="-263.95" font-family="Times New Roman,serif" font-size="14.00">Panhandle Grip</text>
</g>
<!-- Panhandle Grip&#45;&gt;Forearm Supination -->
<g id="edge7" class="edge">
<title>Panhandle Grip&#45;&gt;Forearm Supination</title>
<path fill="none" stroke="black" d="M756.08,-269C809.6,-269 884.88,-269 944.53,-269"/>
<polygon fill="black" stroke="black" points="944.35,-272.5 954.35,-269 944.35,-265.5 944.35,-272.5"/>
</g>
<!-- Forearm Supination&#45;&gt;Backhand Clear -->
<g id="edge34" class="edge">
<title>Forearm Supination&#45;&gt;Backhand Clear</title>
<path fill="none" stroke="black" d="M1106.36,-280.97C1123.23,-286.61 1140.34,-294.88 1153.42,-307 1262.03,-407.6 1193.78,-496.41 1285.01,-613 1300.7,-633.06 1323.17,-650.52 1342.45,-663.33"/>
<polygon fill="black" stroke="black" points="1340.32,-666.12 1350.62,-668.6 1344.11,-660.24 1340.32,-666.12"/>
</g>
<!-- Forearm Supination&#45;&gt;Backhand Flick Serve -->
<g id="edge60" class="edge">
<title>Forearm Supination&#45;&gt;Backhand Flick Serve</title>
<path fill="none" stroke="black" d="M1071.84,-251.78C1132.92,-216.08 1273.33,-134.05 1341.99,-93.93"/>
<polygon fill="black" stroke="black" points="1343.4,-97.16 1350.27,-89.09 1339.87,-91.11 1343.4,-97.16"/>
</g>
<!-- Forearm Pronation -->
<g id="node35" class="node">
<title>Forearm Pronation</title>
<ellipse fill="none" stroke="black" cx="1041.36" cy="-419" rx="81.04" ry="18"/>
<text xml:space="preserve" text-anchor="middle" x="1041.36" y="-413.95" font-family="Times New Roman,serif" font-size="14.00">Forearm Pronation</text>
</g>
<!-- Forearm Pronation&#45;&gt;Clear -->
<g id="edge30" class="edge">
<title>Forearm Pronation&#45;&gt;Clear</title>
<path fill="none" stroke="black" d="M1056.34,-437.07C1093.19,-484.54 1196.18,-616.58 1285.01,-724 1310.13,-754.39 1339.8,-788.69 1359.48,-811.23"/>
<polygon fill="black" stroke="black" points="1356.8,-813.48 1366.02,-818.7 1362.07,-808.87 1356.8,-813.48"/>
</g>
<!-- Forehand (V) Grip -->
<g id="node36" class="node">
<title>Forehand (V) Grip</title>
<ellipse fill="none" stroke="black" cx="687.17" cy="-494" rx="80.52" ry="18"/>
<text xml:space="preserve" text-anchor="middle" x="687.17" y="-488.95" font-family="Times New Roman,serif" font-size="14.00">Forehand (V) Grip</text>
</g>
<!-- Forehand (V) Grip&#45;&gt;Forehand Drive -->
<g id="edge52" class="edge">
<title>Forehand (V) Grip&#45;&gt;Forehand Drive</title>
<path fill="none" stroke="black" d="M757.94,-502.9C807.87,-509.22 876.7,-517.82 937.29,-525 1066.97,-540.37 1218.1,-557.15 1306.37,-566.84"/>
<polygon fill="black" stroke="black" points="1305.79,-570.29 1316.11,-567.91 1306.55,-563.34 1305.79,-570.29"/>
</g>
<!-- Forehand (V) Grip&#45;&gt;Forehand Serve -->
<g id="edge61" class="edge">
<title>Forehand (V) Grip&#45;&gt;Forehand Serve</title>
<path fill="none" stroke="black" d="M747.89,-481.87C764.02,-476.36 780.52,-468.41 793.29,-457 902.94,-358.95 833.36,-263.09 937.29,-159 950.73,-145.54 968.51,-135.16 985.52,-127.43"/>
<polygon fill="black" stroke="black" points="986.76,-130.71 994.57,-123.56 984,-124.27 986.76,-130.71"/>
</g>
<!-- Forehand (V) Grip&#45;&gt;Grip Switch -->
<g id="edge1" class="edge">
<title>Forehand (V) Grip&#45;&gt;Grip Switch</title>
<path fill="none" stroke="black" d="M735.03,-479.09C753.42,-472.83 774.56,-465.12 793.29,-457 859.49,-428.28 871.3,-411.21 937.29,-382 954.62,-374.33 974.03,-366.89 991.28,-360.65"/>
<polygon fill="black" stroke="black" points="992.05,-364.1 1000.29,-357.44 989.7,-357.5 992.05,-364.1"/>
</g>
<!-- Forehand (V) Grip&#45;&gt;Forearm Pronation -->
<g id="edge3" class="edge">
<title>Forehand (V) Grip&#45;&gt;Forearm Pronation</title>
<path fill="none" stroke="black" d="M746.72,-481.53C808.3,-468.42 905.15,-447.79 970.63,-433.85"/>
<polygon fill="black" stroke="black" points="971.13,-437.32 980.18,-431.81 969.68,-430.47 971.13,-437.32"/>
</g>
<!-- Finger Squeeze -->
<g id="node37" class="node">
<title>Finger Squeeze</title>
<ellipse fill="none" stroke="black" cx="687.17" cy="-419" rx="68.24" ry="18"/>
<text xml:space="preserve" text-anchor="middle" x="687.17" y="-413.95" font-family="Times New Roman,serif" font-size="14.00">Finger Squeeze</text>
</g>
<!-- Finger Squeeze&#45;&gt;Forearm Supination -->
<g id="edge8" class="edge">
<title>Finger Squeeze&#45;&gt;Forearm Supination</title>
<path fill="none" stroke="black" d="M732.18,-405.06C751.21,-398.64 773.59,-390.55 793.29,-382 859.49,-353.28 871.3,-336.21 937.29,-307 952.31,-300.35 968.89,-293.88 984.28,-288.21"/>
<polygon fill="black" stroke="black" points="985.08,-291.64 993.28,-284.94 982.69,-285.06 985.08,-291.64"/>
</g>
<!-- Finger Squeeze&#45;&gt;Forearm Pronation -->
<g id="edge4" class="edge">
<title>Finger Squeeze&#45;&gt;Forearm Pronation</title>
<path fill="none" stroke="black" d="M755.66,-419C810.36,-419 887.99,-419 948.37,-419"/>
<polygon fill="black" stroke="black" points="948.31,-422.5 958.31,-419 948.31,-415.5 948.31,-422.5"/>
</g>
<!-- Backhand Grip -->
<g id="node38" class="node">
<title>Backhand Grip</title>
<ellipse fill="none" stroke="black" cx="687.17" cy="-344" rx="67.22" ry="18"/>
<text xml:space="preserve" text-anchor="middle" x="687.17" y="-338.95" font-family="Times New Roman,serif" font-size="14.00">Backhand Grip</text>
</g>
<!-- Backhand Grip&#45;&gt;Backhand Drive -->
<g id="edge53" class="edge">
<title>Backhand Grip&#45;&gt;Backhand Drive</title>
<path fill="none" stroke="black" d="M730.88,-357.99C750.17,-364.68 773.12,-373.15 793.29,-382 859.37,-411 868.11,-436.48 937.29,-457 1059.92,-493.38 1209.13,-500.71 1299.56,-501.34"/>
<polygon fill="black" stroke="black" points="1299.31,-504.84 1309.32,-501.38 1299.34,-497.84 1299.31,-504.84"/>
</g>
<!-- Backhand Grip&#45;&gt;Backhand Serve -->
<g id="edge58" class="edge">
<title>Backhand Grip&#45;&gt;Backhand Serve</title>
<path fill="none" stroke="black" d="M741.21,-332.99C759.1,-327.38 778.32,-319.1 793.29,-307 888.56,-230 842.59,-149.7 937.29,-72 948.74,-62.6 962.74,-55.41 976.68,-49.95"/>
<polygon fill="black" stroke="black" points="977.65,-53.31 985.86,-46.61 975.27,-46.73 977.65,-53.31"/>
</g>
<!-- Backhand Grip&#45;&gt;Grip Switch -->
<g id="edge2" class="edge">
<title>Backhand Grip&#45;&gt;Grip Switch</title>
<path fill="none" stroke="black" d="M754.83,-344C817.53,-344 910.91,-344 973.63,-344"/>
<polygon fill="black" stroke="black" points="973.46,-347.5 983.46,-344 973.46,-340.5 973.46,-347.5"/>
</g>
<!-- Backhand Grip&#45;&gt;Forearm Supination -->
<g id="edge5" class="edge">
<title>Backhand Grip&#45;&gt;Forearm Supination</title>
<path fill="none" stroke="black" d="M740.9,-332.77C801.61,-319.84 901.64,-298.54 969.21,-284.15"/>
<polygon fill="black" stroke="black" points="969.65,-287.64 978.7,-282.13 968.19,-280.79 969.65,-287.64"/>
</g>
<!-- Rear Forehand Footwork -->
<g id="node39" class="node">
<title>Rear Forehand Footwork</title>
<ellipse fill="none" stroke="black" cx="1041.36" cy="-889" rx="104.07" ry="18"/>
<text xml:space="preserve" text-anchor="middle" x="1041.36" y="-883.95" font-family="Times New Roman,serif" font-size="14.00">Rear Forehand Footwork</text>
</g>
<!-- Rear Forehand Footwork&#45;&gt;Clear -->
<g id="edge29" class="edge">
<title>Rear Forehand Footwork&#45;&gt;Clear</title>
<path fill="none" stroke="black" d="M1120.1,-876.84C1188.92,-866.08 1286.6,-850.8 1340.89,-842.31"/>
<polygon fill="black" stroke="black" points="1341.28,-845.79 1350.62,-840.79 1340.2,-838.88 1341.28,-845.79"/>
</g>
<!-- Lunge -->
<g id="node40" class="node">
<title>Lunge</title>
<ellipse fill="none" stroke="black" cx="345.79" cy="-926" rx="34.46" ry="18"/>
<text xml:space="preserve" text-anchor="middle" x="345.79" y="-920.95" font-family="Times New Roman,serif" font-size="14.00">Lunge</text>
</g>
<!-- Forehand Footwork -->
<g id="node43" class="node">
<title>Forehand Footwork</title>
<ellipse fill="none" stroke="black" cx="1041.36" cy="-964" rx="84.11" ry="18"/>
<text xml:space="preserve" text-anchor="middle" x="1041.36" y="-958.95" font-family="Times New Roman,serif" font-size="14.00">Forehand Footwork</text>
</g>
<!-- Lunge&#45;&gt;Forehand Footwork -->
<g id="edge20" class="edge">
<title>Lunge&#45;&gt;Forehand Footwork</title>
<path fill="none" stroke="black" d="M377.53,-918.62C450.19,-902.21 638.06,-865.96 793.29,-889 830.26,-894.49 923.88,-924.64 984.67,-945.01"/>
<polygon fill="black" stroke="black" points="983.22,-948.21 993.81,-948.08 985.45,-941.57 983.22,-948.21"/>
</g>
<!-- Backhand Footwork -->
<g id="node45" class="node">
<title>Backhand Footwork</title>
<ellipse fill="none" stroke="black" cx="687.17" cy="-1001" rx="86.15" ry="18"/>
<text xml:space="preserve" text-anchor="middle" x="687.17" y="-995.95" font-family="Times New Roman,serif" font-size="14.00">Backhand Footwork</text>
</g>
<!-- Lunge&#45;&gt;Backhand Footwork -->
<g id="edge23" class="edge">
<title>Lunge&#45;&gt;Backhand Footwork</title>
<path fill="none" stroke="black" d="M378.11,-932.92C431.8,-944.79 542.68,-969.29 615.73,-985.43"/>
<polygon fill="black" stroke="black" points="614.67,-988.78 625.19,-987.52 616.18,-981.95 614.67,-988.78"/>
</g>
<!-- Rear Backhand Footwork -->
<g id="node41" class="node">
<title>Rear Backhand Footwork</title>
<ellipse fill="none" stroke="black" cx="687.17" cy="-1076" rx="106.11" ry="18"/>
<text xml:space="preserve" text-anchor="middle" x="687.17" y="-1070.95" font-family="Times New Roman,serif" font-size="14.00">Rear Backhand Footwork</text>
</g>
<!-- Rear Backhand Footwork&#45;&gt;Round The Head Clear -->
<g id="edge32" class="edge">
<title>Rear Backhand Footwork&#45;&gt;Round The Head Clear</title>
<path fill="none" stroke="black" d="M743.65,-1091.51C793.85,-1105.04 870.02,-1124.27 937.29,-1136 1090.44,-1162.7 1129.79,-1165.36 1285.01,-1174 1395.07,-1180.12 1521.25,-1179.51 1608.21,-1177.89"/>
<polygon fill="black" stroke="black" points="1608.24,-1181.39 1618.17,-1177.7 1608.1,-1174.4 1608.24,-1181.39"/>
</g>
<!-- Back Crossover -->
<g id="node42" class="node">
<title>Back Crossover</title>
<ellipse fill="none" stroke="black" cx="687.17" cy="-926" rx="69.78" ry="18"/>
<text xml:space="preserve" text-anchor="middle" x="687.17" y="-920.95" font-family="Times New Roman,serif" font-size="14.00">Back Crossover</text>
</g>
<!-- Back Crossover&#45;&gt;Rear Forehand Footwork -->
<g id="edge24" class="edge">
<title>Back Crossover&#45;&gt;Rear Forehand Footwork</title>
<path fill="none" stroke="black" d="M752.36,-919.26C804.84,-913.74 879.97,-905.85 940.34,-899.51"/>
<polygon fill="black" stroke="black" points="940.34,-903.03 949.92,-898.5 939.61,-896.06 940.34,-903.03"/>
</g>
<!-- Back Crossover&#45;&gt;Forehand Footwork -->
<g id="edge19" class="edge">
<title>Back Crossover&#45;&gt;Forehand Footwork</title>
<path fill="none" stroke="black" d="M751.95,-932.88C808.49,-938.98 891.55,-947.94 954.03,-954.69"/>
<polygon fill="black" stroke="black" points="953.62,-958.16 963.94,-955.75 954.37,-951.2 953.62,-958.16"/>
</g>
<!-- Forehand Footwork&#45;&gt;Forehand Lift -->
<g id="edge27" class="edge">
<title>Forehand Footwork&#45;&gt;Forehand Lift</title>
<path fill="none" stroke="black" d="M1110.12,-953.4C1169.91,-944.05 1256.5,-930.51 1315.63,-921.26"/>
<polygon fill="black" stroke="black" points="1315.87,-924.76 1325.21,-919.76 1314.79,-917.85 1315.87,-924.76"/>
</g>
<!-- Forehand Footwork&#45;&gt;Forehand Net -->
<g id="edge44" class="edge">
<title>Forehand Footwork&#45;&gt;Forehand Net</title>
<path fill="none" stroke="black" d="M1093.09,-978.52C1155.75,-996.46 1261.94,-1026.85 1326.42,-1045.31"/>
<polygon fill="black" stroke="black" points="1325.14,-1048.59 1335.72,-1047.97 1327.07,-1041.86 1325.14,-1048.59"/>
</g>
<!-- Directional Split Step -->
<g id="node44" class="node">
<title>Directional Split Step</title>
<ellipse fill="none" stroke="black" cx="345.79" cy="-851" rx="91.27" ry="18"/>
<text xml:space="preserve" text-anchor="middle" x="345.79" y="-845.95" font-family="Times New Roman,serif" font-size="14.00">Directional Split Step</text>
</g>
<!-- Directional Split Step&#45;&gt;Aggressive Form -->
<g id="edge12" class="edge">
<title>Directional Split Step&#45;&gt;Aggressive Form</title>
<path fill="none" stroke="black" d="M416.33,-839.27C564.45,-811.51 916.86,-730.43 1153.42,-554 1231.71,-495.61 1207.4,-437.3 1285.01,-378 1295.71,-369.82 1308.4,-363.17 1321,-357.86"/>
<polygon fill="black" stroke="black" points="1322.09,-361.19 1330.1,-354.26 1319.51,-354.68 1322.09,-361.19"/>
</g>
<!-- Backhand Footwork&#45;&gt;Backhand Clear -->
<g id="edge33" class="edge">
<title>Backhand Footwork&#45;&gt;Backhand Clear</title>
<path fill="none" stroke="black" d="M740.12,-986.41C757.54,-980.56 776.73,-973.04 793.29,-964 864.45,-925.15 866.5,-891.54 937.29,-852 1006.77,-813.18 1224.75,-738.24 1327.12,-703.94"/>
<polygon fill="black" stroke="black" points="1328.03,-707.32 1336.4,-700.83 1325.81,-700.68 1328.03,-707.32"/>
</g>
<!-- Backhand Footwork&#45;&gt;Backhand Lift -->
<g id="edge28" class="edge">
<title>Backhand Footwork&#45;&gt;Backhand Lift</title>
<path fill="none" stroke="black" d="M732.06,-1016.77C812.13,-1045.13 979.33,-1102.21 1040.36,-1107"/>
<path fill="none" stroke="black" d="M1042.36,-1107C1057.37,-1108.18 1242.18,-1038.87 1332.36,-1004.64"/>
<polygon fill="black" stroke="black" points="1333.36,-1008.01 1341.46,-1001.18 1330.87,-1001.46 1333.36,-1008.01"/>
</g>
<!-- Backhand Footwork&#45;&gt;Backhand Net -->
<g id="edge45" class="edge">
<title>Backhand Footwork&#45;&gt;Backhand Net</title>
<path fill="none" stroke="black" d="M1042.36,-1107C1134.78,-1114.25 1241.31,-1123.52 1309.87,-1129.6"/>
<polygon fill="black" stroke="black" points="1309.18,-1133.05 1319.45,-1130.45 1309.8,-1126.08 1309.18,-1133.05"/>
</g>
<!-- Non&#45;Racket Pivot -->
<g id="node46" class="node">
<title>Non&#45;Racket Pivot</title>
<ellipse fill="none" stroke="black" cx="345.79" cy="-1076" rx="77.45" ry="18"/>
<text xml:space="preserve" text-anchor="middle" x="345.79" y="-1070.95" font-family="Times New Roman,serif" font-size="14.00">Non&#45;Racket Pivot</text>
</g>
<!-- Non&#45;Racket Pivot&#45;&gt;Rear Backhand Footwork -->
<g id="edge25" class="edge">
<title>Non&#45;Racket Pivot&#45;&gt;Rear Backhand Footwork</title>
<path fill="none" stroke="black" d="M423.37,-1076C466.36,-1076 520.89,-1076 569.13,-1076"/>
<polygon fill="black" stroke="black" points="569.08,-1079.5 579.08,-1076 569.08,-1072.5 569.08,-1079.5"/>
</g>
<!-- Non&#45;Racket Pivot&#45;&gt;Backhand Footwork -->
<g id="edge22" class="edge">
<title>Non&#45;Racket Pivot&#45;&gt;Backhand Footwork</title>
<path fill="none" stroke="black" d="M403.21,-1063.53C461.44,-1050.66 552.43,-1030.56 615.44,-1016.63"/>
<polygon fill="black" stroke="black" points="615.98,-1020.1 624.99,-1014.52 614.47,-1013.26 615.98,-1020.1"/>
</g>
<!-- Chasse -->
<g id="node47" class="node">
<title>Chasse</title>
<ellipse fill="none" stroke="black" cx="345.79" cy="-1001" rx="37.02" ry="18"/>
<text xml:space="preserve" text-anchor="middle" x="345.79" y="-995.95" font-family="Times New Roman,serif" font-size="14.00">Chasse</text>
</g>
<!-- Chasse&#45;&gt;Rear Backhand Footwork -->
<g id="edge26" class="edge">
<title>Chasse&#45;&gt;Rear Backhand Footwork</title>
<path fill="none" stroke="black" d="M379.95,-1008.33C432.86,-1020.02 537.75,-1043.2 609.91,-1059.15"/>
<polygon fill="black" stroke="black" points="608.75,-1062.47 619.27,-1061.22 610.26,-1055.64 608.75,-1062.47"/>
</g>
<!-- Chasse&#45;&gt;Back Crossover -->
<g id="edge16" class="edge">
<title>Chasse&#45;&gt;Back Crossover</title>
<path fill="none" stroke="black" d="M379.95,-993.67C435.83,-981.32 549.73,-956.15 621.77,-940.23"/>
<polygon fill="black" stroke="black" points="622.47,-943.66 631.48,-938.09 620.96,-936.83 622.47,-943.66"/>
</g>
<!-- Chasse&#45;&gt;Backhand Footwork -->
<g id="edge21" class="edge">
<title>Chasse&#45;&gt;Backhand Footwork</title>
<path fill="none" stroke="black" d="M383.11,-1001C431.94,-1001 520.6,-1001 589.45,-1001"/>
<polygon fill="black" stroke="black" points="589.24,-1004.5 599.24,-1001 589.24,-997.5 589.24,-1004.5"/>
</g>
<!-- Split Step -->
<g id="node48" class="node">
<title>Split Step</title>
<ellipse fill="none" stroke="black" cx="63.26" cy="-926" rx="47.26" ry="18"/>
<text xml:space="preserve" text-anchor="middle" x="63.26" y="-920.95" font-family="Times New Roman,serif" font-size="14.00">Split Step</text>
</g>
<!-- Split Step&#45;&gt;Defensive Form -->
<g id="edge10" class="edge">
<title>Split Step&#45;&gt;Defensive Form</title>
<path fill="none" stroke="black" d="M86.98,-910.06C121.69,-886.32 190.62,-841.53 254.51,-814 636.46,-649.44 776.81,-730.44 1153.42,-554 1217.36,-524.05 1224.34,-501.11 1285.01,-465 1301.89,-454.95 1320.99,-444.79 1337.7,-436.27"/>
<polygon fill="black" stroke="black" points="1339.06,-439.51 1346.41,-431.88 1335.9,-433.26 1339.06,-439.51"/>
</g>
<!-- Split Step&#45;&gt;Lunge -->
<g id="edge14" class="edge">
<title>Split Step&#45;&gt;Lunge</title>
<path fill="none" stroke="black" d="M110.9,-926C163.22,-926 247.53,-926 299.36,-926"/>
<polygon fill="black" stroke="black" points="299.33,-929.5 309.33,-926 299.33,-922.5 299.33,-929.5"/>
</g>
<!-- Split Step&#45;&gt;Directional Split Step -->
<g id="edge18" class="edge">
<title>Split Step&#45;&gt;Directional Split Step</title>
<path fill="none" stroke="black" d="M102.68,-915.73C148.02,-903.61 224.18,-883.25 278.98,-868.59"/>
<polygon fill="black" stroke="black" points="279.76,-872.01 288.52,-866.04 277.96,-865.24 279.76,-872.01"/>
</g>
<!-- Split Step&#45;&gt;Non&#45;Racket Pivot -->
<g id="edge17" class="edge">
<title>Split Step&#45;&gt;Non&#45;Racket Pivot</title>
<path fill="none" stroke="black" d="M87.95,-941.62C123.33,-964.58 192.45,-1008.06 254.51,-1039 266.71,-1045.08 280.16,-1050.99 292.87,-1056.25"/>
<polygon fill="black" stroke="black" points="291.34,-1059.4 301.92,-1059.92 293.97,-1052.92 291.34,-1059.4"/>
</g>
<!-- Split Step&#45;&gt;Chasse -->
<g id="edge15" class="edge">
<title>Split Step&#45;&gt;Chasse</title>
<path fill="none" stroke="black" d="M102.68,-936.27C154.79,-950.2 247.6,-975.02 301.92,-989.54"/>
<polygon fill="black" stroke="black" points="300.87,-992.88 311.44,-992.08 302.68,-986.12 300.87,-992.88"/>
</g>
</g>
</svg>
