<?xml version="1.0" encoding="UTF-8" standalone="no"?>
<!DOCTYPE svg PUBLIC "-//W3C//DTD SVG 1.1//EN"
 "http://www.w3.org/Graphics/SVG/1.1/DTD/svg11.dtd">
<!-- Generated by graphviz version 13.1.0 (20250701.0955)
 -->
<!-- Pages: 1 -->
<svg width="2102pt" height="1577pt"
 viewBox="0.00 0.00 2102.00 1577.00" xmlns="http://www.w3.org/2000/svg" xmlns:xlink="http://www.w3.org/1999/xlink">
<g id="graph0" class="graph" transform="scale(1 1) rotate(0) translate(4 1573)">
<polygon fill="white" stroke="none" points="-4,4 -4,-1573 2098.22,-1573 2098.22,4 -4,4"/>
<g id="clust1" class="cluster">
<title>cluster_Form</title>
<polygon fill="lightgrey" stroke="lightgrey" points="1249.01,-355 1249.01,-606 1443.46,-606 1443.46,-355 1249.01,-355"/>
<text xml:space="preserve" text-anchor="middle" x="1346.23" y="-588.7" font-family="Times New Roman,serif" font-size="14.00">Form</text>
</g>
<g id="clust2" class="cluster">
<title>cluster_Footwork</title>
<polygon fill="lightgrey" stroke="lightgrey" points="8,-1102 8,-1440 1126.42,-1440 1126.42,-1102 8,-1102"/>
<text xml:space="preserve" text-anchor="middle" x="567.21" y="-1422.7" font-family="Times New Roman,serif" font-size="14.00">Footwork</text>
</g>
<g id="clust3" class="cluster">
<title>cluster_Serve</title>
<polygon fill="lightgrey" stroke="lightgrey" points="935.04,-8 935.04,-172 1447.04,-172 1447.04,-8 935.04,-8"/>
<text xml:space="preserve" text-anchor="middle" x="1191.04" y="-154.7" font-family="Times New Roman,serif" font-size="14.00">Serve</text>
</g>
<g id="clust4" class="cluster">
<title>cluster_Racket Handling</title>
<polygon fill="lightgrey" stroke="lightgrey" points="580.65,-180 580.65,-605 1107.49,-605 1107.49,-180 580.65,-180"/>
<text xml:space="preserve" text-anchor="middle" x="844.07" y="-587.7" font-family="Times New Roman,serif" font-size="14.00">Racket Handling</text>
</g>
<g id="clust5" class="cluster">
<title>cluster_Shot</title>
<polygon fill="lightgrey" stroke="lightgrey" points="1266.92,-614 1266.92,-1561 2086.22,-1561 2086.22,-614 1266.92,-614"/>
<text xml:space="preserve" text-anchor="middle" x="1676.57" y="-1543.7" font-family="Times New Roman,serif" font-size="14.00">Shot</text>
</g>
<!-- Service Return Form -->
<g id="node1" class="node">
<title>Service Return Form</title>
<ellipse fill="none" stroke="black" cx="1346.23" cy="-468" rx="89.23" ry="18"/>
<text xml:space="preserve" text-anchor="middle" x="1346.23" y="-462.95" font-family="Times New Roman,serif" font-size="14.00">Service Return Form</text>
</g>
<!-- Defensive Form -->
<g id="node2" class="node">
<title>Defensive Form</title>
<ellipse fill="none" stroke="black" cx="1346.23" cy="-381" rx="71.31" ry="18"/>
<text xml:space="preserve" text-anchor="middle" x="1346.23" y="-375.95" font-family="Times New Roman,serif" font-size="14.00">Defensive Form</text>
</g>
<!-- Defense Net -->
<g id="node37" class="node">
<title>Defense Net</title>
<ellipse fill="none" stroke="black" cx="1670.43" cy="-814" rx="56.98" ry="18"/>
<text xml:space="preserve" text-anchor="middle" x="1670.43" y="-808.95" font-family="Times New Roman,serif" font-size="14.00">Defense Net</text>
</g>
<!-- Defensive Form&#45;&gt;Defense Net -->
<g id="edge56" class="edge">
<title>Defensive Form&#45;&gt;Defense Net</title>
<path fill="none" stroke="black" d="M1397.01,-394.02C1414.75,-400.78 1433.63,-410.71 1447.04,-425 1559.14,-544.45 1462.44,-651.09 1574.04,-771 1585.3,-783.1 1600.61,-792.03 1615.67,-798.52"/>
<polygon fill="black" stroke="black" points="1614,-801.62 1624.59,-802.07 1616.59,-795.12 1614,-801.62"/>
</g>
<!-- Defense Lift -->
<g id="node44" class="node">
<title>Defense Lift</title>
<ellipse fill="none" stroke="black" cx="1670.43" cy="-727" rx="57.49" ry="18"/>
<text xml:space="preserve" text-anchor="middle" x="1670.43" y="-721.95" font-family="Times New Roman,serif" font-size="14.00">Defense Lift</text>
</g>
<!-- Defensive Form&#45;&gt;Defense Lift -->
<g id="edge54" class="edge">
<title>Defensive Form&#45;&gt;Defense Lift</title>
<path fill="none" stroke="black" d="M1395.22,-394.39C1413.14,-401.26 1432.63,-411.16 1447.04,-425 1539.52,-513.79 1481.93,-594.83 1574.04,-684 1585.92,-695.5 1601.4,-704.26 1616.43,-710.77"/>
<polygon fill="black" stroke="black" points="1614.73,-713.85 1625.31,-714.36 1617.35,-707.36 1614.73,-713.85"/>
</g>
<!-- Aggressive Form -->
<g id="node3" class="node">
<title>Aggressive Form</title>
<ellipse fill="none" stroke="black" cx="1346.23" cy="-555" rx="75.41" ry="18"/>
<text xml:space="preserve" text-anchor="middle" x="1346.23" y="-549.95" font-family="Times New Roman,serif" font-size="14.00">Aggressive Form</text>
</g>
<!-- Backhand Net Kill -->
<g id="node26" class="node">
<title>Backhand Net Kill</title>
<ellipse fill="none" stroke="black" cx="1670.43" cy="-640" rx="80.52" ry="18"/>
<text xml:space="preserve" text-anchor="middle" x="1670.43" y="-634.95" font-family="Times New Roman,serif" font-size="14.00">Backhand Net Kill</text>
</g>
<!-- Aggressive Form&#45;&gt;Backhand Net Kill -->
<g id="edge42" class="edge">
<title>Aggressive Form&#45;&gt;Backhand Net Kill</title>
<path fill="none" stroke="black" d="M1397.93,-568.37C1454.15,-583.21 1544.94,-607.16 1605.87,-623.23"/>
<polygon fill="black" stroke="black" points="1604.86,-626.59 1615.43,-625.75 1606.65,-619.82 1604.86,-626.59"/>
</g>
<!-- Forehand Net Kill -->
<g id="node27" class="node">
<title>Forehand Net Kill</title>
<ellipse fill="none" stroke="black" cx="1670.43" cy="-901" rx="78.48" ry="18"/>
<text xml:space="preserve" text-anchor="middle" x="1670.43" y="-895.95" font-family="Times New Roman,serif" font-size="14.00">Forehand Net Kill</text>
</g>
<!-- Aggressive Form&#45;&gt;Forehand Net Kill -->
<g id="edge40" class="edge">
<title>Aggressive Form&#45;&gt;Forehand Net Kill</title>
<path fill="none" stroke="black" d="M1393.67,-569.34C1412.01,-576.8 1432.2,-587.46 1447.04,-602 1537.76,-690.89 1482.58,-769.87 1574.04,-858 1584.36,-867.95 1597.38,-875.85 1610.46,-882.02"/>
<polygon fill="black" stroke="black" points="1608.96,-885.18 1619.52,-885.99 1611.77,-878.77 1608.96,-885.18"/>
</g>
<!-- Non&#45;Racket Pivot -->
<g id="node4" class="node">
<title>Non&#45;Racket Pivot</title>
<ellipse fill="none" stroke="black" cx="336.79" cy="-1389" rx="77.45" ry="18"/>
<text xml:space="preserve" text-anchor="middle" x="336.79" y="-1383.95" font-family="Times New Roman,serif" font-size="14.00">Non&#45;Racket Pivot</text>
</g>
<!-- Rear Backhand Footwork -->
<g id="node7" class="node">
<title>Rear Backhand Footwork</title>
<ellipse fill="none" stroke="black" cx="669.17" cy="-1389" rx="106.11" ry="18"/>
<text xml:space="preserve" text-anchor="middle" x="669.17" y="-1383.95" font-family="Times New Roman,serif" font-size="14.00">Rear Backhand Footwork</text>
</g>
<!-- Non&#45;Racket Pivot&#45;&gt;Rear Backhand Footwork -->
<g id="edge26" class="edge">
<title>Non&#45;Racket Pivot&#45;&gt;Rear Backhand Footwork</title>
<path fill="none" stroke="black" d="M414.41,-1389C455.1,-1389 505.95,-1389 551.43,-1389"/>
<polygon fill="black" stroke="black" points="551.36,-1392.5 561.36,-1389 551.36,-1385.5 551.36,-1392.5"/>
</g>
<!-- Backhand Footwork -->
<g id="node12" class="node">
<title>Backhand Footwork</title>
<ellipse fill="none" stroke="black" cx="669.17" cy="-1162" rx="86.15" ry="18"/>
<text xml:space="preserve" text-anchor="middle" x="669.17" y="-1156.95" font-family="Times New Roman,serif" font-size="14.00">Backhand Footwork</text>
</g>
<!-- Non&#45;Racket Pivot&#45;&gt;Backhand Footwork -->
<g id="edge23" class="edge">
<title>Non&#45;Racket Pivot&#45;&gt;Backhand Footwork</title>
<path fill="none" stroke="black" d="M378.16,-1373.49C394.4,-1366.32 412.84,-1356.96 428.06,-1346 498.2,-1295.49 491.72,-1254.81 563.06,-1206 577.39,-1196.2 594.25,-1187.94 610.22,-1181.33"/>
<polygon fill="black" stroke="black" points="611.15,-1184.73 619.15,-1177.78 608.56,-1178.22 611.15,-1184.73"/>
</g>
<!-- Directional Split Step -->
<g id="node5" class="node">
<title>Directional Split Step</title>
<ellipse fill="none" stroke="black" cx="336.79" cy="-1128" rx="91.27" ry="18"/>
<text xml:space="preserve" text-anchor="middle" x="336.79" y="-1122.95" font-family="Times New Roman,serif" font-size="14.00">Directional Split Step</text>
</g>
<!-- Directional Split Step&#45;&gt;Aggressive Form -->
<g id="edge13" class="edge">
<title>Directional Split Step&#45;&gt;Aggressive Form</title>
<path fill="none" stroke="black" d="M425.64,-1123.38C608.78,-1112.01 1023.01,-1076.7 1126.42,-986 1261.11,-867.87 1131.86,-737.54 1249.01,-602 1259.38,-590 1273.52,-580.78 1287.77,-573.82"/>
<polygon fill="black" stroke="black" points="1289.06,-577.08 1296.73,-569.77 1286.18,-570.7 1289.06,-577.08"/>
</g>
<!-- Rear Forehand Footwork -->
<g id="node6" class="node">
<title>Rear Forehand Footwork</title>
<ellipse fill="none" stroke="black" cx="1014.36" cy="-1249" rx="104.07" ry="18"/>
<text xml:space="preserve" text-anchor="middle" x="1014.36" y="-1243.95" font-family="Times New Roman,serif" font-size="14.00">Rear Forehand Footwork</text>
</g>
<!-- Clear -->
<g id="node40" class="node">
<title>Clear</title>
<ellipse fill="none" stroke="black" cx="1346.23" cy="-1162" rx="30.88" ry="18"/>
<text xml:space="preserve" text-anchor="middle" x="1346.23" y="-1156.95" font-family="Times New Roman,serif" font-size="14.00">Clear</text>
</g>
<!-- Rear Forehand Footwork&#45;&gt;Clear -->
<g id="edge29" class="edge">
<title>Rear Forehand Footwork&#45;&gt;Clear</title>
<path fill="none" stroke="black" d="M1073.19,-1233.75C1140.41,-1216.02 1249.42,-1187.27 1306.92,-1172.1"/>
<polygon fill="black" stroke="black" points="1307.47,-1175.58 1316.24,-1169.65 1305.68,-1168.81 1307.47,-1175.58"/>
</g>
<!-- Round The Head Clear -->
<g id="node31" class="node">
<title>Round The Head Clear</title>
<ellipse fill="none" stroke="black" cx="1670.43" cy="-1336" rx="96.39" ry="18"/>
<text xml:space="preserve" text-anchor="middle" x="1670.43" y="-1330.95" font-family="Times New Roman,serif" font-size="14.00">Round The Head Clear</text>
</g>
<!-- Rear Backhand Footwork&#45;&gt;Round The Head Clear -->
<g id="edge32" class="edge">
<title>Rear Backhand Footwork&#45;&gt;Round The Head Clear</title>
<path fill="none" stroke="black" d="M715.2,-1405.6C836.5,-1447.78 1179.01,-1550 1447.04,-1467 1512.4,-1446.76 1514.54,-1413.78 1574.04,-1380 1588.21,-1371.96 1604.1,-1364.17 1618.79,-1357.44"/>
<polygon fill="black" stroke="black" points="1620.17,-1360.66 1627.85,-1353.36 1617.3,-1354.27 1620.17,-1360.66"/>
</g>
<!-- Forehand Footwork -->
<g id="node8" class="node">
<title>Forehand Footwork</title>
<ellipse fill="none" stroke="black" cx="1014.36" cy="-1336" rx="84.11" ry="18"/>
<text xml:space="preserve" text-anchor="middle" x="1014.36" y="-1330.95" font-family="Times New Roman,serif" font-size="14.00">Forehand Footwork</text>
</g>
<!-- Forehand Net -->
<g id="node39" class="node">
<title>Forehand Net</title>
<ellipse fill="none" stroke="black" cx="1346.23" cy="-1423" rx="61.59" ry="18"/>
<text xml:space="preserve" text-anchor="middle" x="1346.23" y="-1417.95" font-family="Times New Roman,serif" font-size="14.00">Forehand Net</text>
</g>
<!-- Forehand Footwork&#45;&gt;Forehand Net -->
<g id="edge44" class="edge">
<title>Forehand Footwork&#45;&gt;Forehand Net</title>
<path fill="none" stroke="black" d="M1068.72,-1350.07C1128.98,-1365.97 1226.63,-1391.72 1288.31,-1407.99"/>
<polygon fill="black" stroke="black" points="1287.36,-1411.36 1297.93,-1410.52 1289.15,-1404.59 1287.36,-1411.36"/>
</g>
<!-- Forehand Lift -->
<g id="node47" class="node">
<title>Forehand Lift</title>
<ellipse fill="none" stroke="black" cx="1346.23" cy="-1336" rx="62.1" ry="18"/>
<text xml:space="preserve" text-anchor="middle" x="1346.23" y="-1330.95" font-family="Times New Roman,serif" font-size="14.00">Forehand Lift</text>
</g>
<!-- Forehand Footwork&#45;&gt;Forehand Lift -->
<g id="edge27" class="edge">
<title>Forehand Footwork&#45;&gt;Forehand Lift</title>
<path fill="none" stroke="black" d="M1098.6,-1336C1152.19,-1336 1221.17,-1336 1272.54,-1336"/>
<polygon fill="black" stroke="black" points="1272.37,-1339.5 1282.37,-1336 1272.37,-1332.5 1272.37,-1339.5"/>
</g>
<!-- Split Step -->
<g id="node9" class="node">
<title>Split Step</title>
<ellipse fill="none" stroke="black" cx="63.26" cy="-1215" rx="47.26" ry="18"/>
<text xml:space="preserve" text-anchor="middle" x="63.26" y="-1209.95" font-family="Times New Roman,serif" font-size="14.00">Split Step</text>
</g>
<!-- Split Step&#45;&gt;Service Return Form -->
<g id="edge9" class="edge">
<title>Split Step&#45;&gt;Service Return Form</title>
<path fill="none" stroke="black" d="M670.17,-948C900.82,-898.74 951.29,-834.97 1126.42,-677 1194.26,-615.81 1177.99,-569.47 1249.01,-512 1260.73,-502.52 1274.82,-494.59 1288.57,-488.2"/>
<polygon fill="black" stroke="black" points="1289.84,-491.46 1297.58,-484.22 1287.02,-485.06 1289.84,-491.46"/>
</g>
<!-- Split Step&#45;&gt;Defensive Form -->
<g id="edge11" class="edge">
<title>Split Step&#45;&gt;Defensive Form</title>
<path fill="none" stroke="black" d="M670.17,-948C826.06,-898.35 772.16,-756.66 910.29,-669 994.46,-615.58 1045.69,-667.49 1126.42,-609 1206,-551.35 1174.23,-488.75 1249.01,-425 1261.15,-414.64 1276.14,-406.25 1290.65,-399.67"/>
<polygon fill="black" stroke="black" points="1291.87,-402.96 1299.68,-395.8 1289.11,-396.52 1291.87,-402.96"/>
<path fill="none" stroke="black" d="M83.34,-1198.22C115.03,-1171.1 181.4,-1117.39 245.51,-1085 421.77,-995.95 480.02,-1007.93 668.17,-948"/>
</g>
<!-- Split Step&#45;&gt;Non&#45;Racket Pivot -->
<g id="edge18" class="edge">
<title>Split Step&#45;&gt;Non&#45;Racket Pivot</title>
<path fill="none" stroke="black" d="M84.36,-1231.4C116.95,-1257.55 183.9,-1309.47 245.51,-1346 258.96,-1353.97 274.12,-1361.66 288.11,-1368.27"/>
<polygon fill="black" stroke="black" points="286.63,-1371.44 297.17,-1372.47 289.57,-1365.09 286.63,-1371.44"/>
</g>
<!-- Split Step&#45;&gt;Directional Split Step -->
<g id="edge19" class="edge">
<title>Split Step&#45;&gt;Directional Split Step</title>
<path fill="none" stroke="black" d="M100.31,-1203.45C145.39,-1189 223.15,-1164.09 276.91,-1146.86"/>
<polygon fill="black" stroke="black" points="277.77,-1150.26 286.22,-1143.88 275.63,-1143.6 277.77,-1150.26"/>
</g>
<!-- Lunge -->
<g id="node11" class="node">
<title>Lunge</title>
<ellipse fill="none" stroke="black" cx="336.79" cy="-1302" rx="34.46" ry="18"/>
<text xml:space="preserve" text-anchor="middle" x="336.79" y="-1296.95" font-family="Times New Roman,serif" font-size="14.00">Lunge</text>
</g>
<!-- Split Step&#45;&gt;Lunge -->
<g id="edge15" class="edge">
<title>Split Step&#45;&gt;Lunge</title>
<path fill="none" stroke="black" d="M100.31,-1226.55C150.98,-1242.79 242.94,-1272.25 295.7,-1289.16"/>
<polygon fill="black" stroke="black" points="294.62,-1292.48 305.21,-1292.2 296.75,-1285.82 294.62,-1292.48"/>
</g>
<!-- Chasse -->
<g id="node13" class="node">
<title>Chasse</title>
<ellipse fill="none" stroke="black" cx="336.79" cy="-1215" rx="37.02" ry="18"/>
<text xml:space="preserve" text-anchor="middle" x="336.79" y="-1209.95" font-family="Times New Roman,serif" font-size="14.00">Chasse</text>
</g>
<!-- Split Step&#45;&gt;Chasse -->
<g id="edge16" class="edge">
<title>Split Step&#45;&gt;Chasse</title>
<path fill="none" stroke="black" d="M110.93,-1215C160.35,-1215 237.95,-1215 287.84,-1215"/>
<polygon fill="black" stroke="black" points="287.76,-1218.5 297.76,-1215 287.76,-1211.5 287.76,-1218.5"/>
</g>
<!-- Back Crossover -->
<g id="node10" class="node">
<title>Back Crossover</title>
<ellipse fill="none" stroke="black" cx="669.17" cy="-1249" rx="69.78" ry="18"/>
<text xml:space="preserve" text-anchor="middle" x="669.17" y="-1243.95" font-family="Times New Roman,serif" font-size="14.00">Back Crossover</text>
</g>
<!-- Back Crossover&#45;&gt;Rear Forehand Footwork -->
<g id="edge25" class="edge">
<title>Back Crossover&#45;&gt;Rear Forehand Footwork</title>
<path fill="none" stroke="black" d="M739.21,-1249C784.8,-1249 845.64,-1249 898.42,-1249"/>
<polygon fill="black" stroke="black" points="898.39,-1252.5 908.39,-1249 898.39,-1245.5 898.39,-1252.5"/>
</g>
<!-- Back Crossover&#45;&gt;Forehand Footwork -->
<g id="edge20" class="edge">
<title>Back Crossover&#45;&gt;Forehand Footwork</title>
<path fill="none" stroke="black" d="M720.08,-1261.65C780.21,-1276.9 881.43,-1302.56 947.82,-1319.39"/>
<polygon fill="black" stroke="black" points="946.55,-1322.67 957.1,-1321.74 948.27,-1315.89 946.55,-1322.67"/>
</g>
<!-- Lunge&#45;&gt;Forehand Footwork -->
<g id="edge21" class="edge">
<title>Lunge&#45;&gt;Forehand Footwork</title>
<path fill="none" stroke="black" d="M371.29,-1303.69C470.96,-1308.7 768.17,-1323.66 920.74,-1331.34"/>
<polygon fill="black" stroke="black" points="920.24,-1334.82 930.4,-1331.82 920.59,-1327.83 920.24,-1334.82"/>
</g>
<!-- Lunge&#45;&gt;Backhand Footwork -->
<g id="edge24" class="edge">
<title>Lunge&#45;&gt;Backhand Footwork</title>
<path fill="none" stroke="black" d="M364.12,-1290.71C406.15,-1272.71 491,-1236.44 563.06,-1206 581.17,-1198.35 601.06,-1190.01 618.62,-1182.67"/>
<polygon fill="black" stroke="black" points="619.94,-1185.91 627.82,-1178.82 617.24,-1179.45 619.94,-1185.91"/>
</g>
<!-- Backhand Net -->
<g id="node32" class="node">
<title>Backhand Net</title>
<ellipse fill="none" stroke="black" cx="1346.23" cy="-1249" rx="63.63" ry="18"/>
<text xml:space="preserve" text-anchor="middle" x="1346.23" y="-1243.95" font-family="Times New Roman,serif" font-size="14.00">Backhand Net</text>
</g>
<!-- Backhand Footwork&#45;&gt;Backhand Net -->
<g id="edge45" class="edge">
<title>Backhand Footwork&#45;&gt;Backhand Net</title>
<path fill="none" stroke="black" d="M1015.36,-1154C1070.27,-1144.64 1220.91,-1199.62 1298.17,-1229.95"/>
<polygon fill="black" stroke="black" points="1296.58,-1233.09 1307.16,-1233.51 1299.15,-1226.58 1296.58,-1233.09"/>
</g>
<!-- Backhand Lift -->
<g id="node38" class="node">
<title>Backhand Lift</title>
<ellipse fill="none" stroke="black" cx="1346.23" cy="-814" rx="64.15" ry="18"/>
<text xml:space="preserve" text-anchor="middle" x="1346.23" y="-808.95" font-family="Times New Roman,serif" font-size="14.00">Backhand Lift</text>
</g>
<!-- Backhand Footwork&#45;&gt;Backhand Lift -->
<g id="edge28" class="edge">
<title>Backhand Footwork&#45;&gt;Backhand Lift</title>
<path fill="none" stroke="black" d="M752.64,-1166.75C822.56,-1169.19 925.23,-1169.03 1013.36,-1154"/>
<path fill="none" stroke="black" d="M1015.36,-1154C1071.74,-1144.39 1086.83,-1130.28 1126.42,-1089 1206.88,-1005.12 1164.43,-937.72 1249.01,-858 1260.95,-846.74 1276.29,-837.98 1291.19,-831.34"/>
<polygon fill="black" stroke="black" points="1292.11,-834.75 1299.99,-827.67 1289.41,-828.29 1292.11,-834.75"/>
</g>
<!-- Backhand Clear -->
<g id="node42" class="node">
<title>Backhand Clear</title>
<ellipse fill="none" stroke="black" cx="1346.23" cy="-1075" rx="70.29" ry="18"/>
<text xml:space="preserve" text-anchor="middle" x="1346.23" y="-1069.95" font-family="Times New Roman,serif" font-size="14.00">Backhand Clear</text>
</g>
<!-- Backhand Footwork&#45;&gt;Backhand Clear -->
<g id="edge33" class="edge">
<title>Backhand Footwork&#45;&gt;Backhand Clear</title>
<path fill="none" stroke="black" d="M1015.36,-1154C1111.53,-1137.6 1221.37,-1109.34 1286.92,-1091.44"/>
<polygon fill="black" stroke="black" points="1287.66,-1094.87 1296.38,-1088.84 1285.81,-1088.12 1287.66,-1094.87"/>
</g>
<!-- Chasse&#45;&gt;Back Crossover -->
<g id="edge17" class="edge">
<title>Chasse&#45;&gt;Back Crossover</title>
<path fill="none" stroke="black" d="M373.46,-1218.67C425.62,-1224.04 523.94,-1234.16 592.62,-1241.22"/>
<polygon fill="black" stroke="black" points="591.99,-1244.68 602.3,-1242.22 592.71,-1237.72 591.99,-1244.68"/>
</g>
<!-- Chasse&#45;&gt;Backhand Footwork -->
<g id="edge22" class="edge">
<title>Chasse&#45;&gt;Backhand Footwork</title>
<path fill="none" stroke="black" d="M372.52,-1209.43C423.37,-1201.27 519.49,-1185.85 588.34,-1174.81"/>
<polygon fill="black" stroke="black" points="588.76,-1178.28 598.08,-1173.24 587.65,-1171.37 588.76,-1178.28"/>
</g>
<!-- Backhand Serve -->
<g id="node14" class="node">
<title>Backhand Serve</title>
<ellipse fill="none" stroke="black" cx="1014.36" cy="-34" rx="71.31" ry="18"/>
<text xml:space="preserve" text-anchor="middle" x="1014.36" y="-28.95" font-family="Times New Roman,serif" font-size="14.00">Backhand Serve</text>
</g>
<!-- Backhand Flick Serve -->
<g id="node16" class="node">
<title>Backhand Flick Serve</title>
<ellipse fill="none" stroke="black" cx="1346.23" cy="-77" rx="92.81" ry="18"/>
<text xml:space="preserve" text-anchor="middle" x="1346.23" y="-71.95" font-family="Times New Roman,serif" font-size="14.00">Backhand Flick Serve</text>
</g>
<!-- Backhand Serve&#45;&gt;Backhand Flick Serve -->
<g id="edge59" class="edge">
<title>Backhand Serve&#45;&gt;Backhand Flick Serve</title>
<path fill="none" stroke="black" d="M1078.57,-42.24C1129.06,-48.82 1200.42,-58.12 1256.62,-65.45"/>
<polygon fill="black" stroke="black" points="1256.14,-68.92 1266.51,-66.74 1257.04,-61.97 1256.14,-68.92"/>
</g>
<!-- Forehand Serve -->
<g id="node15" class="node">
<title>Forehand Serve</title>
<ellipse fill="none" stroke="black" cx="1014.36" cy="-121" rx="69.26" ry="18"/>
<text xml:space="preserve" text-anchor="middle" x="1014.36" y="-115.95" font-family="Times New Roman,serif" font-size="14.00">Forehand Serve</text>
</g>
<!-- Forearm Pronation -->
<g id="node17" class="node">
<title>Forearm Pronation</title>
<ellipse fill="none" stroke="black" cx="1014.36" cy="-544" rx="81.04" ry="18"/>
<text xml:space="preserve" text-anchor="middle" x="1014.36" y="-538.95" font-family="Times New Roman,serif" font-size="14.00">Forearm Pronation</text>
</g>
<!-- Forearm Pronation&#45;&gt;Clear -->
<g id="edge30" class="edge">
<title>Forearm Pronation&#45;&gt;Clear</title>
<path fill="none" stroke="black" d="M1017.79,-562.37C1029.02,-640.21 1082.59,-946.78 1249.01,-1119 1264.42,-1134.95 1286.81,-1145.44 1306.11,-1152.06"/>
<polygon fill="black" stroke="black" points="1305.01,-1155.38 1315.6,-1155.06 1307.13,-1148.71 1305.01,-1155.38"/>
</g>
<!-- Grip Switch -->
<g id="node18" class="node">
<title>Grip Switch</title>
<ellipse fill="none" stroke="black" cx="1014.36" cy="-457" rx="55.96" ry="18"/>
<text xml:space="preserve" text-anchor="middle" x="1014.36" y="-451.95" font-family="Times New Roman,serif" font-size="14.00">Grip Switch</text>
</g>
<!-- Grip Switch&#45;&gt;Service Return Form -->
<g id="edge10" class="edge">
<title>Grip Switch&#45;&gt;Service Return Form</title>
<path fill="none" stroke="black" d="M1070.2,-458.83C1118.03,-460.42 1188.6,-462.78 1246.28,-464.7"/>
<polygon fill="black" stroke="black" points="1246.01,-468.19 1256.12,-465.03 1246.24,-461.2 1246.01,-468.19"/>
</g>
<!-- Grip Switch&#45;&gt;Defensive Form -->
<g id="edge12" class="edge">
<title>Grip Switch&#45;&gt;Defensive Form</title>
<path fill="none" stroke="black" d="M1060.53,-446.59C1117.75,-433.41 1216.67,-410.62 1281.54,-395.67"/>
<polygon fill="black" stroke="black" points="1282,-399.16 1290.96,-393.5 1280.43,-392.34 1282,-399.16"/>
</g>
<!-- Grip Switch&#45;&gt;Aggressive Form -->
<g id="edge14" class="edge">
<title>Grip Switch&#45;&gt;Aggressive Form</title>
<path fill="none" stroke="black" d="M1056.47,-469.21C1114.55,-486.47 1220.9,-518.06 1287.06,-537.72"/>
<polygon fill="black" stroke="black" points="1285.69,-540.96 1296.27,-540.46 1287.68,-534.25 1285.69,-540.96"/>
</g>
<!-- Finger Squeeze -->
<g id="node19" class="node">
<title>Finger Squeeze</title>
<ellipse fill="none" stroke="black" cx="669.17" cy="-467" rx="68.24" ry="18"/>
<text xml:space="preserve" text-anchor="middle" x="669.17" y="-461.95" font-family="Times New Roman,serif" font-size="14.00">Finger Squeeze</text>
</g>
<!-- Finger Squeeze&#45;&gt;Forearm Pronation -->
<g id="edge4" class="edge">
<title>Finger Squeeze&#45;&gt;Forearm Pronation</title>
<path fill="none" stroke="black" d="M722.3,-478.69C781.85,-492.06 879.53,-513.97 945.11,-528.69"/>
<polygon fill="black" stroke="black" points="944.16,-532.06 954.68,-530.83 945.69,-525.23 944.16,-532.06"/>
</g>
<!-- Forearm Supination -->
<g id="node23" class="node">
<title>Forearm Supination</title>
<ellipse fill="none" stroke="black" cx="1014.36" cy="-331" rx="85.13" ry="18"/>
<text xml:space="preserve" text-anchor="middle" x="1014.36" y="-325.95" font-family="Times New Roman,serif" font-size="14.00">Forearm Supination</text>
</g>
<!-- Finger Squeeze&#45;&gt;Forearm Supination -->
<g id="edge8" class="edge">
<title>Finger Squeeze&#45;&gt;Forearm Supination</title>
<path fill="none" stroke="black" d="M708.21,-451.93C770.08,-427.41 892.58,-378.86 962.08,-351.32"/>
<polygon fill="black" stroke="black" points="963.34,-354.58 971.35,-347.65 960.77,-348.08 963.34,-354.58"/>
</g>
<!-- Panhandle Grip -->
<g id="node20" class="node">
<title>Panhandle Grip</title>
<ellipse fill="none" stroke="black" cx="669.17" cy="-293" rx="68.75" ry="18"/>
<text xml:space="preserve" text-anchor="middle" x="669.17" y="-287.95" font-family="Times New Roman,serif" font-size="14.00">Panhandle Grip</text>
</g>
<!-- Panhandle Grip&#45;&gt;Forearm Supination -->
<g id="edge7" class="edge">
<title>Panhandle Grip&#45;&gt;Forearm Supination</title>
<path fill="none" stroke="black" d="M733.12,-299.97C787.47,-305.99 866.54,-314.74 926.84,-321.42"/>
<polygon fill="black" stroke="black" points="926.42,-324.9 936.74,-322.52 927.19,-317.94 926.42,-324.9"/>
</g>
<!-- Backhand Grip -->
<g id="node21" class="node">
<title>Backhand Grip</title>
<ellipse fill="none" stroke="black" cx="669.17" cy="-380" rx="67.22" ry="18"/>
<text xml:space="preserve" text-anchor="middle" x="669.17" y="-374.95" font-family="Times New Roman,serif" font-size="14.00">Backhand Grip</text>
</g>
<!-- Backhand Grip&#45;&gt;Backhand Serve -->
<g id="edge58" class="edge">
<title>Backhand Grip&#45;&gt;Backhand Serve</title>
<path fill="none" stroke="black" d="M719.72,-367.72C738.79,-361.07 759.71,-351.23 775.29,-337 871.43,-249.2 814.45,-165.14 910.29,-77 922.41,-65.86 937.82,-57.37 953.02,-51.02"/>
<polygon fill="black" stroke="black" points="954,-54.39 962.05,-47.49 951.46,-47.87 954,-54.39"/>
</g>
<!-- Backhand Grip&#45;&gt;Grip Switch -->
<g id="edge2" class="edge">
<title>Backhand Grip&#45;&gt;Grip Switch</title>
<path fill="none" stroke="black" d="M721.55,-391.53C784.65,-405.69 891.35,-429.62 956.75,-444.3"/>
<polygon fill="black" stroke="black" points="955.67,-447.64 966.2,-446.42 957.2,-440.81 955.67,-447.64"/>
</g>
<!-- Backhand Grip&#45;&gt;Forearm Supination -->
<g id="edge5" class="edge">
<title>Backhand Grip&#45;&gt;Forearm Supination</title>
<path fill="none" stroke="black" d="M729.17,-371.58C784.92,-363.62 869.05,-351.6 931.32,-342.71"/>
<polygon fill="black" stroke="black" points="931.78,-346.18 941.19,-341.3 930.79,-339.25 931.78,-346.18"/>
</g>
<!-- Backhand Drive -->
<g id="node25" class="node">
<title>Backhand Drive</title>
<ellipse fill="none" stroke="black" cx="1346.23" cy="-685" rx="71.31" ry="18"/>
<text xml:space="preserve" text-anchor="middle" x="1346.23" y="-679.95" font-family="Times New Roman,serif" font-size="14.00">Backhand Drive</text>
</g>
<!-- Backhand Grip&#45;&gt;Backhand Drive -->
<g id="edge53" class="edge">
<title>Backhand Grip&#45;&gt;Backhand Drive</title>
<path fill="none" stroke="black" d="M715.39,-393.46C734.96,-400.62 757.43,-410.72 775.29,-424 851.05,-480.32 829.84,-538.59 910.29,-588 1020.14,-655.46 1171.25,-676.2 1263.37,-682.45"/>
<polygon fill="black" stroke="black" points="1263.15,-685.95 1273.35,-683.09 1263.59,-678.96 1263.15,-685.95"/>
</g>
<!-- Bevel Grip -->
<g id="node22" class="node">
<title>Bevel Grip</title>
<ellipse fill="none" stroke="black" cx="669.17" cy="-206" rx="51.86" ry="18"/>
<text xml:space="preserve" text-anchor="middle" x="669.17" y="-200.95" font-family="Times New Roman,serif" font-size="14.00">Bevel Grip</text>
</g>
<!-- Bevel Grip&#45;&gt;Forearm Supination -->
<g id="edge6" class="edge">
<title>Bevel Grip&#45;&gt;Forearm Supination</title>
<path fill="none" stroke="black" d="M705.93,-219.02C766.35,-241.03 888.96,-285.69 959.72,-311.46"/>
<polygon fill="black" stroke="black" points="958.17,-314.63 968.77,-314.76 960.57,-308.05 958.17,-314.63"/>
</g>
<!-- Forearm Supination&#45;&gt;Backhand Flick Serve -->
<g id="edge60" class="edge">
<title>Forearm Supination&#45;&gt;Backhand Flick Serve</title>
<path fill="none" stroke="black" d="M1038.29,-313.34C1096.06,-268.86 1247.66,-152.13 1313.72,-101.27"/>
<polygon fill="black" stroke="black" points="1315.46,-104.34 1321.25,-95.47 1311.19,-98.79 1315.46,-104.34"/>
</g>
<!-- Forearm Supination&#45;&gt;Backhand Clear -->
<g id="edge34" class="edge">
<title>Forearm Supination&#45;&gt;Backhand Clear</title>
<path fill="none" stroke="black" d="M1049.14,-347.79C1074.26,-362.02 1107.36,-384.76 1126.42,-414 1258.74,-616.87 1147.59,-725.05 1249.01,-945 1267.23,-984.52 1298.65,-1023.83 1320.61,-1048.7"/>
<polygon fill="black" stroke="black" points="1317.94,-1050.96 1327.22,-1056.06 1323.14,-1046.28 1317.94,-1050.96"/>
</g>
<!-- Forehand (V) Grip -->
<g id="node24" class="node">
<title>Forehand (V) Grip</title>
<ellipse fill="none" stroke="black" cx="669.17" cy="-554" rx="80.52" ry="18"/>
<text xml:space="preserve" text-anchor="middle" x="669.17" y="-548.95" font-family="Times New Roman,serif" font-size="14.00">Forehand (V) Grip</text>
</g>
<!-- Forehand (V) Grip&#45;&gt;Forehand Serve -->
<g id="edge61" class="edge">
<title>Forehand (V) Grip&#45;&gt;Forehand Serve</title>
<path fill="none" stroke="black" d="M725.36,-540.8C743.13,-534.28 761.72,-524.75 775.29,-511 890.36,-394.39 797.55,-286.87 910.29,-168 922.5,-155.12 938.91,-145.49 955.04,-138.4"/>
<polygon fill="black" stroke="black" points="956.22,-141.7 964.15,-134.68 953.57,-135.22 956.22,-141.7"/>
</g>
<!-- Forehand (V) Grip&#45;&gt;Forearm Pronation -->
<g id="edge3" class="edge">
<title>Forehand (V) Grip&#45;&gt;Forearm Pronation</title>
<path fill="none" stroke="black" d="M749.34,-551.69C800.99,-550.19 868.57,-548.22 922.43,-546.65"/>
<polygon fill="black" stroke="black" points="922.29,-550.16 932.19,-546.37 922.09,-543.16 922.29,-550.16"/>
</g>
<!-- Forehand (V) Grip&#45;&gt;Grip Switch -->
<g id="edge1" class="edge">
<title>Forehand (V) Grip&#45;&gt;Grip Switch</title>
<path fill="none" stroke="black" d="M720.44,-539.79C784.59,-521.66 895.06,-490.44 960.45,-471.95"/>
<polygon fill="black" stroke="black" points="961.2,-475.38 969.87,-469.29 959.3,-468.64 961.2,-475.38"/>
</g>
<!-- Forehand Drive -->
<g id="node48" class="node">
<title>Forehand Drive</title>
<ellipse fill="none" stroke="black" cx="1346.23" cy="-901" rx="69.26" ry="18"/>
<text xml:space="preserve" text-anchor="middle" x="1346.23" y="-895.95" font-family="Times New Roman,serif" font-size="14.00">Forehand Drive</text>
</g>
<!-- Forehand (V) Grip&#45;&gt;Forehand Drive -->
<g id="edge52" class="edge">
<title>Forehand (V) Grip&#45;&gt;Forehand Drive</title>
<path fill="none" stroke="black" d="M700.88,-571.01C786.64,-618.32 1036.36,-754.77 1249.01,-858 1265.08,-865.8 1282.88,-873.9 1298.76,-880.95"/>
<polygon fill="black" stroke="black" points="1296.94,-883.97 1307.5,-884.8 1299.76,-877.56 1296.94,-883.97"/>
</g>
<!-- Backhand Drive&#45;&gt;Backhand Net Kill -->
<g id="edge43" class="edge">
<title>Backhand Drive&#45;&gt;Backhand Net Kill</title>
<path fill="none" stroke="black" d="M1409.35,-676.32C1460.76,-669.14 1534.13,-658.9 1589.84,-651.12"/>
<polygon fill="black" stroke="black" points="1590.17,-654.6 1599.59,-649.75 1589.2,-647.67 1590.17,-654.6"/>
</g>
<!-- Backhand Net Brush -->
<g id="node43" class="node">
<title>Backhand Net Brush</title>
<ellipse fill="none" stroke="black" cx="1990.02" cy="-640" rx="88.2" ry="18"/>
<text xml:space="preserve" text-anchor="middle" x="1990.02" y="-634.95" font-family="Times New Roman,serif" font-size="14.00">Backhand Net Brush</text>
</g>
<!-- Backhand Net Kill&#45;&gt;Backhand Net Brush -->
<g id="edge49" class="edge">
<title>Backhand Net Kill&#45;&gt;Backhand Net Brush</title>
<path fill="none" stroke="black" d="M1751.16,-640C1793.25,-640 1845.29,-640 1889.95,-640"/>
<polygon fill="black" stroke="black" points="1889.92,-643.5 1899.92,-640 1889.92,-636.5 1889.92,-643.5"/>
</g>
<!-- Forehand Net Brush -->
<g id="node41" class="node">
<title>Forehand Net Brush</title>
<ellipse fill="none" stroke="black" cx="1990.02" cy="-901" rx="86.15" ry="18"/>
<text xml:space="preserve" text-anchor="middle" x="1990.02" y="-895.95" font-family="Times New Roman,serif" font-size="14.00">Forehand Net Brush</text>
</g>
<!-- Forehand Net Kill&#45;&gt;Forehand Net Brush -->
<g id="edge48" class="edge">
<title>Forehand Net Kill&#45;&gt;Forehand Net Brush</title>
<path fill="none" stroke="black" d="M1749.12,-901C1792.21,-901 1846.18,-901 1892.02,-901"/>
<polygon fill="black" stroke="black" points="1891.97,-904.5 1901.97,-901 1891.97,-897.5 1891.97,-904.5"/>
</g>
<!-- Backhand Smash -->
<g id="node28" class="node">
<title>Backhand Smash</title>
<ellipse fill="none" stroke="black" cx="1670.43" cy="-1075" rx="75.41" ry="18"/>
<text xml:space="preserve" text-anchor="middle" x="1670.43" y="-1069.95" font-family="Times New Roman,serif" font-size="14.00">Backhand Smash</text>
</g>
<!-- Jump Smash -->
<g id="node29" class="node">
<title>Jump Smash</title>
<ellipse fill="none" stroke="black" cx="1990.02" cy="-1075" rx="59.03" ry="18"/>
<text xml:space="preserve" text-anchor="middle" x="1990.02" y="-1069.95" font-family="Times New Roman,serif" font-size="14.00">Jump Smash</text>
</g>
<!-- Backhand Drop -->
<g id="node30" class="node">
<title>Backhand Drop</title>
<ellipse fill="none" stroke="black" cx="1670.43" cy="-988" rx="69.26" ry="18"/>
<text xml:space="preserve" text-anchor="middle" x="1670.43" y="-982.95" font-family="Times New Roman,serif" font-size="14.00">Backhand Drop</text>
</g>
<!-- Backhand Net Spin -->
<g id="node46" class="node">
<title>Backhand Net Spin</title>
<ellipse fill="none" stroke="black" cx="1670.43" cy="-1423" rx="83.08" ry="18"/>
<text xml:space="preserve" text-anchor="middle" x="1670.43" y="-1417.95" font-family="Times New Roman,serif" font-size="14.00">Backhand Net Spin</text>
</g>
<!-- Backhand Net&#45;&gt;Backhand Net Spin -->
<g id="edge47" class="edge">
<title>Backhand Net&#45;&gt;Backhand Net Spin</title>
<path fill="none" stroke="black" d="M1385,-1263.7C1404.01,-1271.59 1427.18,-1281.95 1447.04,-1293 1506.82,-1326.28 1514.4,-1346.48 1574.04,-1380 1588.31,-1388.02 1604.36,-1395.72 1619.16,-1402.34"/>
<polygon fill="black" stroke="black" points="1617.72,-1405.53 1628.29,-1406.34 1620.54,-1399.12 1617.72,-1405.53"/>
</g>
<!-- Forehand Drop -->
<g id="node33" class="node">
<title>Forehand Drop</title>
<ellipse fill="none" stroke="black" cx="1670.43" cy="-1249" rx="67.22" ry="18"/>
<text xml:space="preserve" text-anchor="middle" x="1670.43" y="-1243.95" font-family="Times New Roman,serif" font-size="14.00">Forehand Drop</text>
</g>
<!-- Overhead Smash -->
<g id="node34" class="node">
<title>Overhead Smash</title>
<ellipse fill="none" stroke="black" cx="1670.43" cy="-1162" rx="74.38" ry="18"/>
<text xml:space="preserve" text-anchor="middle" x="1670.43" y="-1156.95" font-family="Times New Roman,serif" font-size="14.00">Overhead Smash</text>
</g>
<!-- Overhead Smash&#45;&gt;Jump Smash -->
<g id="edge39" class="edge">
<title>Overhead Smash&#45;&gt;Jump Smash</title>
<path fill="none" stroke="black" d="M1721.05,-1148.41C1779.03,-1132.52 1874.63,-1106.34 1934.6,-1089.91"/>
<polygon fill="black" stroke="black" points="1935.18,-1093.38 1943.9,-1087.36 1933.33,-1086.63 1935.18,-1093.38"/>
</g>
<!-- Scissor Kick Smash -->
<g id="node36" class="node">
<title>Scissor Kick Smash</title>
<ellipse fill="none" stroke="black" cx="1990.02" cy="-1162" rx="85.64" ry="18"/>
<text xml:space="preserve" text-anchor="middle" x="1990.02" y="-1156.95" font-family="Times New Roman,serif" font-size="14.00">Scissor Kick Smash</text>
</g>
<!-- Overhead Smash&#45;&gt;Scissor Kick Smash -->
<g id="edge37" class="edge">
<title>Overhead Smash&#45;&gt;Scissor Kick Smash</title>
<path fill="none" stroke="black" d="M1745.09,-1162C1789.03,-1162 1845.31,-1162 1892.74,-1162"/>
<polygon fill="black" stroke="black" points="1892.45,-1165.5 1902.45,-1162 1892.45,-1158.5 1892.45,-1165.5"/>
</g>
<!-- Jump Out Smash -->
<g id="node45" class="node">
<title>Jump Out Smash</title>
<ellipse fill="none" stroke="black" cx="1990.02" cy="-1249" rx="75.41" ry="18"/>
<text xml:space="preserve" text-anchor="middle" x="1990.02" y="-1243.95" font-family="Times New Roman,serif" font-size="14.00">Jump Out Smash</text>
</g>
<!-- Overhead Smash&#45;&gt;Jump Out Smash -->
<g id="edge38" class="edge">
<title>Overhead Smash&#45;&gt;Jump Out Smash</title>
<path fill="none" stroke="black" d="M1721.05,-1175.59C1777.06,-1190.94 1868.18,-1215.9 1928.36,-1232.38"/>
<polygon fill="black" stroke="black" points="1927.19,-1235.69 1937.76,-1234.96 1929.04,-1228.94 1927.19,-1235.69"/>
</g>
<!-- Forehand Net Spin -->
<g id="node35" class="node">
<title>Forehand Net Spin</title>
<ellipse fill="none" stroke="black" cx="1670.43" cy="-1510" rx="81.04" ry="18"/>
<text xml:space="preserve" text-anchor="middle" x="1670.43" y="-1504.95" font-family="Times New Roman,serif" font-size="14.00">Forehand Net Spin</text>
</g>
<!-- Backhand Lift&#45;&gt;Defense Net -->
<g id="edge57" class="edge">
<title>Backhand Lift&#45;&gt;Defense Net</title>
<path fill="none" stroke="black" d="M1410.5,-814C1465.63,-814 1545.34,-814 1601.73,-814"/>
<polygon fill="black" stroke="black" points="1601.53,-817.5 1611.53,-814 1601.53,-810.5 1601.53,-817.5"/>
</g>
<!-- Backhand Lift&#45;&gt;Defense Lift -->
<g id="edge55" class="edge">
<title>Backhand Lift&#45;&gt;Defense Lift</title>
<path fill="none" stroke="black" d="M1393.39,-801.54C1452,-785.71 1552.94,-758.46 1615.16,-741.65"/>
<polygon fill="black" stroke="black" points="1615.73,-745.13 1624.47,-739.14 1613.9,-738.37 1615.73,-745.13"/>
</g>
<!-- Forehand Net&#45;&gt;Forehand Net Spin -->
<g id="edge46" class="edge">
<title>Forehand Net&#45;&gt;Forehand Net Spin</title>
<path fill="none" stroke="black" d="M1392.37,-1435.19C1448.17,-1450.25 1543.44,-1475.98 1606.42,-1492.99"/>
<polygon fill="black" stroke="black" points="1605.37,-1496.33 1615.94,-1495.56 1607.19,-1489.57 1605.37,-1496.33"/>
</g>
<!-- Clear&#45;&gt;Round The Head Clear -->
<g id="edge31" class="edge">
<title>Clear&#45;&gt;Round The Head Clear</title>
<path fill="none" stroke="black" d="M1372.46,-1171.61C1393.02,-1179.79 1422.55,-1192.37 1447.04,-1206 1506.82,-1239.28 1514.4,-1259.48 1574.04,-1293 1587.93,-1300.81 1603.5,-1308.31 1617.97,-1314.81"/>
<polygon fill="black" stroke="black" points="1616.32,-1317.9 1626.88,-1318.73 1619.14,-1311.5 1616.32,-1317.9"/>
</g>
<!-- Clear&#45;&gt;Forehand Drop -->
<g id="edge50" class="edge">
<title>Clear&#45;&gt;Forehand Drop</title>
<path fill="none" stroke="black" d="M1374.7,-1169.42C1426.85,-1183.5 1541.21,-1214.38 1611.15,-1233.26"/>
<polygon fill="black" stroke="black" points="1609.95,-1236.57 1620.52,-1235.79 1611.78,-1229.81 1609.95,-1236.57"/>
</g>
<!-- Clear&#45;&gt;Overhead Smash -->
<g id="edge36" class="edge">
<title>Clear&#45;&gt;Overhead Smash</title>
<path fill="none" stroke="black" d="M1377.54,-1162C1424.44,-1162 1516.27,-1162 1584.46,-1162"/>
<polygon fill="black" stroke="black" points="1584.11,-1165.5 1594.11,-1162 1584.11,-1158.5 1584.11,-1165.5"/>
</g>
<!-- Backhand Clear&#45;&gt;Backhand Smash -->
<g id="edge35" class="edge">
<title>Backhand Clear&#45;&gt;Backhand Smash</title>
<path fill="none" stroke="black" d="M1416.75,-1075C1465.61,-1075 1531.3,-1075 1583.46,-1075"/>
<polygon fill="black" stroke="black" points="1583.19,-1078.5 1593.19,-1075 1583.19,-1071.5 1583.19,-1078.5"/>
</g>
<!-- Backhand Clear&#45;&gt;Backhand Drop -->
<g id="edge51" class="edge">
<title>Backhand Clear&#45;&gt;Backhand Drop</title>
<path fill="none" stroke="black" d="M1395.82,-1061.88C1453.16,-1046.4 1548.5,-1020.65 1610.14,-1004.01"/>
<polygon fill="black" stroke="black" points="1611.04,-1007.39 1619.78,-1001.41 1609.21,-1000.63 1611.04,-1007.39"/>
</g>
<!-- Forehand Drive&#45;&gt;Forehand Net Kill -->
<g id="edge41" class="edge">
<title>Forehand Drive&#45;&gt;Forehand Net Kill</title>
<path fill="none" stroke="black" d="M1415.96,-901C1463.91,-901 1528.35,-901 1580.26,-901"/>
<polygon fill="black" stroke="black" points="1579.96,-904.5 1589.96,-901 1579.96,-897.5 1579.96,-904.5"/>
</g>
</g>
</svg>
